<svg width="54" height="54" viewBox="0 0 54 54" fill="none" xmlns="http://www.w3.org/2000/svg">
<circle opacity="0.2" cx="27" cy="27" r="19" fill="#29319F"/>
<path d="M28.2763 35.2724H25.7055C25.5164 35.2741 25.3288 35.2358 25.1539 35.1596C24.9789 35.0833 24.8201 34.9707 24.6866 34.8284C24.5532 34.6861 24.4479 34.5169 24.3769 34.3307C24.3059 34.1446 24.2706 33.9453 24.2731 33.7444V20.2454C24.2844 19.6514 24.5124 19.0852 24.9092 18.6663C25.306 18.2474 25.8404 18.0085 26.3998 18H27.607C28.1675 18.0103 28.7021 18.2518 29.0979 18.6733C29.4936 19.0949 29.7194 19.6635 29.7275 20.2587V33.7577C29.7284 33.9591 29.6912 34.1587 29.6183 34.3446C29.5454 34.5306 29.4381 34.6991 29.3028 34.8403C29.1676 34.9815 29.0071 35.0924 28.8307 35.1666C28.6544 35.2409 28.4659 35.2768 28.2763 35.2724V35.2724Z" fill="#29319F"/>
<path d="M20.9776 35.2727H18.49C18.2939 35.2746 18.0993 35.2339 17.9178 35.1531C17.7362 35.0723 17.5713 34.9529 17.4326 34.8019C17.2939 34.6509 17.1842 34.4714 17.11 34.2738C17.0357 34.0761 16.9983 33.8644 17.0001 33.6509V25.8451C17 25.5294 17.0575 25.2168 17.1691 24.9254C17.2806 24.634 17.4441 24.3695 17.6501 24.1473C17.8561 23.925 18.1005 23.7494 18.3692 23.6305C18.6379 23.5117 18.9255 23.4519 19.2155 23.4547H20.265C20.8463 23.4565 21.4032 23.7092 21.8136 24.1573C22.2241 24.6054 22.4545 25.2123 22.4545 25.8451V33.665C22.4545 34.0914 22.2989 34.5003 22.0219 34.8018C21.745 35.1033 21.3693 35.2727 20.9776 35.2727Z" fill="#29319F"/>
<path d="M35.4525 35.2724H33.0673C32.6652 35.2643 32.2819 35.104 31.998 34.825C31.7142 34.5461 31.5519 34.1702 31.5454 33.7766V30.178C31.5454 29.8914 31.6032 29.6077 31.7154 29.3431C31.8276 29.0784 31.9921 28.838 32.1994 28.6357C32.4068 28.4334 32.6528 28.2731 32.9236 28.164C33.1943 28.0549 33.4843 27.9992 33.7771 28H34.7683C35.061 27.9992 35.3511 28.0549 35.6218 28.164C35.8925 28.2731 36.1386 28.4334 36.3459 28.6357C36.5532 28.838 36.7177 29.0784 36.83 29.3431C36.9422 29.6077 37 29.8914 37 30.178V33.7891C37 33.9866 36.9598 34.182 36.8816 34.3641C36.8035 34.5461 36.689 34.711 36.5448 34.8492C36.4007 34.9873 36.2298 35.0959 36.0423 35.1686C35.8547 35.2413 35.6542 35.2766 35.4525 35.2724V35.2724Z" fill="#29319F"/>
</svg>
