<svg width="406" height="619" viewBox="0 0 406 619" fill="none" xmlns="http://www.w3.org/2000/svg">
<path d="M68.0972 24.008C68.3532 23.336 68.1292 22.504 68.1932 21.8C68.2572 21.064 68.3852 20.328 68.3852 19.56C68.3852 18.984 68.3212 18.184 69.1212 18.184C69.7932 18.184 70.4972 18.536 71.0732 18.856C71.6812 19.176 72.0972 19.656 72.4812 20.232C72.8652 20.808 73.2172 21.384 73.5693 21.992C73.9213 22.6 74.0492 23.272 74.3053 23.944C74.5612 24.52 74.9773 25 75.6493 25.032C76.2572 25.064 77.0253 25 77.5693 24.68C78.8813 23.976 77.8573 21.992 77.4733 20.968C76.9932 19.656 76.1932 18.408 75.3293 17.32C75.1053 17.032 74.8173 16.808 74.5612 16.552C74.3372 16.328 74.0492 16.136 73.9852 15.816C73.8573 15.176 74.7212 14.76 75.1053 14.44C76.0972 13.512 76.7373 12.392 77.2493 11.176C77.5693 10.472 77.8252 9.704 78.0173 8.968C78.1772 8.328 78.5293 7.56 78.1133 6.952C77.7613 6.376 77.0893 6.248 76.4493 6.248C75.8413 6.216 75.2013 6.184 74.7212 6.664C74.2092 7.144 74.0813 7.88 73.8892 8.52C73.6652 9.192 73.4093 9.864 73.0573 10.472C72.3212 11.688 71.2013 12.36 69.8892 12.808C69.3772 12.968 68.5772 13.32 68.2892 12.68C68.0012 12.072 68.2252 11.144 68.2892 10.536C68.3852 9.8 68.4492 9.128 68.3852 8.392C68.3212 7.752 68.2252 7.048 67.6812 6.6C67.1692 6.184 66.4012 6.344 65.7932 6.408C65.1532 6.472 64.4172 6.664 64.1612 7.336C63.8732 8.008 64.0332 8.904 64.0332 9.608V11.912C64.0652 12.648 64.0652 13.384 64.1612 14.12C64.2252 14.856 64.3532 15.56 64.2572 16.328C64.1612 17.064 64.0652 17.768 64.0652 18.536C64.0652 19.272 64.0972 20.008 64.0972 20.744C64.0652 20.744 64.1292 22.536 64.1612 22.728C64.2252 23.368 64.2572 24.136 64.7372 24.616C65.1852 25.128 65.9212 25.032 66.5292 24.936C67.1692 24.872 67.8732 24.712 68.0972 24.008ZM93.3263 21.16C91.8543 20.904 90.2543 21.096 88.7823 21.064H86.6063C86.2863 21.064 85.9023 21.064 85.7103 20.776C85.5183 20.552 85.5823 20.168 85.5823 19.88C85.5823 19.528 85.5823 19.176 85.5503 18.824C85.5183 18.536 85.5183 18.184 85.7743 17.96C86.0303 17.736 86.4783 17.8 86.8303 17.832C87.1823 17.864 87.5343 17.864 87.9183 17.864H87.9503C87.9503 17.864 90.0303 17.8 90.2223 17.8C90.8943 17.8 91.5983 17.736 92.0463 17.16C92.4303 16.648 92.4623 15.784 92.3023 15.208C91.9183 13.672 89.6783 13.864 88.4943 13.896C87.7263 13.896 86.8623 14.088 86.1263 13.928C85.3903 13.768 85.3903 12.904 85.3903 12.328C85.4223 11.752 85.3903 10.984 86.0303 10.728C86.6383 10.472 87.5023 10.504 88.1743 10.504C89.7103 10.504 91.2463 10.696 92.7823 10.6C93.4223 10.536 94.1263 10.408 94.4143 9.736C94.6383 9.16 94.7023 8.2 94.5743 7.592C94.1903 6.056 91.8863 6.408 90.7343 6.536C89.1663 6.76 87.6303 6.536 86.0623 6.504C85.3263 6.504 84.5903 6.568 83.8543 6.6C83.2463 6.664 82.3823 6.44 81.8383 6.76C81.1983 7.112 81.4543 8.136 81.4543 8.712C81.4863 9.512 81.4223 10.28 81.4223 11.08C81.3903 11.88 81.4223 12.712 81.3263 13.512C81.2623 14.248 81.1983 14.984 81.2623 15.752C81.3263 16.52 81.3903 17.288 81.3903 18.056C81.4223 18.824 81.3263 19.592 81.2943 20.36C81.2303 21.128 81.2303 21.896 81.1983 22.664C81.1983 23.336 80.9743 24.232 81.2943 24.872C81.6143 25.512 82.5743 25.384 83.1823 25.352C83.9183 25.352 84.6863 25.352 85.4223 25.288C87.0223 25.192 88.6543 25.352 90.2543 25.224C91.0543 25.16 91.8863 25.16 92.6863 25.192C93.3583 25.224 93.9663 25.192 94.3823 24.552C94.7023 23.976 94.7023 23.112 94.6703 22.44C94.6383 21.672 94.0303 21.288 93.3263 21.16ZM109.773 21.16C108.301 20.904 106.701 21.096 105.229 21.064H103.053C102.733 21.064 102.349 21.064 102.157 20.776C101.965 20.552 102.029 20.168 102.029 19.88C102.029 19.528 102.029 19.176 101.997 18.824C101.965 18.536 101.965 18.184 102.221 17.96C102.477 17.736 102.925 17.8 103.277 17.832C103.629 17.864 103.981 17.864 104.365 17.864H104.397C104.397 17.864 106.477 17.8 106.669 17.8C107.341 17.8 108.045 17.736 108.493 17.16C108.877 16.648 108.909 15.784 108.749 15.208C108.365 13.672 106.125 13.864 104.941 13.896C104.173 13.896 103.309 14.088 102.573 13.928C101.837 13.768 101.837 12.904 101.837 12.328C101.869 11.752 101.837 10.984 102.477 10.728C103.085 10.472 103.949 10.504 104.621 10.504C106.157 10.504 107.693 10.696 109.229 10.6C109.869 10.536 110.573 10.408 110.861 9.736C111.085 9.16 111.149 8.2 111.021 7.592C110.637 6.056 108.333 6.408 107.181 6.536C105.613 6.76 104.077 6.536 102.509 6.504C101.773 6.504 101.037 6.568 100.301 6.6C99.6925 6.664 98.8285 6.44 98.2845 6.76C97.6445 7.112 97.9005 8.136 97.9005 8.712C97.9325 9.512 97.8685 10.28 97.8685 11.08C97.8365 11.88 97.8685 12.712 97.7725 13.512C97.7085 14.248 97.6445 14.984 97.7085 15.752C97.7725 16.52 97.8365 17.288 97.8365 18.056C97.8685 18.824 97.7725 19.592 97.7405 20.36C97.6765 21.128 97.6765 21.896 97.6445 22.664C97.6445 23.336 97.4205 24.232 97.7405 24.872C98.0605 25.512 99.0205 25.384 99.6285 25.352C100.365 25.352 101.133 25.352 101.869 25.288C103.469 25.192 105.101 25.352 106.701 25.224C107.501 25.16 108.333 25.16 109.133 25.192C109.805 25.224 110.413 25.192 110.829 24.552C111.149 23.976 111.149 23.112 111.117 22.44C111.085 21.672 110.477 21.288 109.773 21.16ZM128.427 11.112C128.139 10.216 127.563 9.384 127.019 8.648C126.379 7.816 125.675 7.336 124.715 6.952C123.819 6.6 122.827 6.6 121.867 6.504C120.843 6.408 119.883 6.44 118.827 6.536C117.867 6.632 116.939 6.632 115.979 6.664C114.923 6.696 114.379 7.176 114.219 8.2C113.963 10.024 113.995 11.944 114.091 13.768C114.155 14.856 114.123 15.976 114.123 17.064C114.123 17.928 114.219 18.792 114.283 19.688C114.379 20.584 114.283 21.512 114.283 22.44C114.283 23.336 114.123 24.52 115.115 24.968C115.531 25.128 116.043 25.16 116.491 25.16C116.939 25.16 117.387 25.16 117.771 24.872C118.571 24.264 118.347 22.984 118.379 22.12C118.379 21.64 118.443 21.192 118.411 20.712C118.411 20.36 118.315 19.88 118.475 19.528C118.859 18.76 120.363 19.016 121.099 19.016H121.131C121.131 19.08 123.947 18.92 124.235 18.824C125.291 18.504 126.251 17.672 127.019 16.936C128.587 15.432 129.099 13.16 128.427 11.112ZM123.435 15.112C122.251 16.04 120.747 15.752 119.403 15.784C118.827 15.816 118.379 15.72 118.251 15.112C118.091 14.472 118.187 13.736 118.187 13.064V11.944C118.219 11.592 118.187 11.176 118.443 10.888C118.859 10.344 119.915 10.632 120.523 10.664C121.643 10.696 123.339 10.664 124.011 11.784C124.651 12.808 124.395 14.376 123.435 15.112ZM144.636 6.248C144.636 6.216 141.82 6.344 141.5 6.376C140.508 6.44 139.036 6.248 138.748 7.496C138.524 8.424 138.524 9.864 139.58 10.28C140.06 10.472 140.668 10.44 141.18 10.44C141.756 10.472 142.46 10.28 143.004 10.536C143.388 10.696 143.452 11.112 143.452 11.496V13.192C143.452 14.216 143.292 15.24 143.26 16.264C143.26 17.224 143.324 18.216 143.388 19.176C143.452 20.072 143.484 20.968 143.516 21.896C143.516 22.792 143.1 23.944 143.868 24.648C144.316 25.064 144.86 25.032 145.436 24.968C145.852 24.936 146.3 24.904 146.716 24.744C147.804 24.264 147.548 23.08 147.548 22.12C147.58 21.096 147.708 20.104 147.644 19.048C147.484 17.064 147.708 15.08 147.516 13.064C147.452 12.264 147.324 10.824 148.348 10.536C149.34 10.248 150.46 10.6 151.452 10.28C152.444 9.96 152.572 8.776 152.54 7.88C152.476 6.76 151.58 6.408 150.588 6.312C149.564 6.216 148.604 6.312 147.58 6.376C146.588 6.408 145.596 6.248 144.636 6.248ZM155.089 15.88C155.217 15.88 154.961 19.688 154.961 20.104C154.929 20.872 154.929 21.64 154.929 22.408C154.961 22.984 154.929 23.72 155.185 24.264C155.473 24.808 156.049 24.936 156.625 24.968C157.169 25.032 157.873 25.032 158.385 24.776C158.993 24.456 159.121 23.88 159.153 23.272C159.185 22.6 159.217 21.96 159.217 21.288C159.217 20.808 159.121 19.976 159.761 19.816C160.241 19.688 160.945 19.976 161.361 20.168C162.385 20.68 163.249 21.608 163.921 22.504C164.657 23.464 165.553 24.168 166.705 24.552C167.249 24.776 167.921 24.872 168.497 24.872C169.009 24.872 169.521 24.712 169.841 24.264C170.481 23.304 170.097 21.864 169.041 21.352C168.529 21.096 167.953 21.064 167.473 20.712C167.025 20.36 166.577 19.88 166.289 19.4C165.937 18.888 166.065 18.472 166.577 18.12C167.089 17.736 167.569 17.416 168.017 16.968C168.849 16.136 169.073 14.792 169.393 13.672C169.745 12.456 169.329 11.368 168.977 10.216C168.785 9.672 168.593 9.128 168.177 8.68C167.825 8.328 167.377 8.008 166.929 7.72C165.937 7.112 164.849 6.664 163.729 6.44C162.577 6.184 161.329 6.408 160.177 6.472C159.025 6.568 157.905 6.376 156.753 6.344C155.409 6.28 155.121 7.432 154.993 8.552C154.897 9.672 154.929 10.792 154.993 11.912C155.089 13.224 155.089 14.536 155.089 15.88ZM160.529 15.72C159.793 15.72 159.217 15.656 159.217 14.792C159.217 14.024 159.153 13.288 159.089 12.52C159.025 12.008 158.897 11.016 159.377 10.632C159.857 10.312 160.625 10.568 161.169 10.568C161.777 10.568 162.417 10.408 163.025 10.504C163.601 10.6 164.305 10.952 164.689 11.4C165.617 12.392 165.329 14.056 164.369 14.952C163.921 15.336 163.185 15.656 162.609 15.784C161.905 15.944 161.233 15.656 160.529 15.72ZM180.557 6.504C180.045 6.376 179.405 6.76 179.117 7.144C178.829 7.56 178.669 8.104 178.509 8.584C178.093 9.672 177.581 10.76 177.133 11.816C176.685 12.904 176.013 13.832 175.629 14.888C175.245 16.008 174.957 17.16 174.477 18.216C174.061 19.176 173.517 20.072 173.101 21.032L172.461 22.504C172.269 22.888 171.981 23.368 172.045 23.816C172.141 24.968 173.517 25 174.349 24.936C175.469 24.904 175.885 24.168 176.397 23.272C176.621 22.856 176.909 22.44 177.421 22.312C177.837 22.216 178.317 22.28 178.765 22.248C179.533 22.216 180.301 22.12 181.101 22.12C181.869 22.12 182.797 22.056 183.533 22.28C184.525 22.6 184.461 23.88 185.069 24.52C185.453 24.936 186.029 25.032 186.541 25.032C187.021 25.032 187.565 25.064 188.013 24.904C189.197 24.488 188.717 23.272 188.365 22.44C187.565 20.584 186.669 18.792 186.157 16.84C185.869 15.784 185.357 14.792 184.877 13.8C184.429 12.776 184.013 11.752 183.533 10.76C183.149 9.864 182.637 9.064 182.349 8.136C182.029 7.176 181.645 6.504 180.557 6.504ZM180.205 18.632C179.757 18.632 179.085 18.76 178.733 18.408C178.349 18.024 178.765 17.224 178.925 16.808C179.117 16.264 179.373 15.752 179.597 15.24C179.789 14.824 180.173 13.768 180.749 14.376C180.941 14.6 181.037 14.984 181.165 15.272L181.549 16.072C181.837 16.616 182.157 17.128 182.317 17.704C182.733 19.048 180.941 18.632 180.205 18.632ZM199.196 25.32C199.196 25.352 200.508 25.192 200.604 25.192C201.98 25.032 203.292 24.584 204.476 23.88C204.988 23.56 205.756 23.112 205.98 22.504C206.172 21.96 205.916 21.352 205.532 20.968C205.116 20.52 204.508 19.944 203.868 19.848C203.228 19.752 202.62 20.136 202.076 20.424C201.02 21 199.772 21.192 198.588 21.096C198.044 21.032 197.468 21 196.956 20.776C196.38 20.552 195.772 20.104 195.356 19.656C194.524 18.824 194.044 17.608 193.948 16.456C193.852 15.368 193.948 14.12 194.492 13.16C194.844 12.616 195.228 12.072 195.708 11.592C196.156 11.144 196.668 10.632 197.308 10.44C198.204 10.216 199.292 10.184 200.22 10.312C201.404 10.472 202.652 11.432 203.644 10.28C204.38 9.448 205.276 8.008 203.932 7.272C202.748 6.632 201.372 6.248 200.06 6.024C199.452 5.896 198.876 5.896 198.268 6.024L196.22 6.536C194.908 6.888 193.596 7.432 192.7 8.456C192.284 8.968 191.9 9.48 191.516 9.992C191.1 10.568 190.684 11.112 190.364 11.752C190.108 12.328 189.82 12.936 189.724 13.576C189.596 14.216 189.66 14.92 189.66 15.56C189.66 16.232 189.628 16.936 189.724 17.576C189.82 18.184 190.012 18.76 190.236 19.336C190.684 20.552 191.516 21.672 192.412 22.632C193.308 23.56 194.396 24.392 195.676 24.744C196.796 25.032 198.012 25.32 199.196 25.32ZM212.426 24.008C212.682 23.336 212.458 22.504 212.522 21.8C212.586 21.064 212.714 20.328 212.714 19.56C212.714 18.984 212.65 18.184 213.45 18.184C214.122 18.184 214.826 18.536 215.402 18.856C216.01 19.176 216.426 19.656 216.81 20.232C217.194 20.808 217.546 21.384 217.898 21.992C218.25 22.6 218.378 23.272 218.634 23.944C218.89 24.52 219.306 25 219.978 25.032C220.586 25.064 221.354 25 221.898 24.68C223.21 23.976 222.186 21.992 221.802 20.968C221.322 19.656 220.522 18.408 219.658 17.32C219.434 17.032 219.146 16.808 218.89 16.552C218.666 16.328 218.378 16.136 218.314 15.816C218.186 15.176 219.05 14.76 219.434 14.44C220.426 13.512 221.066 12.392 221.578 11.176C221.898 10.472 222.154 9.704 222.346 8.968C222.506 8.328 222.858 7.56 222.442 6.952C222.09 6.376 221.418 6.248 220.778 6.248C220.17 6.216 219.53 6.184 219.05 6.664C218.538 7.144 218.41 7.88 218.218 8.52C217.994 9.192 217.738 9.864 217.386 10.472C216.65 11.688 215.53 12.36 214.218 12.808C213.706 12.968 212.906 13.32 212.618 12.68C212.33 12.072 212.554 11.144 212.618 10.536C212.714 9.8 212.778 9.128 212.714 8.392C212.65 7.752 212.554 7.048 212.01 6.6C211.498 6.184 210.73 6.344 210.122 6.408C209.482 6.472 208.746 6.664 208.49 7.336C208.202 8.008 208.362 8.904 208.362 9.608V11.912C208.394 12.648 208.394 13.384 208.49 14.12C208.554 14.856 208.682 15.56 208.586 16.328C208.49 17.064 208.394 17.768 208.394 18.536C208.394 19.272 208.426 20.008 208.426 20.744C208.394 20.744 208.458 22.536 208.49 22.728C208.554 23.368 208.586 24.136 209.066 24.616C209.514 25.128 210.25 25.032 210.858 24.936C211.498 24.872 212.202 24.712 212.426 24.008ZM251.671 11.912C251.415 11.048 250.711 10.248 250.135 9.544C249.463 8.776 248.791 8.072 247.959 7.464C247.159 6.856 246.231 6.504 245.271 6.28C244.343 6.056 243.351 5.896 242.423 6.024C241.431 6.184 240.471 6.44 239.543 6.856C238.679 7.24 237.751 7.656 237.015 8.264C235.575 9.512 234.519 11.368 233.911 13.16C233.303 14.984 233.559 17.16 234.135 18.952C234.423 19.848 234.871 20.648 235.415 21.448C235.959 22.248 236.599 23.112 237.431 23.656C238.999 24.68 240.983 25.384 242.871 25.32C243.991 25.384 245.207 25.032 246.263 24.68C247.319 24.36 248.215 23.784 249.111 23.112C250.007 22.408 250.711 21.736 251.223 20.68C251.703 19.656 251.927 18.536 252.119 17.416C252.279 16.488 252.343 15.656 252.215 14.728C252.119 13.8 251.959 12.808 251.671 11.912ZM247.991 17.576C247.703 18.568 246.999 19.56 246.167 20.2C245.783 20.52 245.367 20.84 244.887 20.968C244.375 21.096 243.799 21.128 243.287 21.096C241.943 21.096 240.727 20.808 239.639 19.976C238.679 19.24 238.167 17.896 237.943 16.744C237.431 14.408 238.615 12.296 240.567 11.016C242.455 9.832 244.855 10.248 246.519 11.592C247.319 12.264 247.767 13.384 248.023 14.344C248.311 15.432 248.311 16.456 247.991 17.576ZM255.295 19.016C255.359 19.656 255.327 20.328 255.327 21C255.327 21.64 255.391 22.248 255.391 22.856C255.391 23.4 255.231 24.2 255.519 24.68C255.839 25.128 256.479 25.032 256.959 25C257.503 25 258.207 25.064 258.751 24.904C259.295 24.744 259.391 24.264 259.455 23.784C259.583 22.632 259.615 21.48 259.647 20.36V20.168C259.615 19.56 259.519 18.856 259.647 18.28C259.807 17.576 260.543 17.544 261.119 17.512C261.823 17.48 262.527 17.448 263.199 17.448C263.903 17.448 264.671 17.608 265.311 17.416C266.559 17.032 266.719 15.048 265.887 14.216C265.407 13.768 264.799 13.736 264.159 13.704C263.487 13.704 262.815 13.8 262.111 13.864C261.535 13.896 260.863 13.992 260.255 13.896C259.679 13.832 259.551 13.448 259.583 12.904C259.583 12.552 259.615 12.168 259.615 11.816C259.647 11.592 259.647 11.304 259.743 11.08C259.999 10.632 260.479 10.6 260.927 10.568C262.143 10.44 263.359 10.6 264.575 10.504C265.215 10.472 265.887 10.376 266.527 10.408C267.039 10.44 267.615 10.472 268.063 10.152C268.511 9.8 268.607 9.256 268.639 8.712C268.671 8.2 268.735 7.56 268.415 7.112C268.063 6.632 267.519 6.504 266.975 6.472C266.335 6.44 265.727 6.408 265.119 6.408C263.903 6.408 262.655 6.344 261.439 6.344C260.223 6.344 259.007 6.504 257.791 6.472C257.215 6.44 256.383 6.152 255.871 6.472C255.391 6.76 255.359 7.368 255.327 7.848C255.295 8.584 255.391 9.288 255.455 10.024C255.487 10.632 255.391 11.24 255.327 11.848C255.167 13.064 255.551 14.216 255.423 15.432C255.263 16.648 255.231 17.8 255.295 19.016ZM283.888 22.696C283.92 23.24 283.824 23.88 284.112 24.36C284.4 24.84 284.88 25.032 285.392 25.064C286.416 25.16 288.08 25.096 288.144 23.752C288.176 23.24 288.112 22.728 288.112 22.184L288.24 20.328C288.272 19.24 288.08 18.152 288.176 17.064C288.4 14.92 289.936 13.32 291.12 11.624C291.696 10.792 292.176 9.832 292.752 8.968C293.168 8.296 293.776 7.336 292.848 6.728C292.432 6.44 291.824 6.472 291.312 6.472C290.832 6.44 290.288 6.408 289.808 6.664C289.36 6.888 289.104 7.368 288.88 7.784C288.592 8.264 288.336 8.712 287.984 9.128C287.632 9.608 287.248 10.056 286.96 10.536C286.736 10.888 286.544 11.496 286.128 11.656C285.296 12.008 284.528 10.056 284.272 9.48C283.856 8.584 283.28 7.688 282.544 6.984C281.84 6.28 280.848 6.312 279.888 6.44C278.992 6.536 278.16 7.4 278.672 8.328C278.928 8.776 279.312 9.192 279.632 9.64C279.92 10.088 280.208 10.504 280.464 10.952C281.04 11.912 281.584 12.808 282.32 13.64C282.96 14.376 283.6 15.272 283.792 16.264C284.048 17.384 283.92 18.568 283.856 19.688C283.824 20.68 283.888 21.704 283.888 22.696ZM313.643 11.912C313.387 11.048 312.683 10.248 312.107 9.544C311.435 8.776 310.763 8.072 309.931 7.464C309.131 6.856 308.203 6.504 307.243 6.28C306.315 6.056 305.323 5.896 304.395 6.024C303.403 6.184 302.443 6.44 301.515 6.856C300.651 7.24 299.723 7.656 298.987 8.264C297.547 9.512 296.491 11.368 295.883 13.16C295.275 14.984 295.531 17.16 296.107 18.952C296.395 19.848 296.843 20.648 297.387 21.448C297.931 22.248 298.571 23.112 299.403 23.656C300.971 24.68 302.955 25.384 304.843 25.32C305.963 25.384 307.179 25.032 308.235 24.68C309.291 24.36 310.187 23.784 311.083 23.112C311.979 22.408 312.683 21.736 313.195 20.68C313.675 19.656 313.899 18.536 314.091 17.416C314.251 16.488 314.315 15.656 314.187 14.728C314.091 13.8 313.931 12.808 313.643 11.912ZM309.963 17.576C309.675 18.568 308.971 19.56 308.139 20.2C307.755 20.52 307.339 20.84 306.859 20.968C306.347 21.096 305.771 21.128 305.259 21.096C303.915 21.096 302.699 20.808 301.611 19.976C300.651 19.24 300.139 17.896 299.915 16.744C299.403 14.408 300.587 12.296 302.539 11.016C304.427 9.832 306.827 10.248 308.491 11.592C309.291 12.264 309.739 13.384 309.995 14.344C310.283 15.432 310.283 16.456 309.963 17.576ZM328.628 16.872C328.628 17.608 328.692 18.472 328.468 19.176C328.276 19.784 327.7 20.296 327.188 20.648C326.644 21.064 325.844 21.384 325.14 21.384C323.796 21.416 322.452 20.488 321.94 19.272C321.396 17.992 321.556 16.616 321.652 15.304C321.716 14.536 321.748 13.736 321.684 12.968C321.62 12.2 321.492 11.496 321.556 10.728C321.652 10.056 321.78 9.416 321.78 8.744C321.78 8.072 321.812 7.304 321.268 6.856C320.724 6.376 319.988 6.472 319.316 6.504C318.708 6.568 318.004 6.632 317.652 7.208C317.364 7.688 317.492 8.392 317.524 8.936C317.556 9.672 317.62 10.408 317.62 11.144C317.588 11.88 317.46 12.616 317.396 13.352C317.364 14.024 317.428 14.696 317.46 15.368C317.556 16.84 317.396 18.376 317.844 19.784C318.26 21.128 318.996 22.536 320.084 23.432C321.204 24.36 322.484 24.808 323.86 25.16C325.268 25.512 326.804 25.576 328.116 24.84C329.268 24.232 330.452 23.56 331.22 22.472C332.116 21.288 332.5 19.944 332.756 18.504C333.044 17.064 332.948 15.624 332.948 14.152C332.916 13.384 332.948 12.584 332.98 11.816C332.98 11.08 332.82 10.376 332.756 9.672C332.724 9.288 332.724 8.872 332.788 8.488C332.82 8.136 332.916 7.784 332.788 7.432C332.564 6.728 331.764 6.536 331.124 6.44C330.484 6.344 329.716 6.152 329.172 6.664C328.66 7.144 328.66 7.88 328.66 8.52C328.724 9.864 328.5 11.208 328.564 12.552C328.628 13.992 328.628 15.432 328.628 16.872ZM336.466 15.88C336.594 15.88 336.338 19.688 336.338 20.104C336.306 20.872 336.306 21.64 336.306 22.408C336.338 22.984 336.306 23.72 336.562 24.264C336.85 24.808 337.426 24.936 338.002 24.968C338.546 25.032 339.25 25.032 339.762 24.776C340.37 24.456 340.498 23.88 340.53 23.272C340.562 22.6 340.594 21.96 340.594 21.288C340.594 20.808 340.498 19.976 341.138 19.816C341.618 19.688 342.322 19.976 342.738 20.168C343.762 20.68 344.626 21.608 345.298 22.504C346.034 23.464 346.93 24.168 348.082 24.552C348.626 24.776 349.298 24.872 349.874 24.872C350.386 24.872 350.898 24.712 351.218 24.264C351.858 23.304 351.474 21.864 350.418 21.352C349.906 21.096 349.33 21.064 348.85 20.712C348.402 20.36 347.954 19.88 347.666 19.4C347.314 18.888 347.442 18.472 347.954 18.12C348.466 17.736 348.946 17.416 349.394 16.968C350.226 16.136 350.45 14.792 350.77 13.672C351.122 12.456 350.706 11.368 350.354 10.216C350.162 9.672 349.97 9.128 349.554 8.68C349.202 8.328 348.754 8.008 348.306 7.72C347.314 7.112 346.226 6.664 345.106 6.44C343.954 6.184 342.706 6.408 341.554 6.472C340.402 6.568 339.282 6.376 338.13 6.344C336.786 6.28 336.498 7.432 336.37 8.552C336.274 9.672 336.306 10.792 336.37 11.912C336.466 13.224 336.466 14.536 336.466 15.88ZM341.906 15.72C341.17 15.72 340.594 15.656 340.594 14.792C340.594 14.024 340.53 13.288 340.466 12.52C340.402 12.008 340.274 11.016 340.754 10.632C341.234 10.312 342.002 10.568 342.546 10.568C343.154 10.568 343.794 10.408 344.402 10.504C344.978 10.6 345.682 10.952 346.066 11.4C346.994 12.392 346.706 14.056 345.746 14.952C345.298 15.336 344.562 15.656 343.986 15.784C343.282 15.944 342.61 15.656 341.906 15.72ZM151.683 43.112C151.395 42.216 150.819 41.384 150.275 40.648C149.635 39.816 148.931 39.336 147.971 38.952C147.075 38.6 146.083 38.6 145.123 38.504C144.099 38.408 143.139 38.44 142.083 38.536C141.123 38.632 140.195 38.632 139.235 38.664C138.179 38.696 137.635 39.176 137.475 40.2C137.219 42.024 137.251 43.944 137.347 45.768C137.411 46.856 137.379 47.976 137.379 49.064C137.379 49.928 137.475 50.792 137.539 51.688C137.635 52.584 137.539 53.512 137.539 54.44C137.539 55.336 137.379 56.52 138.371 56.968C138.787 57.128 139.299 57.16 139.747 57.16C140.195 57.16 140.643 57.16 141.027 56.872C141.827 56.264 141.603 54.984 141.635 54.12C141.635 53.64 141.699 53.192 141.667 52.712C141.667 52.36 141.571 51.88 141.731 51.528C142.115 50.76 143.619 51.016 144.355 51.016H144.387C144.387 51.08 147.203 50.92 147.491 50.824C148.547 50.504 149.507 49.672 150.275 48.936C151.843 47.432 152.355 45.16 151.683 43.112ZM146.691 47.112C145.507 48.04 144.003 47.752 142.659 47.784C142.083 47.816 141.635 47.72 141.507 47.112C141.347 46.472 141.443 45.736 141.443 45.064V43.944C141.475 43.592 141.443 43.176 141.699 42.888C142.115 42.344 143.171 42.632 143.779 42.664C144.899 42.696 146.595 42.664 147.267 43.784C147.907 44.808 147.651 46.376 146.691 47.112ZM154.453 47.88C154.581 47.88 154.325 51.688 154.325 52.104C154.293 52.872 154.293 53.64 154.293 54.408C154.325 54.984 154.293 55.72 154.549 56.264C154.837 56.808 155.413 56.936 155.989 56.968C156.533 57.032 157.237 57.032 157.749 56.776C158.357 56.456 158.485 55.88 158.517 55.272C158.549 54.6 158.581 53.96 158.581 53.288C158.581 52.808 158.485 51.976 159.125 51.816C159.605 51.688 160.309 51.976 160.725 52.168C161.749 52.68 162.613 53.608 163.285 54.504C164.021 55.464 164.917 56.168 166.069 56.552C166.613 56.776 167.285 56.872 167.861 56.872C168.373 56.872 168.885 56.712 169.205 56.264C169.845 55.304 169.461 53.864 168.405 53.352C167.893 53.096 167.317 53.064 166.837 52.712C166.389 52.36 165.941 51.88 165.653 51.4C165.301 50.888 165.429 50.472 165.941 50.12C166.453 49.736 166.933 49.416 167.381 48.968C168.213 48.136 168.437 46.792 168.757 45.672C169.109 44.456 168.693 43.368 168.341 42.216C168.149 41.672 167.957 41.128 167.541 40.68C167.189 40.328 166.741 40.008 166.293 39.72C165.301 39.112 164.213 38.664 163.093 38.44C161.941 38.184 160.693 38.408 159.541 38.472C158.389 38.568 157.269 38.376 156.117 38.344C154.773 38.28 154.485 39.432 154.357 40.552C154.261 41.672 154.293 42.792 154.357 43.912C154.453 45.224 154.453 46.536 154.453 47.88ZM159.893 47.72C159.157 47.72 158.581 47.656 158.581 46.792C158.581 46.024 158.517 45.288 158.453 44.52C158.389 44.008 158.261 43.016 158.741 42.632C159.221 42.312 159.989 42.568 160.533 42.568C161.141 42.568 161.781 42.408 162.389 42.504C162.965 42.6 163.669 42.952 164.053 43.4C164.981 44.392 164.693 46.056 163.733 46.952C163.285 47.336 162.549 47.656 161.973 47.784C161.269 47.944 160.597 47.656 159.893 47.72ZM189.937 43.912C189.681 43.048 188.977 42.248 188.401 41.544C187.729 40.776 187.057 40.072 186.225 39.464C185.425 38.856 184.497 38.504 183.537 38.28C182.609 38.056 181.617 37.896 180.689 38.024C179.697 38.184 178.737 38.44 177.809 38.856C176.945 39.24 176.017 39.656 175.281 40.264C173.841 41.512 172.785 43.368 172.177 45.16C171.569 46.984 171.825 49.16 172.401 50.952C172.689 51.848 173.137 52.648 173.681 53.448C174.225 54.248 174.865 55.112 175.697 55.656C177.265 56.68 179.249 57.384 181.137 57.32C182.257 57.384 183.473 57.032 184.529 56.68C185.585 56.36 186.481 55.784 187.377 55.112C188.273 54.408 188.977 53.736 189.489 52.68C189.969 51.656 190.193 50.536 190.385 49.416C190.545 48.488 190.609 47.656 190.481 46.728C190.385 45.8 190.225 44.808 189.937 43.912ZM186.257 49.576C185.969 50.568 185.265 51.56 184.433 52.2C184.049 52.52 183.633 52.84 183.153 52.968C182.641 53.096 182.065 53.128 181.553 53.096C180.209 53.096 178.993 52.808 177.905 51.976C176.945 51.24 176.433 49.896 176.209 48.744C175.697 46.408 176.881 44.296 178.833 43.016C180.721 41.832 183.121 42.248 184.785 43.592C185.585 44.264 186.033 45.384 186.289 46.344C186.577 47.432 186.577 48.456 186.257 49.576ZM209.049 46.344C208.281 46.12 207.385 46.216 206.617 46.216C205.785 46.216 204.953 46.408 204.153 46.312C203.385 46.216 202.617 46.12 202.169 46.888C201.817 47.496 202.009 48.552 202.361 49.128C202.809 49.832 203.449 49.8 204.185 49.8C204.185 49.736 205.209 49.8 205.337 49.832C205.625 49.896 205.881 50.056 206.009 50.344C206.233 50.856 206.233 51.816 205.849 52.232C205.337 52.808 204.441 53.064 203.705 53.16C202.905 53.288 202.105 53.224 201.305 53.064C200.473 52.936 199.865 52.456 199.289 51.88C198.745 51.4 198.265 50.856 197.913 50.216C197.529 49.576 197.401 48.744 197.401 48.008C197.401 47.272 197.657 46.44 197.945 45.768C198.201 45.096 198.585 44.296 199.129 43.784C200.313 42.664 201.913 42.024 203.513 42.216C203.961 42.248 204.345 42.312 204.729 42.504C205.081 42.696 205.401 42.888 205.817 42.984C206.521 43.112 207.097 42.728 207.513 42.216C207.993 41.64 208.537 41 208.217 40.232C207.961 39.496 207.161 39.08 206.489 38.76C204.985 38.024 203.481 38.152 201.849 38.184C200.185 38.184 198.777 38.76 197.433 39.752C196.761 40.264 196.057 40.776 195.481 41.352C194.905 41.928 194.617 42.728 194.329 43.464C193.753 44.968 193.177 46.664 193.273 48.296C193.401 49.896 193.913 51.56 194.681 52.968C195.417 54.28 196.729 55.368 197.977 56.2C198.681 56.648 199.481 56.776 200.313 56.968C201.113 57.16 201.913 57.48 202.745 57.512C204.377 57.576 205.977 56.84 207.353 56.072C208.633 55.368 210.201 54.408 210.233 52.808C210.233 51.976 210.201 51.208 210.265 50.376C210.297 49.576 210.297 48.744 210.201 47.944C210.137 47.208 209.817 46.6 209.049 46.344ZM213.291 47.88C213.419 47.88 213.163 51.688 213.163 52.104C213.131 52.872 213.131 53.64 213.131 54.408C213.163 54.984 213.131 55.72 213.387 56.264C213.675 56.808 214.251 56.936 214.827 56.968C215.371 57.032 216.075 57.032 216.587 56.776C217.195 56.456 217.323 55.88 217.355 55.272C217.387 54.6 217.419 53.96 217.419 53.288C217.419 52.808 217.323 51.976 217.963 51.816C218.443 51.688 219.147 51.976 219.563 52.168C220.587 52.68 221.451 53.608 222.123 54.504C222.859 55.464 223.755 56.168 224.907 56.552C225.451 56.776 226.123 56.872 226.699 56.872C227.211 56.872 227.723 56.712 228.043 56.264C228.683 55.304 228.299 53.864 227.243 53.352C226.731 53.096 226.155 53.064 225.675 52.712C225.227 52.36 224.779 51.88 224.491 51.4C224.139 50.888 224.267 50.472 224.779 50.12C225.291 49.736 225.771 49.416 226.219 48.968C227.051 48.136 227.275 46.792 227.595 45.672C227.947 44.456 227.531 43.368 227.179 42.216C226.987 41.672 226.795 41.128 226.379 40.68C226.027 40.328 225.579 40.008 225.131 39.72C224.139 39.112 223.051 38.664 221.931 38.44C220.779 38.184 219.531 38.408 218.379 38.472C217.227 38.568 216.107 38.376 214.955 38.344C213.611 38.28 213.323 39.432 213.195 40.552C213.099 41.672 213.131 42.792 213.195 43.912C213.291 45.224 213.291 46.536 213.291 47.88ZM218.731 47.72C217.995 47.72 217.419 47.656 217.419 46.792C217.419 46.024 217.355 45.288 217.291 44.52C217.227 44.008 217.099 43.016 217.579 42.632C218.059 42.312 218.827 42.568 219.371 42.568C219.979 42.568 220.619 42.408 221.227 42.504C221.803 42.6 222.507 42.952 222.891 43.4C223.819 44.392 223.531 46.056 222.571 46.952C222.123 47.336 221.387 47.656 220.811 47.784C220.107 47.944 219.435 47.656 218.731 47.72ZM243.144 53.16C241.672 52.904 240.072 53.096 238.6 53.064H236.424C236.104 53.064 235.72 53.064 235.528 52.776C235.336 52.552 235.4 52.168 235.4 51.88C235.4 51.528 235.4 51.176 235.368 50.824C235.336 50.536 235.336 50.184 235.592 49.96C235.848 49.736 236.296 49.8 236.648 49.832C237 49.864 237.352 49.864 237.736 49.864H237.768C237.768 49.864 239.848 49.8 240.04 49.8C240.712 49.8 241.416 49.736 241.864 49.16C242.248 48.648 242.28 47.784 242.12 47.208C241.736 45.672 239.496 45.864 238.312 45.896C237.544 45.896 236.68 46.088 235.944 45.928C235.208 45.768 235.208 44.904 235.208 44.328C235.24 43.752 235.208 42.984 235.848 42.728C236.456 42.472 237.32 42.504 237.992 42.504C239.528 42.504 241.064 42.696 242.6 42.6C243.24 42.536 243.944 42.408 244.232 41.736C244.456 41.16 244.52 40.2 244.392 39.592C244.008 38.056 241.704 38.408 240.552 38.536C238.984 38.76 237.448 38.536 235.88 38.504C235.144 38.504 234.408 38.568 233.672 38.6C233.064 38.664 232.2 38.44 231.656 38.76C231.016 39.112 231.272 40.136 231.272 40.712C231.304 41.512 231.24 42.28 231.24 43.08C231.208 43.88 231.24 44.712 231.144 45.512C231.08 46.248 231.016 46.984 231.08 47.752C231.144 48.52 231.208 49.288 231.208 50.056C231.24 50.824 231.144 51.592 231.112 52.36C231.048 53.128 231.048 53.896 231.016 54.664C231.016 55.336 230.792 56.232 231.112 56.872C231.432 57.512 232.392 57.384 233 57.352C233.736 57.352 234.504 57.352 235.24 57.288C236.84 57.192 238.472 57.352 240.072 57.224C240.872 57.16 241.704 57.16 242.504 57.192C243.176 57.224 243.784 57.192 244.2 56.552C244.52 55.976 244.52 55.112 244.488 54.44C244.456 53.672 243.848 53.288 243.144 53.16ZM253.606 38.088C253.606 37.992 251.782 38.248 251.59 38.344C250.95 38.536 250.374 38.984 249.862 39.368C249.254 39.816 248.678 40.264 248.198 40.808C247.718 41.352 247.334 41.864 247.174 42.568C247.046 43.208 246.982 43.88 247.11 44.52C247.398 45.896 248.07 47.24 249.318 47.944C250.566 48.68 251.942 49.128 253.286 49.736C253.926 50.024 254.63 50.28 255.238 50.632C255.75 50.888 256.454 51.496 256.454 52.136C256.422 52.776 255.622 53.256 255.11 53.416C254.406 53.672 253.734 53.704 252.998 53.576C252.326 53.48 251.622 53.32 251.014 52.968C250.406 52.648 249.798 52.136 249.094 52.072C248.358 51.976 247.91 52.456 247.526 53C247.206 53.48 246.662 54.184 246.854 54.792C247.078 55.4 247.942 55.848 248.454 56.136C249.062 56.488 249.734 56.84 250.438 57.032C251.078 57.192 251.782 57.256 252.454 57.352C253.158 57.448 253.862 57.576 254.598 57.544C257.222 57.32 260.166 55.56 260.87 52.872C261.062 52.168 261.126 51.528 260.902 50.824C260.71 50.152 260.454 49.512 260.102 48.904C259.43 47.624 258.15 47.016 256.806 46.632C256.134 46.44 255.494 46.184 254.822 45.896C254.15 45.576 253.382 45.352 252.71 45C252.23 44.744 251.622 44.2 251.526 43.624C251.398 42.952 252.038 42.376 252.582 42.12C253.862 41.512 255.334 42.088 256.518 42.728C257.19 43.112 257.798 43.336 258.534 42.92C259.078 42.632 259.654 41.992 259.878 41.416C260.39 40.136 258.598 39.112 257.606 38.76C256.294 38.28 254.982 38.088 253.606 38.088ZM269.833 38.088C269.833 37.992 268.009 38.248 267.817 38.344C267.177 38.536 266.601 38.984 266.089 39.368C265.481 39.816 264.905 40.264 264.425 40.808C263.945 41.352 263.561 41.864 263.401 42.568C263.273 43.208 263.209 43.88 263.337 44.52C263.625 45.896 264.297 47.24 265.545 47.944C266.793 48.68 268.169 49.128 269.513 49.736C270.153 50.024 270.858 50.28 271.465 50.632C271.977 50.888 272.681 51.496 272.681 52.136C272.649 52.776 271.849 53.256 271.337 53.416C270.634 53.672 269.962 53.704 269.225 53.576C268.553 53.48 267.849 53.32 267.241 52.968C266.633 52.648 266.025 52.136 265.321 52.072C264.585 51.976 264.137 52.456 263.753 53C263.433 53.48 262.889 54.184 263.081 54.792C263.305 55.4 264.169 55.848 264.681 56.136C265.289 56.488 265.961 56.84 266.665 57.032C267.305 57.192 268.009 57.256 268.681 57.352C269.385 57.448 270.089 57.576 270.825 57.544C273.45 57.32 276.394 55.56 277.097 52.872C277.29 52.168 277.354 51.528 277.13 50.824C276.938 50.152 276.682 49.512 276.33 48.904C275.658 47.624 274.377 47.016 273.033 46.632C272.361 46.44 271.721 46.184 271.049 45.896C270.377 45.576 269.609 45.352 268.937 45C268.457 44.744 267.849 44.2 267.753 43.624C267.625 42.952 268.265 42.376 268.809 42.12C270.089 41.512 271.561 42.088 272.745 42.728C273.417 43.112 274.026 43.336 274.762 42.92C275.306 42.632 275.882 41.992 276.106 41.416C276.618 40.136 274.826 39.112 273.833 38.76C272.521 38.28 271.21 38.088 269.833 38.088Z" fill="#573353"/>
<path d="M69.9844 590H72.0074L74.5064 581.296L77.0055 590H79.0284L82.5985 577.76H80.4479L78.0169 586.6L75.5774 577.76L73.4269 577.777L70.9959 586.6L68.5564 577.76H66.4059L69.9844 590ZM83.9854 590H91.8904V588.079H86.0339V584.619H90.8704V582.698H86.0339V579.681H91.8904V577.76H83.9854V590ZM102.51 590.255C103.915 590.255 105.088 589.904 106.029 589.201C106.975 588.493 107.638 587.541 108.018 586.345L105.952 585.775C105.714 586.569 105.309 587.192 104.737 587.645C104.164 588.099 103.422 588.325 102.51 588.325C101.28 588.325 100.353 587.92 99.7301 587.11C99.1124 586.294 98.8036 585.217 98.8036 583.88C98.8092 582.543 99.1209 581.469 99.7386 580.658C100.356 579.842 101.28 579.434 102.51 579.434C103.422 579.434 104.164 579.661 104.737 580.114C105.309 580.568 105.714 581.191 105.952 581.984L108.018 581.415C107.638 580.214 106.975 579.262 106.029 578.559C105.088 577.856 103.915 577.505 102.51 577.505C101.291 577.505 100.243 577.774 99.3646 578.312C98.4919 578.845 97.8204 579.59 97.3501 580.548C96.8854 581.5 96.6531 582.611 96.6531 583.88C96.6531 585.144 96.8854 586.254 97.3501 587.212C97.8204 588.17 98.4919 588.918 99.3646 589.456C100.243 589.989 101.291 590.255 102.51 590.255ZM108.702 590H110.81L111.643 587.348H116.471L117.312 590H119.42L115.561 577.76H112.561L108.702 590ZM112.246 585.435L114.04 579.74L115.859 585.435H112.246ZM120.957 590H123.031V581.372L128.709 590H130.783V577.76H128.709V586.387L123.031 577.76H120.957V590ZM223.126 590H225.174V579.681H229.135V577.76H219.165V579.681H223.126V590ZM235.671 590.255C236.895 590.255 237.943 589.989 238.816 589.456C239.694 588.918 240.366 588.17 240.83 587.212C241.301 586.254 241.536 585.144 241.536 583.88C241.536 582.611 241.301 581.5 240.83 580.548C240.366 579.59 239.694 578.845 238.816 578.312C237.943 577.774 236.895 577.505 235.671 577.505C234.452 577.505 233.404 577.774 232.526 578.312C231.653 578.845 230.982 579.59 230.511 580.548C230.047 581.5 229.814 582.611 229.814 583.88C229.814 585.144 230.047 586.254 230.511 587.212C230.982 588.17 231.653 588.918 232.526 589.456C233.404 589.989 234.452 590.255 235.671 590.255ZM235.671 588.325C234.441 588.308 233.517 587.898 232.9 587.093C232.282 586.288 231.976 585.217 231.982 583.88C231.987 582.985 232.126 582.203 232.398 581.534C232.67 580.865 233.078 580.347 233.622 579.978C234.166 579.604 234.849 579.423 235.671 579.434C236.906 579.451 237.83 579.862 238.442 580.667C239.059 581.472 239.368 582.543 239.368 583.88C239.368 584.77 239.229 585.552 238.952 586.226C238.68 586.895 238.269 587.413 237.719 587.781C237.175 588.15 236.492 588.331 235.671 588.325ZM246.631 590H251.977C253.184 590 254.1 589.666 254.723 588.997C255.346 588.328 255.658 587.45 255.658 586.362C255.658 585.744 255.505 585.183 255.199 584.679C254.899 584.175 254.454 583.798 253.864 583.548C254.244 583.322 254.542 583.002 254.757 582.588C254.978 582.169 255.088 581.681 255.088 581.126C255.088 580.576 254.958 580.044 254.697 579.528C254.442 579.012 254.049 578.59 253.516 578.261C252.989 577.927 252.312 577.76 251.484 577.76H246.631V590ZM248.705 582.647V579.672H251.459C251.946 579.672 252.326 579.814 252.598 580.097C252.87 580.381 253.006 580.735 253.006 581.16C253.006 581.647 252.856 582.018 252.555 582.273C252.261 582.523 251.895 582.647 251.459 582.647H248.705ZM248.705 588.07V584.56H251.782C252.354 584.56 252.799 584.727 253.116 585.061C253.434 585.396 253.592 585.809 253.592 586.302C253.592 586.846 253.414 587.277 253.057 587.594C252.706 587.912 252.261 588.07 251.722 588.07H248.705ZM257.356 590H265.261V588.079H259.404V584.619H264.241V582.698H259.404V579.681H265.261V577.76H257.356V590ZM269.853 590H271.961L272.794 587.348H277.622L278.464 590H280.572L276.713 577.76H273.712L269.853 590ZM273.398 585.435L275.191 579.74L277.01 585.435H273.398ZM285.512 590H290.858C292.065 590 292.98 589.666 293.604 588.997C294.227 588.328 294.539 587.45 294.539 586.362C294.539 585.744 294.386 585.183 294.08 584.679C293.779 584.175 293.335 583.798 292.745 583.548C293.125 583.322 293.422 583.002 293.638 582.588C293.859 582.169 293.969 581.681 293.969 581.126C293.969 580.576 293.839 580.044 293.578 579.528C293.323 579.012 292.929 578.59 292.397 578.261C291.87 577.927 291.193 577.76 290.365 577.76H285.512V590ZM287.586 582.647V579.672H290.34C290.827 579.672 291.207 579.814 291.479 580.097C291.751 580.381 291.887 580.735 291.887 581.16C291.887 581.647 291.737 582.018 291.436 582.273C291.142 582.523 290.776 582.647 290.34 582.647H287.586ZM287.586 588.07V584.56H290.663C291.235 584.56 291.68 584.727 291.997 585.061C292.315 585.396 292.473 585.809 292.473 586.302C292.473 586.846 292.295 587.277 291.938 587.594C291.586 587.912 291.142 588.07 290.603 588.07H287.586ZM296.236 590H304.141V588.079H298.285V584.619H303.121V582.698H298.285V579.681H304.141V577.76H296.236V590ZM309.122 590H311.17V579.681H315.131V577.76H305.161V579.681H309.122V590ZM320.444 590H322.492V579.681H326.453V577.76H316.483V579.681H320.444V590ZM327.813 590H335.718V588.079H329.861V584.619H334.698V582.698H329.861V579.681H335.718V577.76H327.813V590ZM337.757 590H339.805V585.724H342.712L344.786 590H347.107L344.846 585.359C345.543 585.047 346.061 584.574 346.401 583.939C346.741 583.305 346.911 582.574 346.911 581.746C346.911 580.732 346.656 579.868 346.146 579.154C345.642 578.434 344.857 577.992 343.792 577.828C343.633 577.8 343.46 577.783 343.273 577.777C343.086 577.766 342.933 577.76 342.814 577.76H337.757V590ZM339.805 583.812V579.681H342.729C342.843 579.681 342.97 579.687 343.112 579.698C343.254 579.709 343.384 579.729 343.503 579.757C343.843 579.842 344.109 579.995 344.302 580.216C344.5 580.432 344.639 580.675 344.718 580.947C344.803 581.219 344.846 581.486 344.846 581.746C344.846 582.007 344.803 582.273 344.718 582.545C344.639 582.817 344.5 583.061 344.302 583.276C344.109 583.492 343.843 583.642 343.503 583.727C343.384 583.761 343.254 583.784 343.112 583.795C342.97 583.806 342.843 583.812 342.729 583.812H339.805ZM116.166 614H119.166L123.025 601.76H120.917L117.645 612.011L114.415 601.76H112.307L116.166 614ZM124.302 614H132.207V612.079H126.351V608.619H131.187V606.698H126.351V603.681H132.207V601.76H124.302V614ZM134.247 614H136.295V609.724H139.202L141.276 614H143.597L141.336 609.359C142.033 609.047 142.551 608.574 142.891 607.939C143.231 607.305 143.401 606.574 143.401 605.746C143.401 604.732 143.146 603.868 142.636 603.154C142.132 602.434 141.347 601.992 140.282 601.828C140.123 601.8 139.95 601.783 139.763 601.777C139.576 601.766 139.423 601.76 139.304 601.76H134.247V614ZM136.295 607.812V603.681H139.219C139.332 603.681 139.46 603.687 139.602 603.698C139.743 603.709 139.874 603.729 139.993 603.757C140.333 603.842 140.599 603.995 140.792 604.216C140.99 604.432 141.129 604.675 141.208 604.947C141.293 605.219 141.336 605.486 141.336 605.746C141.336 606.007 141.293 606.273 141.208 606.545C141.129 606.817 140.99 607.061 140.792 607.276C140.599 607.492 140.333 607.642 139.993 607.727C139.874 607.761 139.743 607.784 139.602 607.795C139.46 607.806 139.332 607.812 139.219 607.812H136.295ZM150 614.255C150.838 614.255 151.623 614.113 152.354 613.83C153.085 613.547 153.675 613.122 154.122 612.555C154.576 611.988 154.802 611.283 154.802 610.438C154.802 609.832 154.689 609.331 154.462 608.934C154.241 608.532 153.955 608.209 153.604 607.965C153.258 607.721 152.898 607.531 152.524 607.395C152.156 607.259 151.822 607.152 151.521 607.072L149.328 606.46C149.056 606.387 148.784 606.296 148.512 606.188C148.24 606.075 148.014 605.925 147.832 605.738C147.651 605.545 147.56 605.299 147.56 604.998C147.56 604.681 147.665 604.403 147.875 604.165C148.09 603.927 148.371 603.743 148.716 603.613C149.068 603.483 149.447 603.423 149.855 603.434C150.484 603.451 151.051 603.636 151.555 603.987C152.06 604.338 152.377 604.837 152.507 605.483L154.709 605.1C154.437 603.967 153.879 603.092 153.034 602.474C152.19 601.851 151.139 601.533 149.881 601.522C149.053 601.516 148.3 601.649 147.62 601.921C146.945 602.188 146.407 602.587 146.005 603.12C145.608 603.653 145.41 604.313 145.41 605.1C145.41 605.639 145.498 606.092 145.673 606.46C145.855 606.823 146.084 607.121 146.362 607.353C146.645 607.585 146.943 607.769 147.254 607.905C147.572 608.041 147.866 608.149 148.138 608.228L151.3 609.163C152.207 609.435 152.66 609.906 152.66 610.574C152.66 610.948 152.538 611.269 152.295 611.535C152.057 611.796 151.745 611.994 151.36 612.13C150.974 612.266 150.564 612.334 150.127 612.334C149.391 612.334 148.739 612.136 148.172 611.739C147.611 611.342 147.24 610.781 147.059 610.056L144.934 610.379C145.064 611.178 145.359 611.869 145.818 612.453C146.282 613.031 146.872 613.476 147.586 613.787C148.305 614.099 149.11 614.255 150 614.255ZM156.812 614H158.861V601.76H156.812V614ZM166.583 614.255C167.807 614.255 168.856 613.989 169.728 613.456C170.607 612.918 171.278 612.17 171.743 611.212C172.213 610.254 172.448 609.144 172.448 607.88C172.448 606.611 172.213 605.5 171.743 604.548C171.278 603.59 170.607 602.845 169.728 602.312C168.856 601.774 167.807 601.505 166.583 601.505C165.365 601.505 164.317 601.774 163.438 602.312C162.566 602.845 161.894 603.59 161.424 604.548C160.959 605.5 160.727 606.611 160.727 607.88C160.727 609.144 160.959 610.254 161.424 611.212C161.894 612.17 162.566 612.918 163.438 613.456C164.317 613.989 165.365 614.255 166.583 614.255ZM166.583 612.325C165.354 612.308 164.43 611.898 163.812 611.093C163.195 610.288 162.889 609.217 162.894 607.88C162.9 606.985 163.039 606.203 163.311 605.534C163.583 604.865 163.991 604.347 164.535 603.978C165.079 603.604 165.762 603.423 166.583 603.434C167.819 603.451 168.742 603.862 169.354 604.667C169.972 605.472 170.281 606.543 170.281 607.88C170.281 608.77 170.142 609.552 169.864 610.226C169.592 610.895 169.181 611.413 168.632 611.781C168.088 612.15 167.405 612.331 166.583 612.325ZM174.14 614H176.214V605.372L181.892 614H183.966V601.76H181.892V610.387L176.214 601.76H174.14V614ZM194.922 614.255C196.146 614.255 197.194 613.989 198.067 613.456C198.945 612.918 199.617 612.17 200.082 611.212C200.552 610.254 200.787 609.144 200.787 607.88C200.787 606.611 200.552 605.5 200.082 604.548C199.617 603.59 198.945 602.845 198.067 602.312C197.194 601.774 196.146 601.505 194.922 601.505C193.704 601.505 192.655 601.774 191.777 602.312C190.904 602.845 190.233 603.59 189.763 604.548C189.298 605.5 189.066 606.611 189.066 607.88C189.066 609.144 189.298 610.254 189.763 611.212C190.233 612.17 190.904 612.918 191.777 613.456C192.655 613.989 193.704 614.255 194.922 614.255ZM194.922 612.325C193.692 612.308 192.769 611.898 192.151 611.093C191.533 610.288 191.227 609.217 191.233 607.88C191.239 606.985 191.378 606.203 191.65 605.534C191.922 604.865 192.33 604.347 192.874 603.978C193.418 603.604 194.1 603.423 194.922 603.434C196.157 603.451 197.081 603.862 197.693 604.667C198.311 605.472 198.62 606.543 198.62 607.88C198.62 608.77 198.481 609.552 198.203 610.226C197.931 610.895 197.52 611.413 196.971 611.781C196.427 612.15 195.744 612.331 194.922 612.325ZM202.479 614H204.528V608.9H208.829V606.86H204.528V603.808H209.849V601.76H202.479V614Z" fill="#573353"/>
<path d="M136.563 590H138.611V584.832H144.408V590H146.448V577.76H144.408V582.911H138.611V577.76H136.563V590ZM148.831 590H156.736V588.079H150.88V584.619H155.716V582.698H150.88V579.681H156.736V577.76H148.831V590ZM158.945 590H166.4V588.079H160.994V577.76H158.945V590ZM167.84 590H169.888V585.724H172.897C173.011 585.724 173.161 585.719 173.348 585.708C173.541 585.696 173.716 585.679 173.875 585.656C174.929 585.492 175.711 585.053 176.221 584.339C176.737 583.619 176.994 582.755 176.994 581.746C176.994 580.732 176.739 579.868 176.229 579.154C175.725 578.434 174.94 577.992 173.875 577.828C173.716 577.8 173.543 577.783 173.356 577.777C173.169 577.766 173.016 577.76 172.897 577.76H167.84V590ZM169.888 583.812V579.681H172.812C172.926 579.681 173.053 579.687 173.195 579.698C173.337 579.709 173.467 579.729 173.586 579.757C173.926 579.842 174.192 579.995 174.385 580.216C174.583 580.432 174.722 580.675 174.801 580.947C174.886 581.219 174.929 581.486 174.929 581.746C174.929 582.007 174.886 582.273 174.801 582.545C174.722 582.817 174.583 583.061 174.385 583.276C174.192 583.492 173.926 583.642 173.586 583.727C173.467 583.761 173.337 583.784 173.195 583.795C173.053 583.806 172.926 583.812 172.812 583.812H169.888ZM185.076 590H187.15V584.985L191.306 577.76H188.918L186.113 582.639L183.299 577.76H180.911L185.076 584.985V590ZM196.989 590.255C198.213 590.255 199.261 589.989 200.134 589.456C201.012 588.918 201.684 588.17 202.149 587.212C202.619 586.254 202.854 585.144 202.854 583.88C202.854 582.611 202.619 581.5 202.149 580.548C201.684 579.59 201.012 578.845 200.134 578.312C199.261 577.774 198.213 577.505 196.989 577.505C195.771 577.505 194.722 577.774 193.844 578.312C192.971 578.845 192.3 579.59 191.83 580.548C191.365 581.5 191.133 582.611 191.133 583.88C191.133 585.144 191.365 586.254 191.83 587.212C192.3 588.17 192.971 588.918 193.844 589.456C194.722 589.989 195.771 590.255 196.989 590.255ZM196.989 588.325C195.759 588.308 194.836 587.898 194.218 587.093C193.6 586.288 193.294 585.217 193.3 583.88C193.306 582.985 193.445 582.203 193.717 581.534C193.989 580.865 194.397 580.347 194.941 579.978C195.485 579.604 196.167 579.423 196.989 579.434C198.224 579.451 199.148 579.862 199.76 580.667C200.378 581.472 200.687 582.543 200.687 583.88C200.687 584.77 200.548 585.552 200.27 586.226C199.998 586.895 199.587 587.413 199.038 587.781C198.494 588.15 197.811 588.331 196.989 588.325ZM209.476 590.255C210.451 590.255 211.306 590.057 212.043 589.66C212.785 589.263 213.363 588.705 213.777 587.985C214.196 587.266 214.406 586.421 214.406 585.452V577.76H212.332V585.401C212.332 586.008 212.199 586.529 211.932 586.965C211.672 587.402 211.323 587.739 210.887 587.977C210.456 588.209 209.986 588.325 209.476 588.325C208.983 588.325 208.518 588.209 208.082 587.977C207.646 587.745 207.291 587.41 207.019 586.974C206.753 586.538 206.62 586.013 206.62 585.401V577.76L204.546 577.777V585.452C204.546 586.421 204.753 587.266 205.166 587.985C205.586 588.705 206.167 589.263 206.909 589.66C207.651 590.057 208.507 590.255 209.476 590.255ZM217.756 614H219.83V608.985L223.986 601.76H221.598L218.793 606.639L215.979 601.76H213.591L217.756 608.985V614ZM229.669 614.255C230.893 614.255 231.942 613.989 232.814 613.456C233.693 612.918 234.364 612.17 234.829 611.212C235.299 610.254 235.534 609.144 235.534 607.88C235.534 606.611 235.299 605.5 234.829 604.548C234.364 603.59 233.693 602.845 232.814 602.312C231.942 601.774 230.893 601.505 229.669 601.505C228.451 601.505 227.403 601.774 226.524 602.312C225.652 602.845 224.98 603.59 224.51 604.548C224.045 605.5 223.813 606.611 223.813 607.88C223.813 609.144 224.045 610.254 224.51 611.212C224.98 612.17 225.652 612.918 226.524 613.456C227.403 613.989 228.451 614.255 229.669 614.255ZM229.669 612.325C228.44 612.308 227.516 611.898 226.898 611.093C226.281 610.288 225.975 609.217 225.98 607.88C225.986 606.985 226.125 606.203 226.397 605.534C226.669 604.865 227.077 604.347 227.621 603.978C228.165 603.604 228.848 603.423 229.669 603.434C230.905 603.451 231.828 603.862 232.44 604.667C233.058 605.472 233.367 606.543 233.367 607.88C233.367 608.77 233.228 609.552 232.95 610.226C232.678 610.895 232.267 611.413 231.718 611.781C231.174 612.15 230.491 612.331 229.669 612.325ZM242.156 614.255C243.131 614.255 243.986 614.057 244.723 613.66C245.465 613.263 246.043 612.705 246.457 611.985C246.876 611.266 247.086 610.421 247.086 609.452V601.76H245.012V609.401C245.012 610.008 244.879 610.529 244.613 610.965C244.352 611.402 244.003 611.739 243.567 611.977C243.136 612.209 242.666 612.325 242.156 612.325C241.663 612.325 241.198 612.209 240.762 611.977C240.326 611.745 239.972 611.41 239.7 610.974C239.433 610.538 239.3 610.013 239.3 609.401V601.76L237.226 601.777V609.452C237.226 610.421 237.433 611.266 237.847 611.985C238.266 612.705 238.847 613.263 239.589 613.66C240.331 614.057 241.187 614.255 242.156 614.255ZM249.461 614H251.51V609.724H254.417L256.491 614H258.811L256.55 609.359C257.247 609.047 257.766 608.574 258.106 607.939C258.446 607.305 258.616 606.574 258.616 605.746C258.616 604.732 258.361 603.868 257.851 603.154C257.347 602.434 256.562 601.992 255.496 601.828C255.338 601.8 255.165 601.783 254.978 601.777C254.791 601.766 254.638 601.76 254.519 601.76H249.461V614ZM251.51 607.812V603.681H254.434C254.547 603.681 254.675 603.687 254.816 603.698C254.958 603.709 255.088 603.729 255.207 603.757C255.547 603.842 255.814 603.995 256.006 604.216C256.205 604.432 256.344 604.675 256.423 604.947C256.508 605.219 256.55 605.486 256.55 605.746C256.55 606.007 256.508 606.273 256.423 606.545C256.344 606.817 256.205 607.061 256.006 607.276C255.814 607.492 255.547 607.642 255.207 607.727C255.088 607.761 254.958 607.784 254.816 607.795C254.675 607.806 254.547 607.812 254.434 607.812H251.51ZM265.215 614.255C266.053 614.255 266.838 614.113 267.569 613.83C268.3 613.547 268.889 613.122 269.337 612.555C269.79 611.988 270.017 611.283 270.017 610.438C270.017 609.832 269.904 609.331 269.677 608.934C269.456 608.532 269.17 608.209 268.819 607.965C268.473 607.721 268.113 607.531 267.739 607.395C267.371 607.259 267.036 607.152 266.736 607.072L264.543 606.46C264.271 606.387 263.999 606.296 263.727 606.188C263.455 606.075 263.228 605.925 263.047 605.738C262.866 605.545 262.775 605.299 262.775 604.998C262.775 604.681 262.88 604.403 263.09 604.165C263.305 603.927 263.585 603.743 263.931 603.613C264.282 603.483 264.662 603.423 265.07 603.434C265.699 603.451 266.266 603.636 266.77 603.987C267.274 604.338 267.592 604.837 267.722 605.483L269.924 605.1C269.652 603.967 269.093 603.092 268.249 602.474C267.405 601.851 266.354 601.533 265.096 601.522C264.268 601.516 263.515 601.649 262.835 601.921C262.16 602.188 261.622 602.587 261.22 603.12C260.823 603.653 260.625 604.313 260.625 605.1C260.625 605.639 260.712 606.092 260.888 606.46C261.069 606.823 261.299 607.121 261.577 607.353C261.86 607.585 262.157 607.769 262.469 607.905C262.786 608.041 263.081 608.149 263.353 608.228L266.515 609.163C267.422 609.435 267.875 609.906 267.875 610.574C267.875 610.948 267.753 611.269 267.51 611.535C267.272 611.796 266.96 611.994 266.575 612.13C266.189 612.266 265.778 612.334 265.342 612.334C264.605 612.334 263.954 612.136 263.387 611.739C262.826 611.342 262.455 610.781 262.274 610.056L260.149 610.379C260.279 611.178 260.574 611.869 261.033 612.453C261.497 613.031 262.087 613.476 262.801 613.787C263.52 614.099 264.325 614.255 265.215 614.255ZM271.857 614H279.762V612.079H273.905V608.619H278.742V606.698H273.905V603.681H279.762V601.76H271.857V614ZM281.971 614H289.426V612.079H284.02V601.76H281.971V614ZM290.866 614H292.914V608.9H297.215V606.86H292.914V603.808H298.235V601.76H290.866V614ZM298.145 614H300.245V611.9H298.145V614Z" fill="#FC9D45"/>
<path d="M255.318 382.462C258.763 382.462 261.767 379.988 262.12 376.632C262.738 371.508 262.12 364.177 255.76 359.848C245.072 352.693 235.885 359.672 235.885 359.672C235.885 359.672 238.182 351.368 232.793 345.803C227.493 340.238 219.632 343.86 219.632 343.86C219.632 343.86 214.95 333.79 204.438 337.323C194.015 340.857 197.902 351.192 197.902 351.192C197.902 351.192 190.305 343.86 180.677 348.453C171.048 353.047 176.172 363.47 176.172 363.47C176.172 363.47 167.073 355.608 158.947 365.855C154.707 371.155 156.65 376.278 158.682 379.458C159.918 381.402 162.127 382.55 164.423 382.55H255.318V382.462Z" fill="url(#paint0_linear_575_968)"/>
<path d="M235.974 382.462C235.974 382.462 241.98 379.105 237.74 372.038C233.765 365.325 220.692 371.773 220.692 371.773C220.692 371.773 224.137 362.675 218.219 360.29C213.625 358.435 209.915 361.88 209.915 361.88C209.915 361.88 208.414 354.46 203.379 354.548C194.369 354.637 197.284 365.06 197.284 365.06C197.284 365.06 191.895 359.583 184.74 362.763C177.585 365.943 180.5 373.187 180.5 373.187C180.5 373.187 172.197 368.505 169.017 373.893C165.837 379.193 169.017 382.373 172.374 382.373C175.73 382.373 235.974 382.462 235.974 382.462Z" fill="url(#paint1_linear_575_968)"/>
<path d="M252.227 383.168C248.782 383.168 245.69 381.225 244.189 378.222C242.687 375.13 241.98 371.067 245.337 367.18C251.874 359.76 260.707 365.237 260.707 365.237C260.707 365.237 254.789 356.05 262.032 350.573C269.275 345.097 275.9 350.043 275.9 350.043C275.9 350.043 275.989 331.935 292.419 334.32C308.849 336.705 305.58 351.368 305.58 351.368C305.58 351.368 313.265 345.715 320.067 351.81C326.869 357.905 320.95 364.972 320.95 364.972C320.95 364.972 329.077 361.262 332.787 369.565C332.787 369.653 332.875 369.742 332.875 369.83C335.614 376.19 330.844 383.168 323.954 383.168H252.227Z" fill="url(#paint2_linear_575_968)"/>
<path d="M314.855 382.903C317.329 382.903 319.802 382.108 321.745 380.43C323.07 379.282 324.13 377.692 323.865 375.66C323.158 370.802 317.328 373.363 317.328 373.363C317.328 373.363 321.039 367.71 315.827 363.293C310.615 358.877 303.725 364 303.725 364C303.725 364 307.347 353.488 298.072 351.633C291.005 350.22 288.178 361.438 288.178 361.438C288.178 361.438 284.115 356.403 277.755 360.113C271.395 363.823 279.61 372.48 279.61 372.48C279.61 372.48 272.013 369.212 266.978 373.187C261.943 377.162 265.3 382.815 270.865 382.815C275.458 382.815 305.845 382.903 314.855 382.903Z" fill="url(#paint3_linear_575_968)"/>
<path d="M207.088 243.867C207.088 243.867 199.05 241.217 190.658 236.8C182.267 232.383 182.09 230.617 180.235 233.355C178.38 236.182 190.658 242.188 191.718 244.397C192.778 246.605 190.923 248.018 184.298 244.397C177.585 240.775 173.698 239.538 171.402 243.16C169.105 246.782 174.935 255.615 189.157 264.007C203.29 272.398 210.622 268.423 208.413 260.827C206.205 253.23 201.258 253.583 201.435 251.198C201.612 248.813 205.587 252.788 215.392 256.057C225.197 259.325 231.38 256.498 226.875 252.258C222.37 248.107 215.833 247.488 207.088 243.867Z" fill="#FEF5F9"/>
<path d="M175.465 229.557C174.317 230.617 167.868 229.38 158.858 221.96C149.848 214.54 151.262 208.092 153.735 208.887C156.208 209.682 154.972 213.303 163.098 219.575C171.048 225.758 176.79 228.408 175.465 229.557Z" fill="#FEF5F9"/>
<path d="M182.709 218.073C179.97 219.575 182.974 224.875 186.949 227.083C191.012 229.292 191.984 227.172 190.747 223.727C189.599 220.37 185.712 216.395 182.709 218.073Z" fill="#FEF5F9"/>
<path d="M162.922 249.785C162.568 251.463 153.735 248.548 148.523 244.397C143.312 240.245 141.987 236.005 144.813 235.387C147.64 234.857 147.64 236.888 153.382 240.245C159.212 243.69 163.452 247.577 162.922 249.785Z" fill="#FEF5F9"/>
<path d="M207.088 281.585C201.612 279.023 199.05 278.67 185.535 270.632C173.963 263.742 161.332 254.29 159.212 255.615C157.18 256.94 160.272 263.388 165.66 267.628C171.048 271.868 182.002 276.197 181.648 278.847C181.207 281.497 173.61 274.518 173.168 278.582C172.727 282.557 180.235 292.008 194.722 297.838C209.208 303.757 213.978 301.813 213.802 299.693C213.625 297.573 201.347 291.655 200.552 289.535C199.757 287.415 202.407 288.475 207.177 288.74C211.858 289.005 214.773 285.118 207.088 281.585Z" fill="#FEF5F9"/>
<path d="M290.122 265.508C290.122 265.508 300.015 265.332 312.912 254.82C325.808 244.397 329.695 237.33 332.345 238.567C334.995 239.803 332.875 247.577 326.515 254.643C320.155 261.71 318.3 267.275 320.332 269.483C322.363 271.692 329.077 267.098 335.437 260.827C341.797 254.555 344.623 253.76 342.15 263.653C339.677 273.458 316.798 296.602 296.747 303.05C276.607 309.498 288.002 295.453 297.277 289.977C306.463 284.588 313.883 275.137 310.703 273.282C307.523 271.515 294.627 277.08 287.56 275.048C282.437 273.723 281.642 266.922 290.122 265.508Z" fill="#FEF5F9"/>
<path d="M346.655 261.445C346.302 263.388 354.693 259.148 361.672 252.7C368.562 246.252 372.183 239.803 369.798 238.743C367.413 237.683 364.41 243.867 357.255 250.668C350.1 257.558 346.832 260.12 346.655 261.445Z" fill="#FEF5F9"/>
<path d="M337.468 243.69C338.263 244.662 346.036 240.863 351.336 234.415C356.636 227.967 357.166 226.112 355.576 225.052C353.986 223.992 351.513 227.967 346.655 233.355C341.796 238.743 335.966 241.747 337.468 243.69Z" fill="#FEF5F9"/>
<path d="M330.225 217.543C324.925 221.607 323.688 226.907 326.957 228.497C330.843 230.352 337.557 220.988 337.027 217.543C336.762 215.688 332.698 215.688 330.225 217.543Z" fill="#FEF5F9"/>
<path d="M279.61 317.183C293.125 313.208 303.106 305.7 309.82 301.107C316.533 296.513 317.858 301.637 315.385 305.435C312.911 309.233 322.098 306.76 336.85 293.687C351.601 280.525 358.315 276.02 358.05 279.73C357.785 283.44 336.408 309.145 310.88 324.162C285.44 339.178 260.618 340.768 250.106 340.768C239.595 340.768 243.658 334.055 251.873 332.995C260.176 331.935 276.253 329.55 281.641 326.282C287.03 323.102 275.193 329.197 267.773 326.017C260.353 322.748 268.656 320.363 279.61 317.183Z" fill="#FEF5F9"/>
<path d="M290.21 343.507C289.327 343.948 289.768 345.538 290.652 345.362C299.308 343.507 313.442 339.002 332.698 323.455C349.482 309.852 345.772 304.817 341.267 307.29C336.762 309.675 332.08 317.183 319.36 327.077C306.552 337.058 297.365 339.797 290.21 343.507Z" fill="#FEF5F9"/>
<path d="M361.76 288.122C361.318 286.443 354.075 294.57 350.365 297.927C346.655 301.283 347.626 303.05 352.308 299.87C356.99 296.602 362.555 291.213 361.76 288.122Z" fill="#FEF5F9"/>
<path d="M272.455 347.393C262.65 348.63 255.23 349.69 248.87 348.365C242.51 347.04 238.623 347.128 238.182 349.337C237.74 351.457 249.93 354.195 261.943 353.047C274.045 351.987 280.493 348.453 280.405 346.863C280.228 345.273 277.578 346.775 272.455 347.393Z" fill="#FEF5F9"/>
<path d="M178.026 310.823V385.642C178.026 389.263 180.941 392.178 184.563 392.178C188.185 392.178 191.1 389.263 191.1 385.642V310.823H178.026Z" fill="url(#paint4_linear_575_968)"/>
<path d="M178.026 310.823V328.137C178.556 328.402 179.086 328.755 179.705 329.02C184.828 331.847 188.538 334.32 191.188 336.352V310.823H178.026Z" fill="#F05236"/>
<path d="M187.831 363.205C188.273 363.205 188.626 362.852 188.626 362.41V327.165C188.626 326.723 188.273 326.37 187.831 326.37C187.389 326.37 187.036 326.723 187.036 327.165V362.41C187.036 362.852 187.389 363.205 187.831 363.205Z" fill="#F05236"/>
<path d="M182.708 383.08H182.973C183.327 383.08 183.592 382.815 183.592 382.462V358.082C183.592 357.728 183.327 357.463 182.973 357.463H182.708C182.355 357.463 182.09 357.728 182.09 358.082V382.462C182.09 382.815 182.355 383.08 182.708 383.08Z" fill="#F05236"/>
<path d="M182.708 345.097H182.973C183.327 345.097 183.592 344.832 183.592 344.478V320.098C183.592 319.745 183.327 319.48 182.973 319.48H182.708C182.355 319.48 182.09 319.745 182.09 320.098V344.478C182.09 344.832 182.355 345.097 182.708 345.097Z" fill="#F05236"/>
<path d="M168.751 192.81C168.751 192.81 165.66 195.813 164.423 198.463C163.275 201.025 163.716 206.855 163.716 206.855L168.486 210.83L163.716 215.953C163.716 215.953 162.568 226.73 162.303 236.977C162.038 247.223 163.451 254.29 163.451 254.29L168.221 261.798L164.07 267.628C164.07 267.628 162.656 285.56 162.656 290.507C162.656 295.453 163.893 301.195 163.893 301.195L167.78 304.022L164.511 308.968C164.511 308.968 164.511 314.622 167.338 315.505C170.165 316.388 230.231 317.713 264.858 317.36C299.485 317.007 322.186 315.77 323.6 315.77C325.013 315.77 334.111 311.265 334.111 311.265C334.111 311.265 335.348 307.643 335.525 301.725C335.701 295.807 335.348 294.217 335.348 294.217L332.256 290.153C332.256 290.153 334.553 288.475 334.906 287.592C335.26 286.62 333.935 284.765 333.935 284.765C333.935 284.765 335.083 282.203 335.613 280.878C336.055 279.553 337.733 262.593 337.291 253.495C336.85 244.485 334.906 238.39 334.906 238.39L333.228 233.443C333.228 233.443 335.083 229.557 335.966 227.702C336.938 225.847 337.556 210.742 336.761 205.265C335.966 199.788 333.67 194.488 331.815 194.223C312.911 191.397 218.13 188.57 168.751 192.81Z" fill="url(#paint5_linear_575_968)"/>
<path d="M172.903 196.078C172.903 196.078 169.988 198.905 168.84 201.29C167.691 203.675 168.133 209.152 168.133 209.152L172.638 212.862L168.133 217.632C168.133 217.632 166.985 227.613 166.808 237.242C166.543 246.782 167.956 253.318 167.956 253.318L172.461 260.297L167.515 267.717C167.515 267.717 167.25 282.468 167.25 287.062C167.25 291.743 168.486 298.987 168.486 298.987L173.345 301.283L169.105 304.198C169.105 304.198 169.105 309.41 171.843 310.293C174.581 311.177 231.556 312.325 264.416 312.06C297.276 311.795 318.83 310.647 320.155 310.647C321.48 310.647 330.136 306.407 330.136 306.407C330.136 306.407 331.373 303.05 331.461 297.573C331.638 292.097 331.285 290.595 331.285 290.595L328.37 286.797C328.37 286.797 330.49 285.295 330.843 284.412C331.196 283.528 329.96 281.762 329.96 281.762C329.96 281.762 331.108 279.377 331.55 278.14C331.991 276.903 333.581 261.092 333.14 252.7C332.698 244.308 330.843 238.655 330.843 238.655L327.486 233.178C327.486 233.178 330.931 230.44 331.815 228.673C332.698 226.907 333.316 212.862 332.61 207.827C331.815 202.792 329.695 197.757 327.928 197.492C309.731 194.842 219.72 192.192 172.903 196.078Z" fill="url(#paint6_linear_575_968)"/>
<path d="M195.517 197.138C217.423 196.962 238.093 195.813 257.438 196.873C276.783 197.933 260.707 198.022 240.125 197.933C222.635 197.845 182.973 200.848 180.765 199.258C178.557 197.668 188.45 197.138 195.517 197.138Z" fill="#F3802C"/>
<path d="M234.736 202.615C231.821 203.233 238.093 203.057 254.523 203.057C270.953 203.057 278.108 206.06 291.005 204.912C303.901 203.763 306.993 202.438 306.375 202.262C305.756 202.085 295.068 203.587 287.118 203.763C279.168 204.028 264.858 201.467 257.438 201.643C250.018 201.82 238.093 201.908 234.736 202.615Z" fill="#F3802C"/>
<path d="M285.528 197.58C279.787 197.58 274.222 197.845 278.815 199.347C283.408 200.848 294.98 199.7 296.482 198.728C297.895 197.845 289.415 197.58 285.528 197.58Z" fill="#F3802C"/>
<path d="M316.887 197.845C315.208 197.757 315.473 199.258 319.007 199.347C322.54 199.435 323.688 200.848 318.653 202.262C313.618 203.675 294.097 206.59 296.658 207.032C299.132 207.473 312.823 205.353 317.593 204.028C322.363 202.615 326.603 200.672 324.748 199.435C322.805 198.287 319.802 197.933 316.887 197.845Z" fill="#F3802C"/>
<path d="M186.065 205.883C189.686 205.442 202.936 205.53 208.943 204.823C214.95 204.028 227.493 202.527 226.61 203.763C225.638 205 209.738 206.855 201.17 207.208C192.601 207.473 180.058 206.678 186.065 205.883Z" fill="#F3802C"/>
<path d="M168.133 209.152C168.133 209.152 175.907 211.36 182.09 212.332C188.273 213.303 199.845 213.127 198.255 214.098C196.665 215.07 185.977 215.6 180.147 215.512C174.405 215.423 168.398 211.89 168.133 209.152Z" fill="#F3802C"/>
<path d="M331.815 228.85C331.815 228.85 323.158 230.793 315.561 231.323C307.965 231.765 291.711 231.323 290.298 232.295C288.885 233.267 305.845 233.973 313.971 233.973C322.098 233.973 325.366 234.503 328.635 232.648C331.461 231.058 331.815 228.85 331.815 228.85Z" fill="#F3802C"/>
<path d="M169.9 256.322C169.9 256.322 174.935 256.852 184.74 257.823C194.545 258.795 211.858 258.265 209.297 259.502C206.647 260.65 192.16 260.915 186.86 260.915C181.56 260.915 172.462 260.385 172.462 260.385L169.9 256.322Z" fill="#F3802C"/>
<path d="M328.281 286.708C328.281 286.708 316.71 286.09 309.82 286.09C302.93 286.09 286.235 284.942 287.648 286.355C289.061 287.768 306.728 288.917 313.883 289.623C321.038 290.33 329.253 288.828 329.165 288.298C328.988 287.857 329.871 286.973 328.281 286.708Z" fill="#F3802C"/>
<path d="M206.735 304.375C206.735 304.375 220.073 302.167 231.468 303.138C242.863 304.11 262.915 303.138 258.498 303.757C254.081 304.375 242.598 306.583 231.821 305.612C221.045 304.64 194.722 307.113 206.735 304.375Z" fill="#F3802C"/>
<path d="M274.575 302.343C274.575 302.343 287.913 300.135 299.308 301.107C310.703 302.078 330.755 301.107 326.338 301.725C321.922 302.343 310.438 304.552 299.662 303.58C288.885 302.697 262.473 305.082 274.575 302.343Z" fill="#F3802C"/>
<path d="M305.315 308.262C305.315 308.262 287.737 309.322 272.72 308.88C257.703 308.438 231.38 308.88 237.21 308.615C243.04 308.35 258.057 307.29 272.278 307.732C286.5 308.173 321.127 307.025 305.315 308.262Z" fill="#F3802C"/>
<path d="M298.866 296.337C298.866 296.337 281.288 297.397 266.271 296.955C251.255 296.513 224.931 296.955 230.761 296.69C236.591 296.425 251.608 295.365 265.83 295.807C280.051 296.248 314.678 295.1 298.866 296.337Z" fill="#F3802C"/>
<path d="M168.398 298.987C168.398 298.987 174.405 299.87 179.44 299.87C184.475 299.87 195.605 298.898 195.428 299.958C195.251 301.018 173.256 301.283 173.256 301.283L168.398 298.987Z" fill="#F3802C"/>
<path d="M321.391 304.64H178.291C176.436 304.64 175.023 303.138 175.023 301.372V205.707C175.023 203.852 176.525 202.438 178.291 202.438H321.391C323.246 202.438 324.66 203.94 324.66 205.707V301.372C324.748 303.138 323.246 304.64 321.391 304.64Z" fill="#F37040"/>
<path d="M319.095 299.958H180.677C178.468 299.958 176.613 298.192 176.613 295.895V207.473C176.613 205.265 178.38 203.41 180.677 203.41H319.095C321.303 203.41 323.158 205.177 323.158 207.473V295.895C323.158 298.103 321.303 299.958 319.095 299.958Z" fill="url(#paint7_linear_575_968)"/>
<path d="M326.691 310.823V385.642C326.691 389.263 323.777 392.178 320.155 392.178C316.533 392.178 313.618 389.263 313.618 385.642V310.823H326.691Z" fill="url(#paint8_linear_575_968)"/>
<path d="M326.691 310.823V328.137C326.161 328.402 325.631 328.755 325.013 329.02C319.89 331.847 316.18 334.32 313.53 336.352V310.823H326.691Z" fill="#F05236"/>
<path d="M316.886 363.205C316.445 363.205 316.091 362.852 316.091 362.41V327.165C316.091 326.723 316.445 326.37 316.886 326.37C317.328 326.37 317.681 326.723 317.681 327.165V362.41C317.681 362.852 317.328 363.205 316.886 363.205Z" fill="#F05236"/>
<path d="M322.01 383.08H321.745C321.391 383.08 321.126 382.815 321.126 382.462V358.082C321.126 357.728 321.391 357.463 321.745 357.463H322.01C322.363 357.463 322.628 357.728 322.628 358.082V382.462C322.628 382.815 322.363 383.08 322.01 383.08Z" fill="#F05236"/>
<path d="M322.01 345.097H321.745C321.391 345.097 321.126 344.832 321.126 344.478V320.098C321.126 319.745 321.391 319.48 321.745 319.48H322.01C322.363 319.48 322.628 319.745 322.628 320.098V344.478C322.628 344.832 322.363 345.097 322.01 345.097Z" fill="#F05236"/>
<path d="M200.64 220.723H186.948C186.33 220.723 185.8 220.193 185.8 219.575V219.398C185.8 218.78 186.33 218.25 186.948 218.25H200.64C201.258 218.25 201.788 218.78 201.788 219.398V219.575C201.788 220.193 201.258 220.723 200.64 220.723Z" fill="#FAA65B"/>
<path d="M200.64 225.935H186.948C186.33 225.935 185.8 225.405 185.8 224.787V224.61C185.8 223.992 186.33 223.462 186.948 223.462H200.64C201.258 223.462 201.788 223.992 201.788 224.61V224.787C201.788 225.405 201.258 225.935 200.64 225.935Z" fill="#FAA65B"/>
<path d="M193.22 230.97H186.948C186.33 230.97 185.8 230.44 185.8 229.822V229.645C185.8 229.027 186.33 228.497 186.948 228.497H193.22C193.838 228.497 194.368 229.027 194.368 229.645V229.822C194.28 230.44 193.838 230.97 193.22 230.97Z" fill="#FAA65B"/>
<path d="M203.378 290.507L226.345 260.032C227.493 258.442 230.055 258.442 231.292 260.032L243.747 276.462C244.983 278.052 247.721 277.963 248.781 276.285L272.19 239.627C273.338 237.772 276.342 237.86 277.402 239.715L306.198 290.772C307.17 292.538 305.756 294.658 303.548 294.658H205.763C203.467 294.658 202.053 292.273 203.378 290.507Z" fill="url(#paint9_linear_575_968)"/>
<path d="M238.535 228.408C236.856 229.645 238.005 231.588 241.45 232.56C244.541 233.355 244.1 236.623 245.955 236.623C247.898 236.535 249.223 234.062 247.368 231.147C245.601 228.232 240.478 226.995 238.535 228.408Z" fill="white"/>
<path d="M236.68 236.447C237.21 234.415 239.507 234.768 241.538 237.595C243.393 240.157 246.308 238.567 247.015 240.333C247.633 242.1 245.867 244.308 242.51 243.69C239.153 243.072 236.062 238.743 236.68 236.447Z" fill="white"/>
<path d="M289.327 234.768C289.415 236.8 291.623 237.065 294.362 234.768C296.747 232.737 299.22 234.945 300.28 233.355C301.34 231.765 300.015 229.203 296.57 229.027C293.125 228.85 289.238 232.383 289.327 234.768Z" fill="white"/>
<path d="M294.892 240.952C293.567 239.362 295.068 237.683 298.602 237.595C301.782 237.507 302.135 234.15 303.902 234.68C305.668 235.21 306.463 237.86 304.078 240.333C301.693 242.807 296.393 242.718 294.892 240.952Z" fill="white"/>
<path d="M191.63 259.148C192.602 260.915 194.722 260.12 196.047 256.763C197.195 253.848 200.463 254.643 200.64 252.7C200.817 250.757 198.52 249.167 195.428 250.58C192.248 252.082 190.482 257.028 191.63 259.148Z" fill="white"/>
<path d="M199.315 261.975C197.372 261.18 197.99 258.972 201.082 257.293C203.82 255.703 202.583 252.612 204.438 252.17C206.293 251.728 208.237 253.76 207.265 257.117C206.293 260.473 201.523 262.858 199.315 261.975Z" fill="white"/>
<path d="M194.633 286.267C194.28 286.267 194.015 286.178 193.75 285.913C193.132 285.383 193.131 284.5 193.573 283.97L229.083 242.365C229.348 242.012 229.79 241.835 230.231 241.835C230.673 241.835 231.027 242.1 231.292 242.453L246.661 264.537L269.628 227.525C269.805 227.26 270.158 226.995 270.511 226.907L305.315 217.985C306.11 217.808 306.817 218.25 306.993 218.957C307.17 219.663 306.728 220.458 306.022 220.635L271.748 229.38L247.986 267.717C247.722 268.158 247.28 268.335 246.838 268.423C246.397 268.423 245.955 268.247 245.69 267.805L230.143 245.457L195.781 285.648C195.428 286.09 194.987 286.267 194.633 286.267Z" fill="url(#paint10_linear_575_968)"/>
<path d="M195.34 288.475C197.486 288.475 199.226 286.735 199.226 284.588C199.226 282.442 197.486 280.702 195.34 280.702C193.193 280.702 191.453 282.442 191.453 284.588C191.453 286.735 193.193 288.475 195.34 288.475Z" fill="#F05236"/>
<path d="M230.231 247.488C232.378 247.488 234.118 245.748 234.118 243.602C234.118 241.455 232.378 239.715 230.231 239.715C228.085 239.715 226.345 241.455 226.345 243.602C226.345 245.748 228.085 247.488 230.231 247.488Z" fill="#F05236"/>
<path d="M246.485 270.543C248.631 270.543 250.371 268.803 250.371 266.657C250.371 264.51 248.631 262.77 246.485 262.77C244.338 262.77 242.598 264.51 242.598 266.657C242.598 268.803 244.338 270.543 246.485 270.543Z" fill="#F05236"/>
<path d="M271.218 231.588C273.365 231.588 275.105 229.848 275.105 227.702C275.105 225.555 273.365 223.815 271.218 223.815C269.072 223.815 267.332 225.555 267.332 227.702C267.332 229.848 269.072 231.588 271.218 231.588Z" fill="#F05236"/>
<path d="M304.608 223.727C306.755 223.727 308.495 221.987 308.495 219.84C308.495 217.693 306.755 215.953 304.608 215.953C302.462 215.953 300.722 217.693 300.722 219.84C300.722 221.987 302.462 223.727 304.608 223.727Z" fill="#F05236"/>
<path d="M105.858 339.885C105.417 341.652 104.622 343.418 103.65 345.008C97.555 354.637 67.345 380.783 59.2184 385.023C53.83 387.762 48.6184 389.352 45.35 388.822C43.76 388.557 42.6117 387.762 42.17 386.437C40.9334 382.285 37.8417 378.575 49.9434 364.618C62.1334 350.662 84.2167 328.402 87.485 326.988C103.562 320.098 108.332 330.61 105.858 339.885Z" fill="url(#paint11_linear_575_968)"/>
<path d="M105.858 339.885C105.417 341.652 104.622 343.418 103.65 345.008C97.5551 354.637 67.3451 380.783 59.2184 385.023C53.8301 387.762 48.6184 389.352 45.3501 388.822C45.9684 388.292 46.5868 387.673 47.2051 387.143C61.5151 373.717 86.1601 353.753 86.1601 353.753C95.7001 345.892 101.883 341.74 105.858 339.885Z" fill="#F79342"/>
<path d="M80.6834 423.448C75.3834 424.332 59.4834 410.463 51.1801 400.217C46.1451 394.033 42.1701 389.617 40.7567 385.288C39.8734 382.462 39.9617 379.635 41.5517 376.455C45.5267 368.152 55.5084 370.802 59.7484 376.985C59.7484 376.985 76.0901 399.422 81.0367 406.665C82.1851 408.343 83.0684 409.845 83.6867 411.17C87.4851 418.767 85.1884 422.742 80.6834 423.448Z" fill="url(#paint12_linear_575_968)"/>
<path d="M80.6835 423.448C75.3835 424.332 59.4835 410.463 51.1802 400.217C46.1452 394.033 42.1702 389.617 40.7568 385.288C47.2935 392.708 62.2218 407.637 79.7118 410.728C81.1252 410.993 82.4502 411.17 83.6868 411.258C87.4852 418.767 85.1885 422.742 80.6835 423.448Z" fill="#F79342"/>
<path d="M63.3699 381.932C63.1049 381.932 62.7516 381.755 62.5749 381.49C62.5749 381.49 60.1899 377.868 58.7766 376.367L57.3633 374.777C57.0099 374.423 57.0099 373.805 57.4516 373.452C57.8049 373.098 58.4233 373.098 58.7766 373.54L60.1899 375.13C60.8083 375.837 61.6916 376.985 62.4866 378.045C62.4866 377.338 62.4866 376.632 62.4866 375.837C62.5749 373.098 62.4866 370.802 62.4866 370.802C62.4866 370.272 62.8399 369.83 63.3699 369.83C63.8999 369.83 64.3416 370.183 64.3416 370.713C64.3416 370.713 64.4299 373.01 64.3416 375.837C64.2533 378.663 64.2533 380.96 64.2533 380.96C64.2533 381.402 63.9883 381.755 63.5466 381.843C63.5466 381.932 63.4583 381.932 63.3699 381.932Z" fill="#F28127"/>
<path d="M209.562 308.438C209.562 314.887 205.057 318.155 199.403 317.272C199.403 317.272 199.403 317.272 199.315 317.272C197.99 317.095 196.577 316.653 195.252 315.947C189.863 313.385 160.537 284.147 160.537 284.147C160.978 281.762 161.862 279.995 162.922 278.67C166.013 274.783 170.607 275.048 170.607 275.048C170.607 275.048 209.562 300.488 209.562 308.438Z" fill="url(#paint13_linear_575_968)"/>
<path d="M200.198 317.36C200.198 317.36 199.933 317.36 199.403 317.272C199.403 317.272 199.403 317.272 199.315 317.272C197.99 317.095 196.577 316.653 195.252 315.947C189.863 313.385 160.537 284.147 160.537 284.147C160.978 281.762 161.862 279.995 162.922 278.67C166.367 282.822 177.32 296.072 184.563 303.138C193.132 311.53 200.198 317.36 200.198 317.36Z" fill="#F79342"/>
<path d="M160.625 282.733L150.732 274.43C150.732 274.43 146.404 274.077 141.457 273.812C136.51 273.547 133.507 271.957 133.86 270.19C134.214 268.423 137.04 268.423 138.984 268.777C140.927 269.13 141.545 268.688 141.545 268.688C141.545 268.688 136.864 267.54 133.86 266.745C130.857 265.95 123.79 265.685 123.614 263.477C123.349 261.268 131.122 261.357 135.185 261.268C140.839 261.18 144.902 261.887 150.29 263.123C155.679 264.448 159.389 267.805 162.215 269.395C165.042 270.985 168.752 275.313 168.752 275.313C168.752 275.313 163.894 282.998 160.625 282.733Z" fill="url(#paint14_linear_575_968)"/>
<path d="M158.858 281.497C158.858 281.497 154.972 282.822 156.385 287.415C157.533 291.125 162.303 291.213 163.982 289.623C165.748 287.945 165.837 286.797 165.837 286.797C165.837 286.797 169.105 287.238 171.667 285.472C174.228 283.705 172.815 280.437 172.815 280.437C172.815 280.437 175.818 281.85 177.232 279.112C178.645 276.462 176.26 272.045 173.168 271.338C169.37 270.455 168.398 273.635 168.398 273.635C168.398 273.635 164.335 272.133 161.42 274.607C158.593 276.992 158.858 281.497 158.858 281.497Z" fill="url(#paint15_linear_575_968)"/>
<path d="M185.624 307.555C185.359 307.555 185.094 307.467 184.917 307.29C184.652 307.025 184.564 306.583 184.74 306.23C184.74 306.142 185.8 303.933 187.214 302.167C188.539 300.488 189.245 299.693 189.334 299.693C189.687 299.34 190.305 299.34 190.659 299.693C191.012 300.047 191.012 300.665 190.659 301.018C190.659 301.018 189.952 301.813 188.627 303.403C188.274 303.845 187.92 304.287 187.655 304.817C188.185 304.64 188.627 304.375 189.069 304.198L192.16 302.962C192.602 302.785 193.22 302.962 193.397 303.492C193.574 303.933 193.397 304.552 192.867 304.728L189.775 305.965C188.185 306.672 185.889 307.555 185.889 307.555C185.889 307.555 185.8 307.555 185.624 307.555Z" fill="#F28127"/>
<path d="M209.385 310.823C208.413 316.212 188.538 333.702 173.61 344.037C158.682 354.283 148.347 359.23 138.983 352.252C138.542 351.898 138.1 351.545 137.658 351.192C129.885 344.213 133.33 333.967 151.085 324.25C155.943 321.6 185.888 306.937 195.075 303.668C202.672 300.93 208.148 304.022 209.208 308.262C209.473 308.968 209.473 309.852 209.385 310.823Z" fill="url(#paint16_linear_575_968)"/>
<path d="M209.385 310.823C208.413 316.212 188.538 333.702 173.61 344.037C158.682 354.283 148.347 359.23 138.983 352.252C138.542 351.898 138.1 351.545 137.658 351.192C158.328 346.157 175.465 336.617 200.64 316.035C204.262 313.12 207.088 310.382 209.208 308.173C209.473 308.968 209.473 309.852 209.385 310.823Z" fill="#F79342"/>
<path d="M115.575 318.243C100.116 319.127 86.3364 321.953 82.6264 329.462C78.9164 336.97 79.6231 357.728 79.7998 368.24C79.9764 377.427 81.2131 380.607 81.2131 380.607C81.2131 380.607 77.6798 384.847 76.7964 393.945C75.8248 403.043 81.4781 408.697 81.4781 408.697C81.4781 408.697 74.9414 416.205 75.8248 426.452C76.7964 436.698 85.6298 445.178 114.603 445.885C143.576 446.592 159.476 442.175 163.451 432.988C167.426 423.89 160.183 411.7 160.183 411.7C160.183 411.7 166.278 405.428 165.571 395.093C164.865 384.847 161.155 380.607 161.155 380.607C161.155 380.607 165.306 372.922 163.01 362.145C159.035 343.242 161.243 330.787 156.915 321.158C154.883 316.565 145.785 316.653 115.575 318.243Z" fill="url(#paint17_linear_575_968)"/>
<path d="M128.383 354.813C127.147 354.813 125.998 354.813 124.673 354.813C103.385 354.548 87.0433 352.605 86.8666 352.605C86.3366 352.517 85.9833 352.075 86.0716 351.545C86.16 351.015 86.6016 350.662 87.1316 350.75C87.3083 350.75 103.562 352.605 124.762 352.958C146.933 353.312 156.65 350.662 156.738 350.662C157.268 350.573 157.71 350.838 157.887 351.28C158.063 351.722 157.71 352.252 157.268 352.428C156.827 352.517 148.258 354.813 128.383 354.813Z" fill="#A12168"/>
<path d="M125.38 385.288C125.115 385.288 124.938 385.288 124.673 385.288C103.297 385.2 85.3651 382.462 85.1884 382.462C84.6584 382.373 84.3051 381.932 84.3934 381.402C84.4817 380.872 84.9234 380.518 85.4534 380.607C85.6301 380.607 103.473 383.345 124.585 383.433C124.762 383.433 125.027 383.433 125.203 383.433C147.022 383.433 158.417 380.342 158.505 380.342C159.035 380.165 159.477 380.518 159.653 380.96C159.83 381.49 159.477 381.932 159.035 382.108C158.77 382.197 147.463 385.288 125.38 385.288Z" fill="#A12168"/>
<path d="M123.967 416.028C123.702 416.028 123.437 416.028 123.172 416.028C101.088 415.94 82.3617 410.463 82.0967 410.375C81.5667 410.198 81.3017 409.668 81.4783 409.227C81.655 408.697 82.185 408.432 82.6267 408.608C82.8033 408.697 101.353 414.173 123.172 414.173C146.138 414.262 157.092 411.612 157.18 411.612C157.71 411.523 158.152 411.788 158.328 412.318C158.417 412.848 158.152 413.29 157.622 413.467C157.18 413.467 146.58 416.028 123.967 416.028Z" fill="#A12168"/>
<path d="M82.6266 415.145C79.0933 415.675 76.6199 422.3 81.1249 425.568C85.6299 428.837 103.297 432.193 107.802 427.07C112.307 421.947 109.745 418.237 102.06 417.353C94.3749 416.47 88.4566 414.173 82.6266 415.145Z" fill="#C34599"/>
<path d="M114.426 389.352C110.186 390.588 103.738 393.15 120.256 396.33C126.351 397.478 155.766 395.977 160.536 391.03C165.306 386.083 153.646 387.408 142.428 388.115C132.888 388.733 121.405 387.232 114.426 389.352Z" fill="#C34599"/>
<path d="M151.438 327.872C155.678 326.635 162.126 324.073 145.608 320.893C139.513 319.745 110.098 321.247 105.328 326.193C100.558 331.14 112.218 329.815 123.436 329.108C132.976 328.402 144.46 329.992 151.438 327.872Z" fill="#C34599"/>
<path d="M91.3713 354.018C85.453 353.93 85.6297 359.142 88.0147 361.35C90.3997 363.558 117.518 365.855 122.288 362.587C127.058 359.318 123.966 356.315 117.518 356.227C111.07 356.05 98.3497 354.195 91.3713 354.018Z" fill="#C34599"/>
<path d="M141.28 319.568C141.28 319.568 142.075 313.208 138.1 311.53C134.125 309.852 112.13 310.823 106.035 311.795C99.9399 312.767 97.0249 319.48 101.707 321.158C106.3 322.748 138.63 320.893 141.28 319.568Z" fill="url(#paint18_linear_575_968)"/>
<path d="M101.353 320.54C100.911 320.54 100.558 320.275 100.47 319.833C100.293 319.303 100.646 318.862 101.088 318.685C101.353 318.597 107.978 316.83 119.903 316.388C133.86 315.858 139.601 316.212 139.866 316.212C140.396 316.212 140.75 316.653 140.75 317.183C140.75 317.713 140.22 318.067 139.778 318.067C139.69 318.067 133.771 317.713 119.991 318.243C108.243 318.685 101.618 320.452 101.618 320.452C101.53 320.54 101.441 320.54 101.353 320.54Z" fill="#A12168"/>
<path d="M138.1 318.332C132.712 319.127 133.418 312.502 133.507 311.707C133.33 312.502 131.74 318.862 124.408 318.95C116.635 319.127 117.253 311.618 117.253 311.618C117.253 311.618 111.335 317.095 105.593 314.798C99.8517 312.502 102.855 303.58 102.855 303.58C102.855 303.58 92.9617 310.205 89.4284 302.697C88.015 299.605 88.8984 295.277 90.4884 291.213C92.785 285.295 96.4067 279.907 96.4067 279.907L138.718 259.06C138.718 259.06 143.047 265.155 145.697 274.872C146.492 277.787 147.198 281.055 147.463 284.588C149.142 299.87 143.842 317.448 138.1 318.332Z" fill="url(#paint19_linear_575_968)"/>
<path d="M103.208 303.933C103.032 303.933 102.855 303.845 102.678 303.757C102.325 303.492 102.237 302.962 102.502 302.52C102.502 302.52 104.268 300.047 105.152 298.722C106.212 297.132 106.742 295.188 106.83 295.1C107.007 294.658 107.448 294.393 107.89 294.482C108.332 294.658 108.597 295.1 108.508 295.542C108.508 295.63 107.802 297.838 106.653 299.605C105.77 300.842 104.092 303.315 104.003 303.403C103.738 303.845 103.473 303.933 103.208 303.933Z" fill="#600C32"/>
<path d="M117.96 310.912C117.783 310.912 117.695 310.912 117.518 310.823C117.077 310.558 116.9 310.028 117.165 309.587C117.165 309.587 118.49 307.113 119.108 305.082C119.727 303.05 119.727 302.078 119.727 301.99C119.727 301.548 120.168 301.107 120.61 301.107C121.052 301.107 121.493 301.46 121.493 301.99C121.493 302.078 121.493 303.315 120.787 305.523C120.08 307.82 118.755 310.293 118.667 310.382C118.578 310.735 118.313 310.912 117.96 310.912Z" fill="#600C32"/>
<path d="M134.302 311C134.125 311 134.037 311 133.86 310.911C133.418 310.646 133.242 310.116 133.507 309.763C133.507 309.763 134.302 308.173 134.92 306.053C135.539 303.845 135.715 302.52 135.715 302.431C135.804 301.99 136.245 301.636 136.687 301.636C137.129 301.725 137.482 302.166 137.482 302.608C137.482 302.696 137.305 304.021 136.687 306.406C136.069 308.791 135.185 310.47 135.097 310.558C134.92 310.911 134.655 311 134.302 311Z" fill="#600C32"/>
<path d="M145.873 274.872C137.923 283.97 126.263 292.892 110.275 294.393C97.9967 295.542 92.6967 293.687 90.5767 291.213C92.8733 285.295 96.495 279.907 96.495 279.907L138.807 259.06C138.807 259.06 143.223 265.155 145.873 274.872Z" fill="url(#paint20_linear_575_968)"/>
<path d="M93.4035 285.295C93.4035 285.295 96.5835 287.062 114.515 284.765C132.889 282.468 144.902 270.19 145.874 267.187C146.492 265.42 144.814 262.858 144.107 261.71C143.4 260.562 143.224 247.842 125.91 241.482C105.682 233.973 79.7118 254.378 77.7685 259.413C75.8252 264.36 87.8385 261.887 88.6335 265.597C89.4285 269.218 89.9585 274.607 89.6052 276.285C89.2518 277.875 88.8102 285.03 93.4035 285.295Z" fill="url(#paint21_linear_575_968)"/>
<path d="M142.517 259.502C142.605 259.502 142.694 259.59 142.87 259.59C143.224 259.767 143.4 260.208 143.224 260.562C142.959 261.003 136.599 271.603 119.904 276.462C104.269 281.055 90.9303 278.228 90.7536 278.228C90.4003 278.14 90.2236 277.787 90.2236 277.433C90.2236 277.08 90.577 276.815 90.842 276.903C90.9303 276.903 104.004 279.642 119.285 275.048C135.45 270.278 141.722 259.767 141.81 259.678C141.987 259.502 142.252 259.413 142.517 259.502Z" fill="#CB2628"/>
<path d="M138.365 264.625C138.542 264.625 138.63 264.713 138.807 264.802C138.807 264.89 139.867 266.038 141.015 267.717C142.164 269.395 142.34 270.013 142.34 270.102C142.429 270.455 142.252 270.72 141.899 270.72C141.545 270.72 141.28 270.543 141.192 270.19C141.192 270.19 141.015 269.66 140.044 268.158C138.984 266.568 137.924 265.42 137.924 265.332C137.747 265.067 137.747 264.713 137.924 264.537C138.012 264.625 138.189 264.625 138.365 264.625Z" fill="#CB2628"/>
<path d="M132.005 269.837C132.182 269.837 132.359 269.925 132.447 270.102L136.422 275.225C136.599 275.49 136.599 275.843 136.334 276.108C136.069 276.285 135.715 276.197 135.45 275.932L131.564 270.808C131.387 270.543 131.387 270.19 131.652 270.013C131.74 269.837 131.917 269.837 132.005 269.837Z" fill="#CB2628"/>
<path d="M124.144 273.9C124.321 273.9 124.497 274.077 124.586 274.165L128.119 279.907C128.296 280.172 128.207 280.525 127.942 280.702C127.677 280.878 127.324 280.702 127.147 280.437L123.614 274.695C123.437 274.43 123.526 274.077 123.791 273.9C123.879 273.9 123.967 273.812 124.144 273.9Z" fill="#CB2628"/>
<path d="M116.282 276.197C116.459 276.197 116.635 276.373 116.724 276.55L120.08 282.557C120.257 282.91 120.169 283.263 119.904 283.44C119.639 283.617 119.197 283.44 119.02 283.087L115.664 277.08C115.487 276.727 115.575 276.373 115.84 276.285C116.105 276.108 116.194 276.108 116.282 276.197Z" fill="#CB2628"/>
<path d="M107.007 277.61C107.184 277.61 107.361 277.787 107.449 277.963L111.159 283.97C111.336 284.323 111.336 284.677 110.982 284.853C110.717 285.03 110.276 284.942 110.099 284.588L106.477 278.582C106.301 278.228 106.389 277.875 106.654 277.698C106.654 277.61 106.831 277.522 107.007 277.61Z" fill="#CB2628"/>
<path d="M99.4985 278.052C99.6751 278.14 99.7635 278.228 99.8518 278.405L102.413 284.588C102.59 284.942 102.413 285.295 102.148 285.472C101.883 285.648 101.53 285.472 101.353 285.118L98.7918 278.935C98.6152 278.582 98.7918 278.228 99.0568 278.052C99.2335 278.052 99.3218 278.052 99.4985 278.052Z" fill="#CB2628"/>
<path d="M92.4318 277.257C92.6084 277.257 92.7851 277.433 92.8734 277.61L95.8768 283.97C96.0534 284.323 95.9651 284.677 95.6118 284.853C95.3468 285.03 94.9934 284.853 94.8168 284.5L91.8134 278.14C91.6368 277.787 91.7251 277.433 92.0784 277.345C92.2551 277.168 92.3434 277.168 92.4318 277.257Z" fill="#CB2628"/>
<path d="M93.6683 265.243C91.1066 265.243 89.5166 264.802 89.4283 264.802C89.1633 264.713 88.8983 264.537 88.81 264.183C88.7216 263.918 88.7216 263.565 88.8983 263.3L91.725 259.237C91.99 258.795 92.6083 258.707 93.05 258.972C93.4916 259.237 93.58 259.855 93.315 260.297L91.2833 263.123C92.0783 263.212 93.1383 263.3 94.4633 263.212C97.3783 263.123 99.5866 262.417 99.675 262.417C100.205 262.24 100.735 262.505 100.823 263.035C101 263.565 100.735 264.095 100.205 264.183C100.117 264.183 97.6433 264.978 94.5516 265.067C94.2866 265.243 93.9333 265.243 93.6683 265.243Z" fill="#CB2628"/>
<defs>
<linearGradient id="paint0_linear_575_968" x1="213.997" y1="403.77" x2="202.404" y2="327.257" gradientUnits="userSpaceOnUse">
<stop stop-color="#DEDBEE"/>
<stop offset="1" stop-color="#F7F9FD"/>
</linearGradient>
<linearGradient id="paint1_linear_575_968" x1="194.997" y1="358.269" x2="226.654" y2="428.066" gradientUnits="userSpaceOnUse">
<stop stop-color="#DEDBEE"/>
<stop offset="1" stop-color="#B2AFD7"/>
</linearGradient>
<linearGradient id="paint2_linear_575_968" x1="285.989" y1="391.059" x2="292.944" y2="338.195" gradientUnits="userSpaceOnUse">
<stop stop-color="#DEDBEE"/>
<stop offset="1" stop-color="#F7F9FD"/>
</linearGradient>
<linearGradient id="paint3_linear_575_968" x1="303.361" y1="344.873" x2="280.137" y2="425.408" gradientUnits="userSpaceOnUse">
<stop stop-color="#DEDBEE"/>
<stop offset="1" stop-color="#B2AFD7"/>
</linearGradient>
<linearGradient id="paint4_linear_575_968" x1="184.568" y1="375.086" x2="184.568" y2="327.859" gradientUnits="userSpaceOnUse">
<stop stop-color="#F9B566"/>
<stop offset="1" stop-color="#EF6C4A"/>
</linearGradient>
<linearGradient id="paint5_linear_575_968" x1="241.664" y1="153.219" x2="252.418" y2="278.055" gradientUnits="userSpaceOnUse">
<stop stop-color="#F9B566"/>
<stop offset="1" stop-color="#F05236"/>
</linearGradient>
<linearGradient id="paint6_linear_575_968" x1="245.69" y1="207.479" x2="266.776" y2="413.648" gradientUnits="userSpaceOnUse">
<stop stop-color="#F9B566"/>
<stop offset="1" stop-color="#EF6C4A"/>
</linearGradient>
<linearGradient id="paint7_linear_575_968" x1="178.678" y1="401.192" x2="278.388" y2="191.8" gradientUnits="userSpaceOnUse">
<stop stop-color="#F0CBDD"/>
<stop offset="0.9946" stop-color="#FAEBF3"/>
</linearGradient>
<linearGradient id="paint8_linear_575_968" x1="320.157" y1="375.086" x2="320.157" y2="327.859" gradientUnits="userSpaceOnUse">
<stop stop-color="#F9B566"/>
<stop offset="1" stop-color="#EF6C4A"/>
</linearGradient>
<linearGradient id="paint9_linear_575_968" x1="254.608" y1="334.643" x2="254.608" y2="271.041" gradientUnits="userSpaceOnUse">
<stop stop-color="#171A47"/>
<stop offset="1" stop-color="#2D3079"/>
</linearGradient>
<linearGradient id="paint10_linear_575_968" x1="193.218" y1="252.121" x2="307.066" y2="252.121" gradientUnits="userSpaceOnUse">
<stop stop-color="#EC4927"/>
<stop offset="1" stop-color="#F06944"/>
</linearGradient>
<linearGradient id="paint11_linear_575_968" x1="76.7357" y1="346.817" x2="59.7006" y2="413.21" gradientUnits="userSpaceOnUse">
<stop stop-color="#FAB666"/>
<stop offset="1" stop-color="#F99F45"/>
</linearGradient>
<linearGradient id="paint12_linear_575_968" x1="77.3043" y1="343.36" x2="58.9923" y2="414.73" gradientUnits="userSpaceOnUse">
<stop stop-color="#FAB666"/>
<stop offset="1" stop-color="#F99F45"/>
</linearGradient>
<linearGradient id="paint13_linear_575_968" x1="197.309" y1="309.237" x2="181.53" y2="291.353" gradientUnits="userSpaceOnUse">
<stop stop-color="#FAB666"/>
<stop offset="1" stop-color="#F99F45"/>
</linearGradient>
<linearGradient id="paint14_linear_575_968" x1="146.838" y1="282.349" x2="145.153" y2="252.468" gradientUnits="userSpaceOnUse">
<stop stop-color="#B32978"/>
<stop offset="1" stop-color="#C14B9B"/>
</linearGradient>
<linearGradient id="paint15_linear_575_968" x1="171.596" y1="292.594" x2="163.052" y2="272.337" gradientUnits="userSpaceOnUse">
<stop stop-color="#FEC976"/>
<stop offset="0.9892" stop-color="#F6DD9B"/>
</linearGradient>
<linearGradient id="paint16_linear_575_968" x1="193.111" y1="298.909" x2="166.929" y2="331.326" gradientUnits="userSpaceOnUse">
<stop stop-color="#FAB666"/>
<stop offset="1" stop-color="#F99F45"/>
</linearGradient>
<linearGradient id="paint17_linear_575_968" x1="122.75" y1="446.524" x2="113.399" y2="280.7" gradientUnits="userSpaceOnUse">
<stop stop-color="#B32978"/>
<stop offset="1" stop-color="#C14B9B"/>
</linearGradient>
<linearGradient id="paint18_linear_575_968" x1="120.054" y1="307.679" x2="120.521" y2="325.446" gradientUnits="userSpaceOnUse">
<stop stop-color="#B32978"/>
<stop offset="1" stop-color="#C14B9B"/>
</linearGradient>
<linearGradient id="paint19_linear_575_968" x1="120.2" y1="278.357" x2="116.683" y2="311.481" gradientUnits="userSpaceOnUse">
<stop offset="0.00537634" stop-color="#6B1036"/>
<stop offset="1" stop-color="#782844"/>
</linearGradient>
<linearGradient id="paint20_linear_575_968" x1="118.283" y1="283.618" x2="114.472" y2="256.063" gradientUnits="userSpaceOnUse">
<stop offset="0.00537634" stop-color="#6B1036"/>
<stop offset="1" stop-color="#782844"/>
</linearGradient>
<linearGradient id="paint21_linear_575_968" x1="90.3179" y1="285.401" x2="127.722" y2="247.062" gradientUnits="userSpaceOnUse">
<stop stop-color="#EC4927"/>
<stop offset="1" stop-color="#F06944"/>
</linearGradient>
</defs>
</svg>
