<svg width="350" height="619" viewBox="0 0 350 619" fill="none" xmlns="http://www.w3.org/2000/svg">
<path d="M104.266 25.384C105.418 25.448 106.058 24.68 106.314 23.656C106.602 22.568 106.986 21.48 107.21 20.36C107.306 19.784 107.402 19.208 107.626 18.664C107.85 18.184 108.17 17.768 108.394 17.32C108.65 16.776 108.746 16.2 108.938 15.624C109.098 15.112 109.29 14.568 109.482 14.056C109.898 13.032 110.186 11.944 110.442 10.856C110.57 10.28 110.698 9.672 110.858 9.096C110.986 8.584 111.178 8.104 111.146 7.56C111.05 6.376 109.898 6.408 109.002 6.536C108.458 6.632 108.01 6.824 107.69 7.272C107.402 7.688 107.21 8.2 107.05 8.648C106.602 9.768 106.25 10.888 105.962 12.04C105.802 12.648 105.642 13.256 105.386 13.8L104.682 15.208C104.458 15.72 104.33 16.328 104.17 16.872C104.074 17.224 104.01 17.992 103.658 18.216C102.89 18.728 102.538 16.296 102.474 15.944C102.218 14.824 101.834 13.736 101.61 12.616C101.482 12.072 101.386 11.528 101.194 10.984C101.066 10.536 100.842 10.088 100.65 9.608C100.298 8.712 100.266 7.24 99.2421 6.824C98.7301 6.632 98.1541 6.632 97.6101 6.568C97.1301 6.504 96.6181 6.44 96.1381 6.536C95.0181 6.792 94.7941 7.944 94.5061 8.872C93.8981 11.016 93.3861 13.192 92.8101 15.336C92.6821 15.848 92.5221 16.36 92.3621 16.872C92.2021 17.384 92.0741 18.024 91.7541 18.44C90.9861 19.336 90.5381 16.712 90.4421 16.36C90.2181 15.336 89.9941 14.312 89.6421 13.32C89.2581 12.264 88.7461 11.272 88.4901 10.184C88.2341 9.16 87.9141 7.944 87.2421 7.08C86.9221 6.632 86.4741 6.504 85.9301 6.568C85.3861 6.6 84.8101 6.664 84.3301 6.952C83.2101 7.592 83.8821 8.744 84.2021 9.704C84.3941 10.248 84.5861 10.824 84.8101 11.4C85.0021 11.88 85.2581 12.328 85.4821 12.776C85.9301 13.8 85.9301 14.888 86.4421 15.88C86.9221 16.872 87.3381 17.832 87.5621 18.92C87.6581 19.496 87.6901 20.104 87.7861 20.68C87.9141 21.256 88.1061 21.8 88.3301 22.344C88.6821 23.24 88.9381 24.52 89.9301 24.968C90.4421 25.192 91.0181 25.224 91.5621 25.288C92.0421 25.352 92.5861 25.48 93.0661 25.256C94.0581 24.776 93.9621 23.496 94.2821 22.632C94.4741 22.12 94.7941 21.672 95.0181 21.16C95.2101 20.712 95.3061 20.264 95.3381 19.784C95.4661 18.728 95.8501 17.832 96.2341 16.84C96.5541 15.912 96.5861 14.664 97.1941 13.864C97.9301 12.872 98.4741 15.144 98.5701 15.592C99.0821 17.736 99.4981 19.88 100.394 21.896C100.618 22.376 100.778 22.856 100.906 23.368C101.034 23.848 101.13 24.328 101.482 24.712C102.122 25.48 103.37 25.384 104.266 25.384ZM125.721 21.16C124.249 20.904 122.649 21.096 121.177 21.064H119.001C118.681 21.064 118.297 21.064 118.105 20.776C117.913 20.552 117.977 20.168 117.977 19.88C117.977 19.528 117.977 19.176 117.945 18.824C117.913 18.536 117.913 18.184 118.169 17.96C118.425 17.736 118.873 17.8 119.225 17.832C119.577 17.864 119.929 17.864 120.313 17.864H120.345C120.345 17.864 122.425 17.8 122.617 17.8C123.289 17.8 123.993 17.736 124.441 17.16C124.825 16.648 124.857 15.784 124.697 15.208C124.313 13.672 122.073 13.864 120.889 13.896C120.121 13.896 119.257 14.088 118.521 13.928C117.785 13.768 117.785 12.904 117.785 12.328C117.817 11.752 117.785 10.984 118.425 10.728C119.033 10.472 119.897 10.504 120.569 10.504C122.105 10.504 123.641 10.696 125.177 10.6C125.817 10.536 126.521 10.408 126.809 9.736C127.033 9.16 127.097 8.2 126.969 7.592C126.585 6.056 124.281 6.408 123.129 6.536C121.561 6.76 120.025 6.536 118.457 6.504C117.721 6.504 116.985 6.568 116.249 6.6C115.641 6.664 114.777 6.44 114.233 6.76C113.593 7.112 113.849 8.136 113.849 8.712C113.881 9.512 113.817 10.28 113.817 11.08C113.785 11.88 113.817 12.712 113.721 13.512C113.657 14.248 113.593 14.984 113.657 15.752C113.721 16.52 113.785 17.288 113.785 18.056C113.817 18.824 113.721 19.592 113.689 20.36C113.625 21.128 113.625 21.896 113.593 22.664C113.593 23.336 113.369 24.232 113.689 24.872C114.009 25.512 114.969 25.384 115.577 25.352C116.313 25.352 117.081 25.352 117.817 25.288C119.417 25.192 121.049 25.352 122.649 25.224C123.449 25.16 124.281 25.16 125.081 25.192C125.753 25.224 126.361 25.192 126.777 24.552C127.097 23.976 127.097 23.112 127.065 22.44C127.033 21.672 126.425 21.288 125.721 21.16ZM130.167 9.224V9.288V9.352C130.167 10.408 130.167 11.464 130.135 12.488C130.103 13.608 130.295 14.76 130.295 15.88C130.263 17 130.135 18.12 130.135 19.24C130.167 20.392 129.943 21.576 130.071 22.728C130.167 23.528 130.263 24.68 131.127 25C132.023 25.352 133.111 25.064 134.039 25.032C135.031 25.032 135.991 25.32 137.015 25.16C138.007 25.032 138.935 25.096 139.927 25.192C140.887 25.256 142.263 25.48 142.679 24.36C142.839 23.944 142.775 23.432 142.743 22.984C142.679 22.568 142.679 22.088 142.487 21.704C142.007 20.776 140.919 21 140.087 21.032C139.543 21.032 139.031 20.968 138.487 20.936C138.007 20.904 137.527 20.968 137.047 21.032C136.343 21.096 134.903 21.448 134.391 20.808C134.071 20.392 134.167 19.72 134.199 19.272C134.199 18.792 134.231 18.344 134.263 17.896C134.359 16.84 134.391 15.784 134.295 14.76C134.231 13.8 134.135 12.872 134.135 11.912C134.135 10.888 134.135 9.864 134.231 8.808C134.295 7.944 134.487 6.888 133.463 6.536C132.983 6.376 132.407 6.408 131.927 6.44C131.511 6.472 131.063 6.472 130.679 6.728C129.943 7.272 130.135 8.424 130.167 9.224ZM154.515 25.32C154.515 25.352 155.827 25.192 155.923 25.192C157.299 25.032 158.611 24.584 159.795 23.88C160.307 23.56 161.075 23.112 161.299 22.504C161.491 21.96 161.235 21.352 160.851 20.968C160.435 20.52 159.827 19.944 159.187 19.848C158.547 19.752 157.939 20.136 157.395 20.424C156.339 21 155.091 21.192 153.907 21.096C153.363 21.032 152.787 21 152.275 20.776C151.699 20.552 151.091 20.104 150.675 19.656C149.843 18.824 149.363 17.608 149.267 16.456C149.171 15.368 149.267 14.12 149.811 13.16C150.163 12.616 150.547 12.072 151.027 11.592C151.475 11.144 151.987 10.632 152.627 10.44C153.523 10.216 154.611 10.184 155.539 10.312C156.723 10.472 157.971 11.432 158.963 10.28C159.699 9.448 160.595 8.008 159.251 7.272C158.067 6.632 156.691 6.248 155.379 6.024C154.771 5.896 154.195 5.896 153.587 6.024L151.539 6.536C150.227 6.888 148.915 7.432 148.019 8.456C147.603 8.968 147.219 9.48 146.835 9.992C146.419 10.568 146.003 11.112 145.683 11.752C145.427 12.328 145.139 12.936 145.043 13.576C144.915 14.216 144.979 14.92 144.979 15.56C144.979 16.232 144.947 16.936 145.043 17.576C145.139 18.184 145.331 18.76 145.555 19.336C146.003 20.552 146.835 21.672 147.731 22.632C148.627 23.56 149.715 24.392 150.995 24.744C152.115 25.032 153.331 25.32 154.515 25.32ZM181.441 11.912C181.185 11.048 180.481 10.248 179.905 9.544C179.233 8.776 178.561 8.072 177.729 7.464C176.929 6.856 176.001 6.504 175.041 6.28C174.113 6.056 173.121 5.896 172.193 6.024C171.201 6.184 170.241 6.44 169.313 6.856C168.449 7.24 167.521 7.656 166.785 8.264C165.345 9.512 164.289 11.368 163.681 13.16C163.073 14.984 163.329 17.16 163.905 18.952C164.193 19.848 164.641 20.648 165.185 21.448C165.729 22.248 166.369 23.112 167.201 23.656C168.769 24.68 170.753 25.384 172.641 25.32C173.761 25.384 174.977 25.032 176.033 24.68C177.089 24.36 177.985 23.784 178.881 23.112C179.777 22.408 180.481 21.736 180.993 20.68C181.473 19.656 181.697 18.536 181.889 17.416C182.049 16.488 182.113 15.656 181.985 14.728C181.889 13.8 181.729 12.808 181.441 11.912ZM177.761 17.576C177.473 18.568 176.769 19.56 175.937 20.2C175.553 20.52 175.137 20.84 174.657 20.968C174.145 21.096 173.569 21.128 173.057 21.096C171.713 21.096 170.497 20.808 169.409 19.976C168.449 19.24 167.937 17.896 167.713 16.744C167.201 14.408 168.385 12.296 170.337 11.016C172.225 9.832 174.625 10.248 176.289 11.592C177.089 12.264 177.537 13.384 177.793 14.344C178.081 15.432 178.081 16.456 177.761 17.576ZM192.81 21.864C193.354 22.728 194.026 22.92 194.986 22.984C195.914 23.048 196.65 22.792 197.098 21.928C197.514 21.064 197.802 20.136 198.026 19.208C198.282 18.28 198.506 17.352 198.794 16.424C198.922 16.008 199.082 15.432 199.434 15.144C199.818 14.824 200.01 15.24 200.106 15.592C200.65 17.512 200.842 19.432 201.066 21.416C201.162 22.312 201.13 23.432 201.546 24.264C201.93 25.096 202.826 25.128 203.626 25.128C203.626 25.224 204.65 25.032 204.746 24.968C205.098 24.808 205.386 24.488 205.482 24.136C205.642 23.688 205.514 23.144 205.45 22.664C205.418 22.216 205.322 21.768 205.226 21.32C204.97 20.328 204.778 19.336 204.618 18.312C204.298 16.392 203.946 14.44 203.69 12.488C203.594 11.528 203.466 10.6 203.306 9.64C203.178 8.872 203.146 7.784 202.666 7.112C202.09 6.312 200.906 6.504 200.01 6.6C198.986 6.696 198.57 7.368 198.186 8.264C197.802 9.128 197.706 10.088 197.354 10.984C197.162 11.432 196.906 11.88 196.682 12.328C196.49 12.776 196.394 13.256 196.298 13.736C196.138 14.632 195.914 15.592 195.562 16.456C195.434 16.776 195.114 17.384 194.666 17.032C194.378 16.808 194.282 16.232 194.186 15.88C193.93 14.92 193.674 13.992 193.354 13.064L192.266 10.408C191.946 9.48 191.69 8.552 191.338 7.624C190.954 6.696 190.218 6.504 189.258 6.568C188.394 6.632 187.434 6.6 186.922 7.432C186.442 8.232 186.218 9.32 186.09 10.248C185.962 11.144 185.962 12.04 185.93 12.936C185.898 13.864 185.77 14.76 185.642 15.656C185.482 16.616 185.194 17.512 185.098 18.472C185.034 19.368 184.938 20.264 184.778 21.192L184.49 22.824C184.394 23.24 184.266 23.688 184.362 24.104C184.554 25.032 185.642 25.096 186.41 25.16C187.402 25.224 187.946 24.776 188.266 23.848C188.618 22.856 188.81 21.832 188.938 20.808C189.034 19.944 188.938 19.048 189.034 18.184C189.098 17.704 189.226 17.224 189.322 16.744C189.386 16.328 189.45 15.816 189.642 15.432C190.154 14.344 190.858 16.072 191.018 16.52C191.306 17.352 191.594 18.216 191.786 19.112C191.978 20.104 192.298 21 192.81 21.864ZM220.171 21.16C218.699 20.904 217.099 21.096 215.627 21.064H213.451C213.131 21.064 212.747 21.064 212.555 20.776C212.363 20.552 212.427 20.168 212.427 19.88C212.427 19.528 212.427 19.176 212.395 18.824C212.363 18.536 212.363 18.184 212.619 17.96C212.875 17.736 213.323 17.8 213.675 17.832C214.027 17.864 214.379 17.864 214.763 17.864H214.795C214.795 17.864 216.875 17.8 217.067 17.8C217.739 17.8 218.443 17.736 218.891 17.16C219.275 16.648 219.307 15.784 219.147 15.208C218.763 13.672 216.523 13.864 215.339 13.896C214.571 13.896 213.707 14.088 212.971 13.928C212.235 13.768 212.235 12.904 212.235 12.328C212.267 11.752 212.235 10.984 212.875 10.728C213.483 10.472 214.347 10.504 215.019 10.504C216.555 10.504 218.091 10.696 219.627 10.6C220.267 10.536 220.971 10.408 221.259 9.736C221.483 9.16 221.547 8.2 221.419 7.592C221.035 6.056 218.731 6.408 217.579 6.536C216.011 6.76 214.475 6.536 212.907 6.504C212.171 6.504 211.435 6.568 210.699 6.6C210.091 6.664 209.227 6.44 208.683 6.76C208.043 7.112 208.299 8.136 208.299 8.712C208.331 9.512 208.267 10.28 208.267 11.08C208.235 11.88 208.267 12.712 208.171 13.512C208.107 14.248 208.043 14.984 208.107 15.752C208.171 16.52 208.235 17.288 208.235 18.056C208.267 18.824 208.171 19.592 208.139 20.36C208.075 21.128 208.075 21.896 208.043 22.664C208.043 23.336 207.819 24.232 208.139 24.872C208.459 25.512 209.419 25.384 210.027 25.352C210.763 25.352 211.531 25.352 212.267 25.288C213.867 25.192 215.499 25.352 217.099 25.224C217.899 25.16 218.731 25.16 219.531 25.192C220.203 25.224 220.811 25.192 221.227 24.552C221.547 23.976 221.547 23.112 221.515 22.44C221.483 21.672 220.875 21.288 220.171 21.16ZM238.057 6.248C238.057 6.216 235.241 6.344 234.921 6.376C233.929 6.44 232.457 6.248 232.169 7.496C231.945 8.424 231.945 9.864 233.001 10.28C233.481 10.472 234.089 10.44 234.601 10.44C235.177 10.472 235.881 10.28 236.425 10.536C236.809 10.696 236.873 11.112 236.873 11.496V13.192C236.873 14.216 236.713 15.24 236.681 16.264C236.681 17.224 236.745 18.216 236.809 19.176C236.873 20.072 236.905 20.968 236.937 21.896C236.937 22.792 236.521 23.944 237.289 24.648C237.737 25.064 238.281 25.032 238.857 24.968C239.273 24.936 239.721 24.904 240.137 24.744C241.225 24.264 240.969 23.08 240.969 22.12C241.001 21.096 241.129 20.104 241.065 19.048C240.905 17.064 241.129 15.08 240.937 13.064C240.873 12.264 240.745 10.824 241.769 10.536C242.761 10.248 243.881 10.6 244.873 10.28C245.865 9.96 245.993 8.776 245.961 7.88C245.897 6.76 245.001 6.408 244.009 6.312C242.985 6.216 242.025 6.312 241.001 6.376C240.009 6.408 239.017 6.248 238.057 6.248ZM266.141 11.912C265.885 11.048 265.181 10.248 264.605 9.544C263.933 8.776 263.261 8.072 262.429 7.464C261.629 6.856 260.701 6.504 259.741 6.28C258.813 6.056 257.821 5.896 256.893 6.024C255.901 6.184 254.941 6.44 254.013 6.856C253.149 7.24 252.221 7.656 251.485 8.264C250.045 9.512 248.989 11.368 248.381 13.16C247.773 14.984 248.029 17.16 248.605 18.952C248.893 19.848 249.341 20.648 249.885 21.448C250.429 22.248 251.069 23.112 251.901 23.656C253.469 24.68 255.453 25.384 257.341 25.32C258.461 25.384 259.677 25.032 260.733 24.68C261.789 24.36 262.685 23.784 263.581 23.112C264.477 22.408 265.181 21.736 265.693 20.68C266.173 19.656 266.397 18.536 266.589 17.416C266.749 16.488 266.813 15.656 266.685 14.728C266.589 13.8 266.429 12.808 266.141 11.912ZM262.461 17.576C262.173 18.568 261.469 19.56 260.637 20.2C260.253 20.52 259.837 20.84 259.357 20.968C258.845 21.096 258.269 21.128 257.757 21.096C256.413 21.096 255.197 20.808 254.109 19.976C253.149 19.24 252.637 17.896 252.413 16.744C251.901 14.408 253.085 12.296 255.037 11.016C256.925 9.832 259.325 10.248 260.989 11.592C261.789 12.264 262.237 13.384 262.493 14.344C262.781 15.432 262.781 16.456 262.461 17.576ZM37.9899 53.864C38.5339 54.728 39.2059 54.92 40.1659 54.984C41.0939 55.048 41.8299 54.792 42.2779 53.928C42.6939 53.064 42.9819 52.136 43.2059 51.208C43.4619 50.28 43.6859 49.352 43.9739 48.424C44.1019 48.008 44.2619 47.432 44.6139 47.144C44.9979 46.824 45.1899 47.24 45.2859 47.592C45.8299 49.512 46.0219 51.432 46.2459 53.416C46.3419 54.312 46.3099 55.432 46.7259 56.264C47.1099 57.096 48.0059 57.128 48.8059 57.128C48.8059 57.224 49.8299 57.032 49.9259 56.968C50.2779 56.808 50.5659 56.488 50.6619 56.136C50.8219 55.688 50.6939 55.144 50.6299 54.664C50.5979 54.216 50.5019 53.768 50.4059 53.32C50.1499 52.328 49.9579 51.336 49.7979 50.312C49.4779 48.392 49.1259 46.44 48.8699 44.488C48.7739 43.528 48.6459 42.6 48.4859 41.64C48.3579 40.872 48.3259 39.784 47.8459 39.112C47.2699 38.312 46.0859 38.504 45.1899 38.6C44.1659 38.696 43.7499 39.368 43.3659 40.264C42.9819 41.128 42.8859 42.088 42.5339 42.984C42.3419 43.432 42.0859 43.88 41.8619 44.328C41.6699 44.776 41.5739 45.256 41.4779 45.736C41.3179 46.632 41.0939 47.592 40.7419 48.456C40.6139 48.776 40.2939 49.384 39.8459 49.032C39.5579 48.808 39.4619 48.232 39.3659 47.88C39.1099 46.92 38.8539 45.992 38.5339 45.064L37.4459 42.408C37.1259 41.48 36.8699 40.552 36.5179 39.624C36.1339 38.696 35.3979 38.504 34.4379 38.568C33.5739 38.632 32.6139 38.6 32.1019 39.432C31.6219 40.232 31.3979 41.32 31.2699 42.248C31.1419 43.144 31.1419 44.04 31.1099 44.936C31.0779 45.864 30.9499 46.76 30.8219 47.656C30.6619 48.616 30.3739 49.512 30.2779 50.472C30.2139 51.368 30.1179 52.264 29.9579 53.192L29.6699 54.824C29.5739 55.24 29.4459 55.688 29.5419 56.104C29.7339 57.032 30.8219 57.096 31.5899 57.16C32.5819 57.224 33.1259 56.776 33.4459 55.848C33.7979 54.856 33.9899 53.832 34.1179 52.808C34.2139 51.944 34.1179 51.048 34.2139 50.184C34.2779 49.704 34.4059 49.224 34.5019 48.744C34.5659 48.328 34.6299 47.816 34.8219 47.432C35.3339 46.344 36.0379 48.072 36.1979 48.52C36.4859 49.352 36.7739 50.216 36.9659 51.112C37.1579 52.104 37.4779 53 37.9899 53.864ZM70.9826 43.912C70.7266 43.048 70.0226 42.248 69.4466 41.544C68.7746 40.776 68.1026 40.072 67.2706 39.464C66.4706 38.856 65.5426 38.504 64.5826 38.28C63.6546 38.056 62.6626 37.896 61.7346 38.024C60.7426 38.184 59.7826 38.44 58.8546 38.856C57.9906 39.24 57.0626 39.656 56.3266 40.264C54.8866 41.512 53.8306 43.368 53.2226 45.16C52.6146 46.984 52.8706 49.16 53.4466 50.952C53.7346 51.848 54.1826 52.648 54.7266 53.448C55.2706 54.248 55.9106 55.112 56.7426 55.656C58.3106 56.68 60.2946 57.384 62.1826 57.32C63.3026 57.384 64.5186 57.032 65.5746 56.68C66.6306 56.36 67.5266 55.784 68.4226 55.112C69.3186 54.408 70.0226 53.736 70.5346 52.68C71.0146 51.656 71.2386 50.536 71.4306 49.416C71.5906 48.488 71.6546 47.656 71.5266 46.728C71.4306 45.8 71.2706 44.808 70.9826 43.912ZM67.3026 49.576C67.0146 50.568 66.3106 51.56 65.4786 52.2C65.0946 52.52 64.6786 52.84 64.1986 52.968C63.6866 53.096 63.1106 53.128 62.5986 53.096C61.2546 53.096 60.0386 52.808 58.9506 51.976C57.9906 51.24 57.4786 49.896 57.2546 48.744C56.7426 46.408 57.9266 44.296 59.8786 43.016C61.7666 41.832 64.1666 42.248 65.8306 43.592C66.6306 44.264 67.0786 45.384 67.3346 46.344C67.6226 47.432 67.6226 48.456 67.3026 49.576ZM90.3831 42.76C90.4151 41.928 90.4791 41.096 90.5431 40.264C90.6071 39.528 90.4471 38.824 89.7431 38.44C89.1351 38.152 88.1751 38.248 87.5671 38.408C86.7991 38.632 86.4151 39.208 86.3511 39.976C86.1591 41.64 86.5431 43.304 86.5431 45V45.064C86.5751 45.064 86.5111 47.016 86.4791 47.208C86.4471 47.592 86.5751 49 86.1271 49.16C85.6471 49.352 84.9751 48.04 84.7831 47.752C84.2711 47.048 83.6951 46.376 83.2471 45.64C82.8311 44.968 82.6391 44.2 82.1911 43.56C81.6791 42.856 81.1031 42.248 80.6871 41.512C80.2711 40.808 79.9511 40.072 79.5671 39.368C79.1511 38.632 78.5111 38.472 77.7111 38.44C76.9751 38.408 75.9511 38.248 75.3111 38.696C74.6071 39.176 74.6391 40.04 74.5751 40.808C74.5431 41.608 74.6391 42.44 74.6711 43.24C74.7031 45 74.6391 46.76 74.7351 48.52C74.7991 50.216 74.6711 51.88 74.6711 53.544C74.6711 54.344 74.5111 55.4 74.8631 56.168C75.1831 56.904 76.0471 57 76.7831 57.032C77.5191 57.096 78.2871 57.064 78.7031 56.36C79.0871 55.752 79.0231 54.856 79.0231 54.152C79.0231 53.352 78.8951 52.52 78.8951 51.72C78.8951 50.984 78.9591 50.28 78.9911 49.544C79.0231 48.712 78.9591 47.88 78.9591 47.048C78.9591 46.76 78.9911 46.152 79.4391 46.28C79.7271 46.376 79.9511 46.792 80.0791 47.016C80.5591 47.784 80.9431 48.584 81.4231 49.32C81.9031 50.088 82.4151 50.792 82.8631 51.56C83.3111 52.296 83.6631 53.064 84.1431 53.768L85.7111 55.944C86.2231 56.648 86.7671 57.032 87.6311 57.096C88.3351 57.16 89.2631 57.288 89.8711 56.872C90.6711 56.36 90.5111 55.464 90.4791 54.664C90.4471 53.8 90.5431 53 90.5751 52.168C90.5751 51.432 90.4471 50.664 90.4471 49.928C90.4471 49.096 90.6391 48.296 90.6711 47.496C90.7031 45.896 90.3511 44.328 90.3831 42.76ZM105.257 48.872C105.257 49.608 105.321 50.472 105.097 51.176C104.905 51.784 104.329 52.296 103.817 52.648C103.273 53.064 102.473 53.384 101.769 53.384C100.425 53.416 99.0811 52.488 98.5691 51.272C98.0251 49.992 98.1851 48.616 98.2811 47.304C98.3451 46.536 98.3771 45.736 98.3131 44.968C98.2491 44.2 98.1211 43.496 98.1851 42.728C98.2811 42.056 98.4091 41.416 98.4091 40.744C98.4091 40.072 98.4411 39.304 97.8971 38.856C97.3531 38.376 96.6171 38.472 95.9451 38.504C95.3371 38.568 94.6331 38.632 94.2811 39.208C93.9931 39.688 94.1211 40.392 94.1531 40.936C94.1851 41.672 94.2491 42.408 94.2491 43.144C94.2171 43.88 94.0891 44.616 94.0251 45.352C93.9931 46.024 94.0571 46.696 94.0891 47.368C94.1851 48.84 94.0251 50.376 94.4731 51.784C94.8891 53.128 95.6251 54.536 96.7131 55.432C97.8331 56.36 99.1131 56.808 100.489 57.16C101.897 57.512 103.433 57.576 104.745 56.84C105.897 56.232 107.081 55.56 107.849 54.472C108.745 53.288 109.129 51.944 109.385 50.504C109.673 49.064 109.577 47.624 109.577 46.152C109.545 45.384 109.577 44.584 109.609 43.816C109.609 43.08 109.449 42.376 109.385 41.672C109.353 41.288 109.353 40.872 109.417 40.488C109.449 40.136 109.545 39.784 109.417 39.432C109.193 38.728 108.393 38.536 107.753 38.44C107.113 38.344 106.345 38.152 105.801 38.664C105.289 39.144 105.289 39.88 105.289 40.52C105.353 41.864 105.129 43.208 105.193 44.552C105.257 45.992 105.257 47.432 105.257 48.872ZM120.744 53.864C121.288 54.728 121.96 54.92 122.92 54.984C123.848 55.048 124.584 54.792 125.032 53.928C125.448 53.064 125.736 52.136 125.96 51.208C126.216 50.28 126.44 49.352 126.728 48.424C126.856 48.008 127.016 47.432 127.368 47.144C127.752 46.824 127.944 47.24 128.04 47.592C128.584 49.512 128.776 51.432 129 53.416C129.096 54.312 129.064 55.432 129.48 56.264C129.864 57.096 130.76 57.128 131.56 57.128C131.56 57.224 132.584 57.032 132.68 56.968C133.032 56.808 133.32 56.488 133.416 56.136C133.576 55.688 133.448 55.144 133.384 54.664C133.352 54.216 133.256 53.768 133.16 53.32C132.904 52.328 132.712 51.336 132.552 50.312C132.232 48.392 131.88 46.44 131.624 44.488C131.528 43.528 131.4 42.6 131.24 41.64C131.112 40.872 131.08 39.784 130.6 39.112C130.024 38.312 128.84 38.504 127.944 38.6C126.92 38.696 126.504 39.368 126.12 40.264C125.736 41.128 125.64 42.088 125.288 42.984C125.096 43.432 124.84 43.88 124.616 44.328C124.424 44.776 124.328 45.256 124.232 45.736C124.072 46.632 123.848 47.592 123.496 48.456C123.368 48.776 123.048 49.384 122.6 49.032C122.312 48.808 122.216 48.232 122.12 47.88C121.864 46.92 121.608 45.992 121.288 45.064L120.2 42.408C119.88 41.48 119.624 40.552 119.272 39.624C118.888 38.696 118.152 38.504 117.192 38.568C116.328 38.632 115.368 38.6 114.856 39.432C114.376 40.232 114.152 41.32 114.024 42.248C113.896 43.144 113.896 44.04 113.864 44.936C113.832 45.864 113.704 46.76 113.576 47.656C113.416 48.616 113.128 49.512 113.032 50.472C112.968 51.368 112.872 52.264 112.712 53.192L112.424 54.824C112.328 55.24 112.2 55.688 112.296 56.104C112.488 57.032 113.576 57.096 114.344 57.16C115.336 57.224 115.88 56.776 116.2 55.848C116.552 54.856 116.744 53.832 116.872 52.808C116.968 51.944 116.872 51.048 116.968 50.184C117.032 49.704 117.16 49.224 117.256 48.744C117.32 48.328 117.384 47.816 117.576 47.432C118.088 46.344 118.792 48.072 118.952 48.52C119.24 49.352 119.528 50.216 119.72 51.112C119.912 52.104 120.232 53 120.744 53.864ZM148.104 53.16C146.632 52.904 145.032 53.096 143.56 53.064H141.384C141.064 53.064 140.68 53.064 140.488 52.776C140.296 52.552 140.36 52.168 140.36 51.88C140.36 51.528 140.36 51.176 140.328 50.824C140.296 50.536 140.296 50.184 140.552 49.96C140.808 49.736 141.256 49.8 141.608 49.832C141.96 49.864 142.312 49.864 142.696 49.864H142.728C142.728 49.864 144.808 49.8 145 49.8C145.672 49.8 146.376 49.736 146.824 49.16C147.208 48.648 147.24 47.784 147.08 47.208C146.696 45.672 144.456 45.864 143.272 45.896C142.504 45.896 141.64 46.088 140.904 45.928C140.168 45.768 140.168 44.904 140.168 44.328C140.2 43.752 140.168 42.984 140.808 42.728C141.416 42.472 142.28 42.504 142.952 42.504C144.488 42.504 146.024 42.696 147.56 42.6C148.2 42.536 148.904 42.408 149.192 41.736C149.416 41.16 149.48 40.2 149.352 39.592C148.968 38.056 146.664 38.408 145.512 38.536C143.944 38.76 142.408 38.536 140.84 38.504C140.104 38.504 139.368 38.568 138.632 38.6C138.024 38.664 137.16 38.44 136.616 38.76C135.976 39.112 136.232 40.136 136.232 40.712C136.264 41.512 136.2 42.28 136.2 43.08C136.168 43.88 136.2 44.712 136.104 45.512C136.04 46.248 135.976 46.984 136.04 47.752C136.104 48.52 136.168 49.288 136.168 50.056C136.2 50.824 136.104 51.592 136.072 52.36C136.008 53.128 136.008 53.896 135.976 54.664C135.976 55.336 135.752 56.232 136.072 56.872C136.392 57.512 137.352 57.384 137.96 57.352C138.696 57.352 139.464 57.352 140.2 57.288C141.8 57.192 143.432 57.352 145.032 57.224C145.832 57.16 146.664 57.16 147.464 57.192C148.136 57.224 148.744 57.192 149.16 56.552C149.48 55.976 149.48 55.112 149.448 54.44C149.416 53.672 148.808 53.288 148.104 53.16ZM168.231 42.76C168.263 41.928 168.327 41.096 168.391 40.264C168.455 39.528 168.295 38.824 167.591 38.44C166.983 38.152 166.023 38.248 165.415 38.408C164.647 38.632 164.263 39.208 164.199 39.976C164.007 41.64 164.391 43.304 164.391 45V45.064C164.423 45.064 164.359 47.016 164.327 47.208C164.295 47.592 164.423 49 163.975 49.16C163.495 49.352 162.823 48.04 162.631 47.752C162.119 47.048 161.543 46.376 161.095 45.64C160.679 44.968 160.487 44.2 160.039 43.56C159.527 42.856 158.951 42.248 158.535 41.512C158.119 40.808 157.799 40.072 157.415 39.368C156.999 38.632 156.359 38.472 155.559 38.44C154.823 38.408 153.799 38.248 153.159 38.696C152.455 39.176 152.487 40.04 152.423 40.808C152.391 41.608 152.487 42.44 152.519 43.24C152.551 45 152.487 46.76 152.583 48.52C152.647 50.216 152.519 51.88 152.519 53.544C152.519 54.344 152.359 55.4 152.711 56.168C153.031 56.904 153.895 57 154.631 57.032C155.367 57.096 156.135 57.064 156.551 56.36C156.935 55.752 156.871 54.856 156.871 54.152C156.871 53.352 156.743 52.52 156.743 51.72C156.743 50.984 156.807 50.28 156.839 49.544C156.871 48.712 156.807 47.88 156.807 47.048C156.807 46.76 156.839 46.152 157.287 46.28C157.575 46.376 157.799 46.792 157.927 47.016C158.407 47.784 158.791 48.584 159.271 49.32C159.751 50.088 160.263 50.792 160.711 51.56C161.159 52.296 161.511 53.064 161.991 53.768L163.559 55.944C164.071 56.648 164.615 57.032 165.479 57.096C166.183 57.16 167.111 57.288 167.719 56.872C168.519 56.36 168.359 55.464 168.327 54.664C168.295 53.8 168.391 53 168.423 52.168C168.423 51.432 168.295 50.664 168.295 49.928C168.295 49.096 168.487 48.296 168.519 47.496C168.551 45.896 168.199 44.328 168.231 42.76ZM176.897 38.248C176.897 38.216 174.081 38.344 173.761 38.376C172.769 38.44 171.297 38.248 171.009 39.496C170.785 40.424 170.785 41.864 171.841 42.28C172.321 42.472 172.929 42.44 173.441 42.44C174.017 42.472 174.721 42.28 175.265 42.536C175.649 42.696 175.713 43.112 175.713 43.496V45.192C175.713 46.216 175.553 47.24 175.521 48.264C175.521 49.224 175.585 50.216 175.649 51.176C175.713 52.072 175.745 52.968 175.777 53.896C175.777 54.792 175.361 55.944 176.129 56.648C176.577 57.064 177.121 57.032 177.697 56.968C178.113 56.936 178.561 56.904 178.977 56.744C180.065 56.264 179.809 55.08 179.809 54.12C179.841 53.096 179.969 52.104 179.905 51.048C179.745 49.064 179.969 47.08 179.777 45.064C179.713 44.264 179.585 42.824 180.609 42.536C181.601 42.248 182.721 42.6 183.713 42.28C184.705 41.96 184.833 40.776 184.801 39.88C184.737 38.76 183.841 38.408 182.849 38.312C181.825 38.216 180.865 38.312 179.841 38.376C178.849 38.408 177.857 38.248 176.897 38.248ZM192.715 38.504C192.203 38.376 191.563 38.76 191.275 39.144C190.987 39.56 190.827 40.104 190.667 40.584C190.251 41.672 189.739 42.76 189.291 43.816C188.843 44.904 188.171 45.832 187.787 46.888C187.403 48.008 187.115 49.16 186.635 50.216C186.219 51.176 185.675 52.072 185.259 53.032L184.619 54.504C184.427 54.888 184.139 55.368 184.203 55.816C184.299 56.968 185.675 57 186.507 56.936C187.627 56.904 188.043 56.168 188.555 55.272C188.779 54.856 189.067 54.44 189.579 54.312C189.995 54.216 190.475 54.28 190.923 54.248C191.691 54.216 192.459 54.12 193.259 54.12C194.027 54.12 194.955 54.056 195.691 54.28C196.683 54.6 196.619 55.88 197.227 56.52C197.611 56.936 198.187 57.032 198.699 57.032C199.179 57.032 199.723 57.064 200.171 56.904C201.355 56.488 200.875 55.272 200.523 54.44C199.723 52.584 198.827 50.792 198.315 48.84C198.027 47.784 197.515 46.792 197.035 45.8C196.587 44.776 196.171 43.752 195.691 42.76C195.307 41.864 194.795 41.064 194.507 40.136C194.187 39.176 193.803 38.504 192.715 38.504ZM192.363 50.632C191.915 50.632 191.243 50.76 190.891 50.408C190.507 50.024 190.923 49.224 191.083 48.808C191.275 48.264 191.531 47.752 191.755 47.24C191.947 46.824 192.331 45.768 192.907 46.376C193.099 46.6 193.195 46.984 193.323 47.272L193.707 48.072C193.995 48.616 194.315 49.128 194.475 49.704C194.891 51.048 193.099 50.632 192.363 50.632ZM203.546 41.224V41.288V41.352C203.546 42.408 203.546 43.464 203.514 44.488C203.482 45.608 203.674 46.76 203.674 47.88C203.642 49 203.514 50.12 203.514 51.24C203.546 52.392 203.322 53.576 203.45 54.728C203.546 55.528 203.642 56.68 204.506 57C205.402 57.352 206.49 57.064 207.418 57.032C208.41 57.032 209.37 57.32 210.394 57.16C211.386 57.032 212.314 57.096 213.306 57.192C214.266 57.256 215.642 57.48 216.058 56.36C216.218 55.944 216.154 55.432 216.122 54.984C216.058 54.568 216.058 54.088 215.866 53.704C215.386 52.776 214.298 53 213.466 53.032C212.922 53.032 212.41 52.968 211.866 52.936C211.386 52.904 210.906 52.968 210.426 53.032C209.722 53.096 208.282 53.448 207.77 52.808C207.45 52.392 207.546 51.72 207.578 51.272C207.578 50.792 207.61 50.344 207.642 49.896C207.738 48.84 207.77 47.784 207.674 46.76C207.61 45.8 207.514 44.872 207.514 43.912C207.514 42.888 207.514 41.864 207.61 40.808C207.674 39.944 207.866 38.888 206.842 38.536C206.362 38.376 205.786 38.408 205.306 38.44C204.89 38.472 204.442 38.472 204.058 38.728C203.322 39.272 203.514 40.424 203.546 41.224ZM242.454 51.56C242.422 50.792 242.358 50.024 242.39 49.256C242.422 48.488 242.454 47.784 242.39 47.016C242.262 45.512 242.422 43.976 242.454 42.472V42.312C242.454 42.312 242.422 40.296 242.39 40.104C242.326 39.528 242.134 39.016 241.59 38.728C240.982 38.44 239.894 38.376 239.286 38.632C238.646 38.888 238.422 39.56 238.326 40.168C238.166 40.968 238.102 41.736 238.23 42.568C238.326 43.336 238.39 44.104 238.326 44.872C238.262 45.608 237.814 45.832 237.142 45.832C235.638 45.832 234.102 45.96 232.598 45.832C231.766 45.768 231.382 45.48 231.318 44.648C231.222 43.912 231.222 43.144 231.19 42.376C231.158 41.608 231.19 40.872 231.126 40.104C231.094 39.432 230.806 38.92 230.134 38.76C229.75 38.664 229.366 38.728 229.014 38.696C228.662 38.696 228.31 38.728 228.022 38.856C227.35 39.208 227.318 39.944 227.286 40.616C227.19 42.088 227.158 43.592 227.158 45.096C227.158 45.896 227.094 46.664 227.094 47.464C227.062 48.264 227.19 49.032 227.254 49.832C227.318 50.664 227.254 51.464 227.19 52.264C227.158 53.064 226.966 53.832 227.03 54.6C227.094 55.24 227.158 56.104 227.606 56.616C228.054 57.128 228.79 57.064 229.43 57.064C230.038 57.064 230.742 57.032 231.094 56.424C231.414 55.848 231.254 54.952 231.254 54.28C231.254 53.48 231.318 52.68 231.318 51.88C231.318 51.336 231.126 50.408 231.702 50.056C232.022 49.896 232.47 49.96 232.822 49.96C233.206 49.992 233.59 49.992 233.974 49.992C234.806 49.992 235.606 49.992 236.406 49.96C236.95 49.928 237.942 49.768 238.166 50.408C238.294 50.792 238.23 51.336 238.198 51.72L238.134 52.744C238.102 53.544 238.102 54.28 238.198 55.08C238.262 55.752 238.326 56.52 238.902 57C239.446 57.416 240.342 57.384 240.982 57.32C241.622 57.256 242.166 56.84 242.294 56.2C242.422 55.464 242.23 54.696 242.294 53.928C242.39 53.128 242.454 52.36 242.454 51.56ZM253.438 38.504C252.926 38.376 252.286 38.76 251.998 39.144C251.71 39.56 251.55 40.104 251.39 40.584C250.974 41.672 250.462 42.76 250.014 43.816C249.566 44.904 248.894 45.832 248.51 46.888C248.126 48.008 247.838 49.16 247.358 50.216C246.942 51.176 246.398 52.072 245.982 53.032L245.342 54.504C245.15 54.888 244.862 55.368 244.926 55.816C245.022 56.968 246.398 57 247.23 56.936C248.35 56.904 248.766 56.168 249.278 55.272C249.502 54.856 249.79 54.44 250.302 54.312C250.718 54.216 251.198 54.28 251.646 54.248C252.414 54.216 253.182 54.12 253.982 54.12C254.75 54.12 255.678 54.056 256.414 54.28C257.406 54.6 257.342 55.88 257.95 56.52C258.334 56.936 258.91 57.032 259.422 57.032C259.902 57.032 260.446 57.064 260.894 56.904C262.078 56.488 261.598 55.272 261.246 54.44C260.446 52.584 259.55 50.792 259.038 48.84C258.75 47.784 258.238 46.792 257.758 45.8C257.31 44.776 256.894 43.752 256.414 42.76C256.03 41.864 255.518 41.064 255.23 40.136C254.91 39.176 254.526 38.504 253.438 38.504ZM253.086 50.632C252.638 50.632 251.966 50.76 251.614 50.408C251.23 50.024 251.646 49.224 251.806 48.808C251.998 48.264 252.254 47.752 252.478 47.24C252.67 46.824 253.054 45.768 253.63 46.376C253.822 46.6 253.918 46.984 254.046 47.272L254.43 48.072C254.718 48.616 255.038 49.128 255.198 49.704C255.614 51.048 253.822 50.632 253.086 50.632ZM267.564 38.408C266.476 38.472 264.908 38.184 264.492 39.496C264.172 40.52 264.204 41.768 264.268 42.824L264.428 46.312C264.46 47.4 264.332 48.456 264.236 49.576C264.076 51.4 264.204 53.224 264.332 55.016C264.364 55.592 264.396 56.2 264.844 56.584C265.26 56.968 265.804 56.936 266.316 56.904C267.212 56.904 268.108 57.128 269.004 57.128C269.996 57.128 270.988 57.064 271.948 57C272.908 56.904 273.868 56.904 274.796 56.776C275.82 56.616 276.876 56.2 277.804 55.752C278.732 55.272 279.5 54.344 279.788 53.32C280.012 52.392 280.012 51.528 279.756 50.632C279.596 50.12 279.468 49.576 279.18 49.128C278.924 48.744 278.54 48.456 278.252 48.072C277.836 47.56 277.9 47.112 278.156 46.536C278.38 46.024 278.572 45.512 278.7 44.968C278.924 44.008 278.764 43.048 278.412 42.12C278.06 41.16 277.58 40.424 276.684 39.88C275.82 39.304 274.796 38.856 273.772 38.632C272.748 38.44 271.724 38.472 270.668 38.472C269.644 38.472 268.588 38.408 267.564 38.408ZM272.204 49.672C272.972 49.672 273.708 49.672 274.444 49.928C275.148 50.184 275.916 50.888 275.788 51.688C275.564 53.128 273.964 53.192 272.812 53.288C272.236 53.32 271.66 53.352 271.084 53.352C270.508 53.384 269.804 53.416 269.26 53.256C268.492 53.064 268.492 52.328 268.46 51.688C268.428 51.208 268.428 50.536 268.748 50.152C269.1 49.768 269.836 49.768 270.348 49.736C270.956 49.704 271.564 49.672 272.204 49.672ZM269.58 46.664C269.228 46.664 268.812 46.664 268.556 46.376C268.332 46.088 268.364 45.672 268.364 45.32C268.364 44.648 268.3 43.944 268.364 43.272C268.428 42.664 268.716 42.376 269.324 42.344C269.996 42.28 270.668 42.376 271.372 42.408C272.396 42.472 273.868 42.536 274.316 43.656C274.572 44.264 274.412 44.84 274.092 45.384C273.74 45.992 273.228 46.184 272.556 46.28C272.3 46.312 269.58 46.696 269.58 46.664ZM286.135 57.256C286.775 57.16 287.319 56.808 287.479 56.168C287.671 55.464 287.479 54.664 287.479 53.96C287.479 53.192 287.575 52.456 287.543 51.72C287.479 50.952 287.447 50.184 287.447 49.416C287.447 48.008 287.607 46.6 287.607 45.192V45.128C287.639 45.128 287.383 40.712 287.383 40.36C287.351 39.688 287.255 38.92 286.615 38.568C286.007 38.248 284.983 38.344 284.375 38.536C283.671 38.76 283.319 39.272 283.319 39.976V42.312C283.319 43.784 283.127 45.288 283.287 46.76C283.415 48.232 283.575 49.704 283.479 51.208C283.383 52.648 283.127 54.088 283.255 55.56C283.319 56.168 283.575 56.744 284.119 57.064C284.695 57.384 285.527 57.352 286.135 57.256ZM296.498 38.248C296.498 38.216 293.682 38.344 293.362 38.376C292.37 38.44 290.898 38.248 290.61 39.496C290.386 40.424 290.386 41.864 291.442 42.28C291.922 42.472 292.53 42.44 293.042 42.44C293.618 42.472 294.322 42.28 294.866 42.536C295.25 42.696 295.314 43.112 295.314 43.496V45.192C295.314 46.216 295.154 47.24 295.122 48.264C295.122 49.224 295.186 50.216 295.25 51.176C295.314 52.072 295.346 52.968 295.378 53.896C295.378 54.792 294.962 55.944 295.73 56.648C296.178 57.064 296.722 57.032 297.298 56.968C297.714 56.936 298.162 56.904 298.578 56.744C299.666 56.264 299.41 55.08 299.41 54.12C299.442 53.096 299.57 52.104 299.506 51.048C299.346 49.064 299.57 47.08 299.378 45.064C299.314 44.264 299.186 42.824 300.21 42.536C301.202 42.248 302.322 42.6 303.314 42.28C304.306 41.96 304.434 40.776 304.402 39.88C304.338 38.76 303.442 38.408 302.45 38.312C301.426 38.216 300.466 38.312 299.442 38.376C298.45 38.408 297.458 38.248 296.498 38.248ZM312.967 38.088C312.967 37.992 311.143 38.248 310.951 38.344C310.311 38.536 309.735 38.984 309.223 39.368C308.615 39.816 308.039 40.264 307.559 40.808C307.079 41.352 306.695 41.864 306.535 42.568C306.407 43.208 306.343 43.88 306.471 44.52C306.759 45.896 307.431 47.24 308.679 47.944C309.927 48.68 311.303 49.128 312.647 49.736C313.287 50.024 313.991 50.28 314.599 50.632C315.111 50.888 315.815 51.496 315.815 52.136C315.783 52.776 314.983 53.256 314.471 53.416C313.767 53.672 313.095 53.704 312.359 53.576C311.687 53.48 310.983 53.32 310.375 52.968C309.767 52.648 309.159 52.136 308.455 52.072C307.719 51.976 307.271 52.456 306.887 53C306.567 53.48 306.023 54.184 306.215 54.792C306.439 55.4 307.303 55.848 307.815 56.136C308.423 56.488 309.095 56.84 309.799 57.032C310.439 57.192 311.143 57.256 311.815 57.352C312.519 57.448 313.223 57.576 313.959 57.544C316.583 57.32 319.527 55.56 320.231 52.872C320.423 52.168 320.487 51.528 320.263 50.824C320.071 50.152 319.815 49.512 319.463 48.904C318.791 47.624 317.511 47.016 316.167 46.632C315.495 46.44 314.855 46.184 314.183 45.896C313.511 45.576 312.743 45.352 312.071 45C311.591 44.744 310.983 44.2 310.887 43.624C310.759 42.952 311.399 42.376 311.943 42.12C313.223 41.512 314.695 42.088 315.879 42.728C316.551 43.112 317.159 43.336 317.895 42.92C318.439 42.632 319.015 41.992 319.239 41.416C319.751 40.136 317.959 39.112 316.967 38.76C315.655 38.28 314.343 38.088 312.967 38.088Z" fill="#573353"/>
<path d="M37.9844 590L34.4059 577.76H36.5564L38.9959 586.6L41.4269 577.777L43.5774 577.76L46.0169 586.6L48.4479 577.76H50.5985L47.0284 590H45.0055L42.4979 581.296L40.0074 590H37.9844ZM51.9854 590V577.76H59.8904V579.681H54.0339V582.698H58.8704V584.619H54.0339V588.079H59.8904V590H51.9854ZM70.5096 590.255C69.2856 590.255 68.2372 589.989 67.3646 589.456C66.4919 588.918 65.8204 588.17 65.3501 587.212C64.8854 586.254 64.6531 585.144 64.6531 583.88C64.6531 582.616 64.8854 581.506 65.3501 580.548C65.8204 579.59 66.4919 578.845 67.3646 578.312C68.2372 577.774 69.2856 577.505 70.5096 577.505C71.9206 577.505 73.0964 577.859 74.0371 578.567C74.9777 579.27 75.6379 580.219 76.0176 581.415L73.9521 581.984C73.7141 581.185 73.3089 580.562 72.7366 580.114C72.1642 579.661 71.4219 579.434 70.5096 579.434C69.6879 579.434 69.0022 579.619 68.4526 579.987C67.9086 580.355 67.4977 580.874 67.2201 581.542C66.9481 582.205 66.8092 582.985 66.8036 583.88C66.8036 584.775 66.9396 585.557 67.2116 586.226C67.4892 586.889 67.9029 587.405 68.4526 587.773C69.0022 588.141 69.6879 588.325 70.5096 588.325C71.4219 588.325 72.1642 588.099 72.7366 587.645C73.3089 587.192 73.7141 586.569 73.9521 585.775L76.0176 586.345C75.6379 587.541 74.9777 588.493 74.0371 589.201C73.0964 589.904 71.9206 590.255 70.5096 590.255ZM76.7018 590L80.5608 577.76H83.5613L87.4203 590H85.3123L81.8103 579.018H82.2693L78.8098 590H76.7018ZM78.8523 587.348V585.435H85.2783V587.348H78.8523ZM88.9571 590V577.76H91.0311L96.7091 586.387V577.76H98.7831V590H96.7091L91.0311 581.372V590H88.9571ZM191.126 590V579.681H187.165V577.76H197.135V579.681H193.174V590H191.126ZM203.671 590.255C202.447 590.255 201.398 589.989 200.526 589.456C199.653 588.918 198.982 588.17 198.511 587.212C198.047 586.254 197.814 585.144 197.814 583.88C197.814 582.616 198.047 581.506 198.511 580.548C198.982 579.59 199.653 578.845 200.526 578.312C201.398 577.774 202.447 577.505 203.671 577.505C204.895 577.505 205.943 577.774 206.816 578.312C207.694 578.845 208.366 579.59 208.83 580.548C209.301 581.506 209.536 582.616 209.536 583.88C209.536 585.144 209.301 586.254 208.83 587.212C208.366 588.17 207.694 588.918 206.816 589.456C205.943 589.989 204.895 590.255 203.671 590.255ZM203.671 588.325C204.492 588.331 205.175 588.15 205.719 587.781C206.269 587.413 206.68 586.895 206.952 586.226C207.229 585.557 207.368 584.775 207.368 583.88C207.368 582.985 207.229 582.208 206.952 581.551C206.68 580.888 206.269 580.372 205.719 580.004C205.175 579.636 204.492 579.446 203.671 579.434C202.849 579.429 202.166 579.61 201.622 579.978C201.078 580.347 200.667 580.865 200.39 581.534C200.118 582.203 199.982 582.985 199.982 583.88C199.982 584.775 200.118 585.554 200.39 586.217C200.662 586.875 201.07 587.388 201.614 587.756C202.163 588.124 202.849 588.314 203.671 588.325ZM214.631 590V577.76H219.484C220.312 577.76 220.989 577.927 221.516 578.261C222.049 578.59 222.442 579.012 222.697 579.528C222.958 580.044 223.088 580.576 223.088 581.126C223.088 581.8 222.927 582.373 222.604 582.843C222.287 583.313 221.853 583.631 221.303 583.795V583.37C222.074 583.546 222.658 583.911 223.054 584.466C223.457 585.022 223.658 585.654 223.658 586.362C223.658 587.087 223.519 587.722 223.241 588.266C222.964 588.81 222.55 589.235 222 589.541C221.456 589.847 220.782 590 219.977 590H214.631ZM216.705 588.07H219.722C220.079 588.07 220.4 588 220.683 587.858C220.966 587.711 221.187 587.507 221.346 587.246C221.51 586.98 221.592 586.665 221.592 586.302C221.592 585.974 221.522 585.679 221.38 585.418C221.238 585.158 221.031 584.951 220.759 584.798C220.487 584.639 220.162 584.56 219.782 584.56H216.705V588.07ZM216.705 582.647H219.459C219.754 582.647 220.017 582.591 220.249 582.477C220.482 582.364 220.666 582.197 220.802 581.976C220.938 581.755 221.006 581.483 221.006 581.16C221.006 580.735 220.87 580.381 220.598 580.097C220.326 579.814 219.946 579.672 219.459 579.672H216.705V582.647ZM225.356 590V577.76H233.261V579.681H227.404V582.698H232.241V584.619H227.404V588.079H233.261V590H225.356ZM237.853 590L241.712 577.76H244.713L248.572 590H246.464L242.962 579.018H243.421L239.961 590H237.853ZM240.004 587.348V585.435H246.43V587.348H240.004ZM253.512 590V577.76H258.365C259.193 577.76 259.87 577.927 260.397 578.261C260.929 578.59 261.323 579.012 261.578 579.528C261.839 580.044 261.969 580.576 261.969 581.126C261.969 581.8 261.808 582.373 261.485 582.843C261.167 583.313 260.734 583.631 260.184 583.795V583.37C260.955 583.546 261.539 583.911 261.935 584.466C262.338 585.022 262.539 585.654 262.539 586.362C262.539 587.087 262.4 587.722 262.122 588.266C261.845 588.81 261.431 589.235 260.881 589.541C260.337 589.847 259.663 590 258.858 590H253.512ZM255.586 588.07H258.603C258.96 588.07 259.28 588 259.564 587.858C259.847 587.711 260.068 587.507 260.227 587.246C260.391 586.98 260.473 586.665 260.473 586.302C260.473 585.974 260.402 585.679 260.261 585.418C260.119 585.158 259.912 584.951 259.64 584.798C259.368 584.639 259.042 584.56 258.663 584.56H255.586V588.07ZM255.586 582.647H258.34C258.634 582.647 258.898 582.591 259.13 582.477C259.363 582.364 259.547 582.197 259.683 581.976C259.819 581.755 259.887 581.483 259.887 581.16C259.887 580.735 259.751 580.381 259.479 580.097C259.207 579.814 258.827 579.672 258.34 579.672H255.586V582.647ZM264.236 590V577.76H272.141V579.681H266.285V582.698H271.121V584.619H266.285V588.079H272.141V590H264.236ZM277.122 590V579.681H273.161V577.76H283.131V579.681H279.17V590H277.122ZM288.444 590V579.681H284.483V577.76H294.453V579.681H290.492V590H288.444ZM295.813 590V577.76H303.718V579.681H297.861V582.698H302.698V584.619H297.861V588.079H303.718V590H295.813ZM305.757 590V577.76H310.814C310.933 577.76 311.086 577.766 311.273 577.777C311.46 577.783 311.633 577.8 311.792 577.828C312.5 577.936 313.084 578.171 313.543 578.533C314.008 578.896 314.35 579.355 314.571 579.91C314.798 580.46 314.911 581.072 314.911 581.746C314.911 582.744 314.659 583.602 314.155 584.322C313.651 585.036 312.877 585.478 311.834 585.648L310.959 585.724H307.805V590H305.757ZM312.786 590L310.372 585.019L312.455 584.56L315.107 590H312.786ZM307.805 583.812H310.729C310.843 583.812 310.97 583.806 311.112 583.795C311.254 583.784 311.384 583.761 311.503 583.727C311.843 583.642 312.109 583.492 312.302 583.276C312.5 583.061 312.639 582.817 312.718 582.545C312.803 582.273 312.846 582.007 312.846 581.746C312.846 581.486 312.803 581.219 312.718 580.947C312.639 580.67 312.5 580.423 312.302 580.208C312.109 579.993 311.843 579.842 311.503 579.757C311.384 579.723 311.254 579.704 311.112 579.698C310.97 579.687 310.843 579.681 310.729 579.681H307.805V583.812ZM84.1657 614L80.3067 601.76H82.4147L85.6447 612.011L88.9172 601.76H91.0252L87.1662 614H84.1657ZM92.3023 614V601.76H100.207V603.681H94.3508V606.698H99.1873V608.619H94.3508V612.079H100.207V614H92.3023ZM102.247 614V601.76H107.304C107.423 601.76 107.576 601.766 107.763 601.777C107.95 601.783 108.123 601.8 108.282 601.828C108.99 601.936 109.574 602.171 110.033 602.533C110.497 602.896 110.84 603.355 111.061 603.91C111.288 604.46 111.401 605.072 111.401 605.746C111.401 606.744 111.149 607.602 110.645 608.322C110.14 609.036 109.367 609.478 108.324 609.648L107.449 609.724H104.295V614H102.247ZM109.276 614L106.862 609.019L108.945 608.56L111.597 614H109.276ZM104.295 607.812H107.219C107.332 607.812 107.46 607.806 107.602 607.795C107.743 607.784 107.874 607.761 107.993 607.727C108.333 607.642 108.599 607.492 108.792 607.276C108.99 607.061 109.129 606.817 109.208 606.545C109.293 606.273 109.336 606.007 109.336 605.746C109.336 605.486 109.293 605.219 109.208 604.947C109.129 604.67 108.99 604.423 108.792 604.208C108.599 603.993 108.333 603.842 107.993 603.757C107.874 603.723 107.743 603.704 107.602 603.698C107.46 603.687 107.332 603.681 107.219 603.681H104.295V607.812ZM118 614.255C117.104 614.255 116.297 614.099 115.577 613.787C114.863 613.476 114.274 613.031 113.809 612.453C113.35 611.869 113.058 611.178 112.934 610.379L115.059 610.056C115.24 610.781 115.611 611.342 116.172 611.739C116.739 612.136 117.391 612.334 118.127 612.334C118.564 612.334 118.974 612.266 119.36 612.13C119.745 611.994 120.057 611.796 120.295 611.535C120.538 611.274 120.66 610.954 120.66 610.574C120.66 610.404 120.632 610.249 120.575 610.107C120.519 609.96 120.434 609.829 120.32 609.716C120.213 609.603 120.071 609.501 119.895 609.41C119.725 609.314 119.527 609.231 119.3 609.163L116.138 608.228C115.866 608.149 115.572 608.044 115.254 607.914C114.943 607.778 114.645 607.594 114.362 607.361C114.084 607.123 113.855 606.823 113.673 606.46C113.498 606.092 113.41 605.639 113.41 605.1C113.41 604.313 113.608 603.653 114.005 603.12C114.407 602.582 114.945 602.179 115.62 601.913C116.3 601.647 117.053 601.516 117.881 601.522C118.719 601.528 119.467 601.672 120.125 601.955C120.782 602.233 121.332 602.638 121.774 603.171C122.216 603.704 122.527 604.347 122.709 605.1L120.507 605.483C120.417 605.052 120.241 604.687 119.98 604.386C119.725 604.08 119.411 603.848 119.037 603.689C118.668 603.531 118.275 603.446 117.855 603.434C117.447 603.429 117.068 603.491 116.716 603.621C116.371 603.746 116.09 603.927 115.875 604.165C115.665 604.403 115.56 604.681 115.56 604.998C115.56 605.299 115.651 605.545 115.832 605.738C116.014 605.925 116.237 606.075 116.504 606.188C116.776 606.296 117.051 606.387 117.328 606.46L119.521 607.072C119.822 607.152 120.159 607.259 120.533 607.395C120.907 607.531 121.267 607.721 121.612 607.965C121.958 608.209 122.241 608.529 122.462 608.925C122.689 609.322 122.802 609.826 122.802 610.438C122.802 611.073 122.669 611.631 122.403 612.113C122.142 612.589 121.788 612.986 121.34 613.303C120.893 613.62 120.38 613.858 119.802 614.017C119.229 614.176 118.629 614.255 118 614.255ZM124.812 614V601.76H126.861V614H124.812ZM134.583 614.255C133.359 614.255 132.311 613.989 131.438 613.456C130.566 612.918 129.894 612.17 129.424 611.212C128.959 610.254 128.727 609.144 128.727 607.88C128.727 606.616 128.959 605.506 129.424 604.548C129.894 603.59 130.566 602.845 131.438 602.312C132.311 601.774 133.359 601.505 134.583 601.505C135.807 601.505 136.856 601.774 137.728 602.312C138.607 602.845 139.278 603.59 139.743 604.548C140.213 605.506 140.448 606.616 140.448 607.88C140.448 609.144 140.213 610.254 139.743 611.212C139.278 612.17 138.607 612.918 137.728 613.456C136.856 613.989 135.807 614.255 134.583 614.255ZM134.583 612.325C135.405 612.331 136.088 612.15 136.632 611.781C137.181 611.413 137.592 610.895 137.864 610.226C138.142 609.557 138.281 608.775 138.281 607.88C138.281 606.985 138.142 606.208 137.864 605.551C137.592 604.888 137.181 604.372 136.632 604.004C136.088 603.636 135.405 603.446 134.583 603.434C133.762 603.429 133.079 603.61 132.535 603.978C131.991 604.347 131.58 604.865 131.302 605.534C131.03 606.203 130.894 606.985 130.894 607.88C130.894 608.775 131.03 609.554 131.302 610.217C131.574 610.875 131.982 611.388 132.526 611.756C133.076 612.124 133.762 612.314 134.583 612.325ZM142.14 614V601.76H144.214L149.892 610.387V601.76H151.966V614H149.892L144.214 605.372V614H142.14ZM162.922 614.255C161.698 614.255 160.65 613.989 159.777 613.456C158.904 612.918 158.233 612.17 157.763 611.212C157.298 610.254 157.066 609.144 157.066 607.88C157.066 606.616 157.298 605.506 157.763 604.548C158.233 603.59 158.904 602.845 159.777 602.312C160.65 601.774 161.698 601.505 162.922 601.505C164.146 601.505 165.194 601.774 166.067 602.312C166.945 602.845 167.617 603.59 168.082 604.548C168.552 605.506 168.787 606.616 168.787 607.88C168.787 609.144 168.552 610.254 168.082 611.212C167.617 612.17 166.945 612.918 166.067 613.456C165.194 613.989 164.146 614.255 162.922 614.255ZM162.922 612.325C163.744 612.331 164.427 612.15 164.971 611.781C165.52 611.413 165.931 610.895 166.203 610.226C166.481 609.557 166.62 608.775 166.62 607.88C166.62 606.985 166.481 606.208 166.203 605.551C165.931 604.888 165.52 604.372 164.971 604.004C164.427 603.636 163.744 603.446 162.922 603.434C162.1 603.429 161.418 603.61 160.874 603.978C160.33 604.347 159.919 604.865 159.641 605.534C159.369 606.203 159.233 606.985 159.233 607.88C159.233 608.775 159.369 609.554 159.641 610.217C159.913 610.875 160.321 611.388 160.865 611.756C161.415 612.124 162.1 612.314 162.922 612.325ZM170.479 614V601.76H177.849V603.808H172.528V606.86H176.829V608.9H172.528V614H170.479Z" fill="#573353"/>
<path d="M104.563 590V577.76H106.611V582.911H112.408V577.76H114.448V590H112.408V584.832H106.611V590H104.563ZM116.831 590V577.76H124.736V579.681H118.88V582.698H123.716V584.619H118.88V588.079H124.736V590H116.831ZM126.945 590V577.76H128.994V588.079H134.4V590H126.945ZM135.84 590V577.76H140.897C141.016 577.76 141.169 577.766 141.356 577.777C141.543 577.783 141.716 577.8 141.875 577.828C142.583 577.936 143.167 578.171 143.626 578.533C144.091 578.896 144.433 579.355 144.654 579.91C144.881 580.46 144.994 581.072 144.994 581.746C144.994 582.415 144.881 583.027 144.654 583.582C144.428 584.132 144.082 584.588 143.617 584.951C143.158 585.314 142.578 585.549 141.875 585.656C141.716 585.679 141.541 585.696 141.348 585.708C141.161 585.719 141.011 585.724 140.897 585.724H137.888V590H135.84ZM137.888 583.812H140.812C140.926 583.812 141.053 583.806 141.195 583.795C141.337 583.784 141.467 583.761 141.586 583.727C141.926 583.642 142.192 583.492 142.385 583.276C142.583 583.061 142.722 582.817 142.801 582.545C142.886 582.273 142.929 582.007 142.929 581.746C142.929 581.486 142.886 581.219 142.801 580.947C142.722 580.67 142.583 580.423 142.385 580.208C142.192 579.993 141.926 579.842 141.586 579.757C141.467 579.723 141.337 579.704 141.195 579.698C141.053 579.687 140.926 579.681 140.812 579.681H137.888V583.812ZM153.076 590V584.985L148.911 577.76H151.299L154.113 582.639L156.918 577.76H159.306L155.15 584.985V590H153.076ZM164.989 590.255C163.765 590.255 162.717 589.989 161.844 589.456C160.971 588.918 160.3 588.17 159.83 587.212C159.365 586.254 159.133 585.144 159.133 583.88C159.133 582.616 159.365 581.506 159.83 580.548C160.3 579.59 160.971 578.845 161.844 578.312C162.717 577.774 163.765 577.505 164.989 577.505C166.213 577.505 167.261 577.774 168.134 578.312C169.012 578.845 169.684 579.59 170.149 580.548C170.619 581.506 170.854 582.616 170.854 583.88C170.854 585.144 170.619 586.254 170.149 587.212C169.684 588.17 169.012 588.918 168.134 589.456C167.261 589.989 166.213 590.255 164.989 590.255ZM164.989 588.325C165.811 588.331 166.494 588.15 167.038 587.781C167.587 587.413 167.998 586.895 168.27 586.226C168.548 585.557 168.687 584.775 168.687 583.88C168.687 582.985 168.548 582.208 168.27 581.551C167.998 580.888 167.587 580.372 167.038 580.004C166.494 579.636 165.811 579.446 164.989 579.434C164.167 579.429 163.485 579.61 162.941 579.978C162.397 580.347 161.986 580.865 161.708 581.534C161.436 582.203 161.3 582.985 161.3 583.88C161.3 584.775 161.436 585.554 161.708 586.217C161.98 586.875 162.388 587.388 162.932 587.756C163.482 588.124 164.167 588.314 164.989 588.325ZM177.476 590.255C176.501 590.255 175.643 590.057 174.9 589.66C174.164 589.263 173.586 588.705 173.166 587.985C172.753 587.266 172.546 586.421 172.546 585.452V577.777L174.62 577.76V585.401C174.62 585.86 174.696 586.271 174.849 586.634C175.008 586.997 175.221 587.305 175.487 587.56C175.753 587.81 176.059 588 176.405 588.13C176.751 588.26 177.108 588.325 177.476 588.325C177.856 588.325 178.215 588.26 178.555 588.13C178.901 587.994 179.207 587.801 179.473 587.552C179.74 587.297 179.949 586.988 180.102 586.625C180.255 586.263 180.332 585.855 180.332 585.401V577.76H182.406V585.452C182.406 586.421 182.196 587.266 181.777 587.985C181.363 588.705 180.785 589.263 180.043 589.66C179.306 590.057 178.451 590.255 177.476 590.255ZM185.756 614V608.985L181.591 601.76H183.979L186.793 606.639L189.598 601.76H191.986L187.83 608.985V614H185.756ZM197.669 614.255C196.445 614.255 195.397 613.989 194.524 613.456C193.652 612.918 192.98 612.17 192.51 611.212C192.045 610.254 191.813 609.144 191.813 607.88C191.813 606.616 192.045 605.506 192.51 604.548C192.98 603.59 193.652 602.845 194.524 602.312C195.397 601.774 196.445 601.505 197.669 601.505C198.893 601.505 199.942 601.774 200.814 602.312C201.693 602.845 202.364 603.59 202.829 604.548C203.299 605.506 203.534 606.616 203.534 607.88C203.534 609.144 203.299 610.254 202.829 611.212C202.364 612.17 201.693 612.918 200.814 613.456C199.942 613.989 198.893 614.255 197.669 614.255ZM197.669 612.325C198.491 612.331 199.174 612.15 199.718 611.781C200.267 611.413 200.678 610.895 200.95 610.226C201.228 609.557 201.367 608.775 201.367 607.88C201.367 606.985 201.228 606.208 200.95 605.551C200.678 604.888 200.267 604.372 199.718 604.004C199.174 603.636 198.491 603.446 197.669 603.434C196.848 603.429 196.165 603.61 195.621 603.978C195.077 604.347 194.666 604.865 194.388 605.534C194.116 606.203 193.98 606.985 193.98 607.88C193.98 608.775 194.116 609.554 194.388 610.217C194.66 610.875 195.068 611.388 195.612 611.756C196.162 612.124 196.848 612.314 197.669 612.325ZM210.156 614.255C209.181 614.255 208.323 614.057 207.581 613.66C206.844 613.263 206.266 612.705 205.847 611.985C205.433 611.266 205.226 610.421 205.226 609.452V601.777L207.3 601.76V609.401C207.3 609.86 207.377 610.271 207.53 610.634C207.688 610.997 207.901 611.305 208.167 611.56C208.433 611.81 208.739 612 209.085 612.13C209.431 612.26 209.788 612.325 210.156 612.325C210.536 612.325 210.896 612.26 211.236 612.13C211.581 611.994 211.887 611.801 212.154 611.552C212.42 611.297 212.63 610.988 212.783 610.625C212.936 610.263 213.012 609.855 213.012 609.401V601.76H215.086V609.452C215.086 610.421 214.876 611.266 214.457 611.985C214.043 612.705 213.465 613.263 212.723 613.66C211.986 614.057 211.131 614.255 210.156 614.255ZM217.461 614V601.76H222.519C222.638 601.76 222.791 601.766 222.978 601.777C223.165 601.783 223.338 601.8 223.496 601.828C224.205 601.936 224.788 602.171 225.247 602.533C225.712 602.896 226.055 603.355 226.276 603.91C226.503 604.46 226.616 605.072 226.616 605.746C226.616 606.744 226.364 607.602 225.859 608.322C225.355 609.036 224.582 609.478 223.539 609.648L222.663 609.724H219.51V614H217.461ZM224.491 614L222.077 609.019L224.159 608.56L226.811 614H224.491ZM219.51 607.812H222.434C222.547 607.812 222.675 607.806 222.816 607.795C222.958 607.784 223.088 607.761 223.207 607.727C223.547 607.642 223.814 607.492 224.006 607.276C224.205 607.061 224.344 606.817 224.423 606.545C224.508 606.273 224.55 606.007 224.55 605.746C224.55 605.486 224.508 605.219 224.423 604.947C224.344 604.67 224.205 604.423 224.006 604.208C223.814 603.993 223.547 603.842 223.207 603.757C223.088 603.723 222.958 603.704 222.816 603.698C222.675 603.687 222.547 603.681 222.434 603.681H219.51V607.812ZM233.215 614.255C232.319 614.255 231.512 614.099 230.792 613.787C230.078 613.476 229.489 613.031 229.024 612.453C228.565 611.869 228.273 611.178 228.149 610.379L230.274 610.056C230.455 610.781 230.826 611.342 231.387 611.739C231.954 612.136 232.605 612.334 233.342 612.334C233.778 612.334 234.189 612.266 234.575 612.13C234.96 611.994 235.272 611.796 235.51 611.535C235.753 611.274 235.875 610.954 235.875 610.574C235.875 610.404 235.847 610.249 235.79 610.107C235.733 609.96 235.648 609.829 235.535 609.716C235.427 609.603 235.286 609.501 235.11 609.41C234.94 609.314 234.742 609.231 234.515 609.163L231.353 608.228C231.081 608.149 230.786 608.044 230.469 607.914C230.157 607.778 229.86 607.594 229.577 607.361C229.299 607.123 229.069 606.823 228.888 606.46C228.712 606.092 228.625 605.639 228.625 605.1C228.625 604.313 228.823 603.653 229.22 603.12C229.622 602.582 230.16 602.179 230.835 601.913C231.515 601.647 232.268 601.516 233.096 601.522C233.934 601.528 234.682 601.672 235.34 601.955C235.997 602.233 236.547 602.638 236.989 603.171C237.431 603.704 237.742 604.347 237.924 605.1L235.722 605.483C235.631 605.052 235.456 604.687 235.195 604.386C234.94 604.08 234.626 603.848 234.252 603.689C233.883 603.531 233.489 603.446 233.07 603.434C232.662 603.429 232.282 603.491 231.931 603.621C231.585 603.746 231.305 603.927 231.09 604.165C230.88 604.403 230.775 604.681 230.775 604.998C230.775 605.299 230.866 605.545 231.047 605.738C231.228 605.925 231.452 606.075 231.719 606.188C231.991 606.296 232.265 606.387 232.543 606.46L234.736 607.072C235.036 607.152 235.374 607.259 235.748 607.395C236.122 607.531 236.481 607.721 236.827 607.965C237.173 608.209 237.456 608.529 237.677 608.925C237.904 609.322 238.017 609.826 238.017 610.438C238.017 611.073 237.884 611.631 237.618 612.113C237.357 612.589 237.003 612.986 236.555 613.303C236.107 613.62 235.595 613.858 235.017 614.017C234.444 614.176 233.844 614.255 233.215 614.255ZM239.857 614V601.76H247.762V603.681H241.905V606.698H246.742V608.619H241.905V612.079H247.762V614H239.857ZM249.971 614V601.76H252.02V612.079H257.426V614H249.971ZM258.866 614V601.76H266.235V603.808H260.914V606.86H265.215V608.9H260.914V614H258.866ZM266.145 614V611.9H268.245V614H266.145Z" fill="#FC9D45"/>
</svg>
