<svg width="98" height="95" viewBox="0 0 98 95" fill="none" xmlns="http://www.w3.org/2000/svg">
<path d="M29.2962 8.60411C26.131 13.9534 31.0209 15.9716 38.1136 18.9213C45.5696 21.9876 50.6273 22.4403 53.8225 16.2071C56.4769 11.0288 50.7787 8.24816 45.342 6.33336C36.7565 3.4066 32.4614 3.25487 29.2962 8.60411ZM43.1731 9.60141C46.1157 10.6029 49.5559 11.5969 48.0092 14.3389C46.4266 17.0135 43.929 16.6576 39.9587 15.0466C36.1096 13.4744 32.8493 12.8176 34.5302 9.95115C36.2111 7.08473 38.6201 8.02648 43.1731 9.60141Z" fill="url(#paint0_linear_731_5204)"/>
<path d="M39.9927 19.246L22.24 49.338C21.7124 50.2296 20.3995 50.5895 19.2735 50.1718L18.7531 49.9487C17.6271 49.531 17.1726 48.4913 17.7002 47.5998L35.797 16.8365C36.2262 16.1367 37.1267 15.7559 38.0728 15.8366C38.9337 15.9457 39.8402 16.5163 40.1209 18.1702C40.2157 18.5358 40.1042 18.8909 39.9927 19.246Z" fill="url(#paint1_linear_731_5204)"/>
<path d="M21.6549 47.8656L28.2044 50.3614C28.967 50.6624 29.9395 50.4164 30.2836 49.7451C30.5785 49.1698 30.3039 48.4672 29.5412 48.1663L28.1371 47.6033L30.5913 43.3659C31.0205 42.6661 30.638 41.7613 29.8034 41.3256L26.3308 39.7069L21.6549 47.8656Z" fill="url(#paint2_linear_731_5204)"/>
<path d="M70.1838 71.033C69.6905 75.9864 63.3511 83.0041 55.4368 82.0192C47.5226 81.0342 46.3316 73.1528 47.4858 69.0073C48.9152 63.7858 53.6756 58.6653 61.137 59.5777C68.5293 60.5387 70.677 66.0797 70.1838 71.033ZM60.8261 62.9326C56.3508 62.3645 52.7713 66.5543 51.8846 69.7273C51.1122 72.2317 51.6251 77.7496 56.3613 78.3296C61.0976 78.9096 65.321 73.9718 65.6092 70.9269C65.8974 67.882 65.3704 63.452 60.8261 62.9326Z" fill="url(#paint3_linear_731_5204)"/>
<path d="M47.9671 66.9044L9.32228 60.0525C8.22449 59.8466 7.13526 60.4187 6.87529 61.2879L6.71457 61.6952C6.4546 62.5645 7.10804 63.4756 8.27485 63.6328L47.7565 70.6785C48.6624 70.8237 49.5984 70.5557 49.9738 69.8991C50.3416 69.3458 50.3406 68.4646 48.9193 67.3109C48.7349 67.1469 48.2896 66.971 47.9671 66.9044Z" fill="url(#paint4_linear_731_5204)"/>
<path d="M10.283 61.2366L12.0715 54.684L14.7815 55.2229L14.2927 57.4293L21.3939 58.7916L22.0972 56.3359L24.8686 56.9295L22.7652 63.3122L10.283 61.2366Z" fill="url(#paint5_linear_731_5204)"/>
<path d="M43.6941 56.7619C43.6941 56.7619 42.3058 57.4178 41.199 56.6838C40.0922 55.9499 41.2038 55.1471 41.2038 55.1471L48.719 45.7946C48.719 45.7946 48.0748 44.9152 47.7035 45.4267C47.3323 45.9383 40.3731 54.7796 40.3731 54.7796C40.3731 54.7796 39.0799 54.5575 39.0835 53.3866C38.9947 52.2155 53.377 33.9484 53.377 33.9484L60.0215 37.1081L43.6941 56.7619Z" fill="url(#paint6_linear_731_5204)"/>
<path d="M68.4322 36.905L74.2797 28.8665C75.5793 27.0395 74.847 24.7695 72.6323 23.6675L62.9431 18.8187C60.6362 17.6433 57.6769 18.223 56.1926 19.9764L49.7908 27.9406C48.3063 29.7672 49.0382 32.1836 51.3451 33.359L61.681 38.2823C63.9879 39.4577 67.1323 38.8052 68.4322 36.905ZM67.1546 31.6335L56.9118 26.4909C56.2657 26.1969 56.083 25.5379 56.5467 25.0266L58.4021 22.7616C58.7734 22.25 59.6054 22.1785 60.2515 22.4725L70.3095 27.6147C70.8631 27.9085 71.0461 28.4943 70.7673 29.006L69.0966 31.2714C68.6329 31.7827 67.8007 31.9275 67.1546 31.6335Z" fill="url(#paint7_linear_731_5204)"/>
<path d="M77.7669 27.3475C82.5855 30.2552 89.5024 29.4505 93.1746 25.6351C96.8469 21.8197 95.8306 16.3428 91.012 13.4351C86.1934 10.5274 79.2765 11.3321 75.6043 15.1475C71.932 18.9629 72.9483 24.4398 77.7669 27.3475ZM88.5302 16.0726C91.5307 17.8874 92.1357 21.2942 89.9326 23.69C87.6406 26.0658 83.3381 26.5448 80.3124 24.8004C77.3119 22.9856 76.7069 19.5788 78.91 17.183C81.1383 14.7168 85.4408 14.2378 88.5302 16.0726Z" fill="url(#paint8_linear_731_5204)"/>
<path d="M83.4294 27.6303L68.8048 58.8042C68.3376 59.8403 66.8154 60.3352 65.5321 59.8949C64.3377 59.4745 63.7512 58.43 64.2184 57.3939L78.7422 26.5016L83.4294 27.6303Z" fill="url(#paint9_linear_731_5204)"/>
<path d="M72.505 45.7911L78.997 47.7815C80.1277 48.1115 80.7142 49.156 80.2086 50.0313L79.3246 51.9626C79.0088 52.5763 78.2098 52.9294 77.4348 52.6792L75.3261 52.1296L74.8085 53.3065L76.8031 53.9066C77.5781 54.1567 77.9988 54.8597 77.6829 55.4734L76.5587 57.8072C76.2428 58.4208 75.4439 58.7739 74.6689 58.5238L67.9233 56.7046L69.739 51.6356L70.0947 51.7155L71.0927 49.7337L72.505 45.7911Z" fill="url(#paint10_linear_731_5204)"/>
<defs>
<linearGradient id="paint0_linear_731_5204" x1="19.4388" y1="41.1038" x2="35.481" y2="8.0291" gradientUnits="userSpaceOnUse">
<stop stop-color="#F3704A"/>
<stop offset="1" stop-color="#F7915D"/>
</linearGradient>
<linearGradient id="paint1_linear_731_5204" x1="16.1121" y1="49.7296" x2="37.788" y2="5.03981" gradientUnits="userSpaceOnUse">
<stop stop-color="#F3704A"/>
<stop offset="1" stop-color="#F7915D"/>
</linearGradient>
<linearGradient id="paint2_linear_731_5204" x1="22.2268" y1="52.6858" x2="43.8557" y2="8.09307" gradientUnits="userSpaceOnUse">
<stop stop-color="#F3704A"/>
<stop offset="1" stop-color="#F7915D"/>
</linearGradient>
<linearGradient id="paint3_linear_731_5204" x1="64.0257" y1="70.3344" x2="-11.5139" y2="79.9785" gradientUnits="userSpaceOnUse">
<stop stop-color="#8B1D56"/>
<stop offset="1" stop-color="#C84799"/>
</linearGradient>
<linearGradient id="paint4_linear_731_5204" x1="63.3433" y1="72.8999" x2="-5.21703" y2="49.3197" gradientUnits="userSpaceOnUse">
<stop stop-color="#8B1D56"/>
<stop offset="1" stop-color="#C84799"/>
</linearGradient>
<linearGradient id="paint5_linear_731_5204" x1="64.6098" y1="69.2166" x2="-3.95045" y2="45.6365" gradientUnits="userSpaceOnUse">
<stop stop-color="#8B1D56"/>
<stop offset="1" stop-color="#C84799"/>
</linearGradient>
<linearGradient id="paint6_linear_731_5204" x1="71.8815" y1="21.8328" x2="45.6252" y2="63.9497" gradientUnits="userSpaceOnUse">
<stop stop-color="#FDC07C"/>
<stop offset="0.9946" stop-color="#F1AD66"/>
</linearGradient>
<linearGradient id="paint7_linear_731_5204" x1="70.0581" y1="20.6962" x2="43.8018" y2="62.8133" gradientUnits="userSpaceOnUse">
<stop stop-color="#FDC07C"/>
<stop offset="0.9946" stop-color="#F1AD66"/>
</linearGradient>
<linearGradient id="paint8_linear_731_5204" x1="115.065" y1="-49.9377" x2="126.606" y2="-92.1302" gradientUnits="userSpaceOnUse">
<stop stop-color="#292A69"/>
<stop offset="0.9946" stop-color="#1C194E"/>
</linearGradient>
<linearGradient id="paint9_linear_731_5204" x1="119.73" y1="-167.497" x2="125.577" y2="-210.197" gradientUnits="userSpaceOnUse">
<stop stop-color="#292A69"/>
<stop offset="0.9946" stop-color="#1C194E"/>
</linearGradient>
<linearGradient id="paint10_linear_731_5204" x1="121.636" y1="-164.34" x2="127.407" y2="-206.477" gradientUnits="userSpaceOnUse">
<stop stop-color="#292A69"/>
<stop offset="0.9946" stop-color="#1C194E"/>
</linearGradient>
</defs>
</svg>
