<svg width="54" height="54" viewBox="0 0 54 54" fill="none" xmlns="http://www.w3.org/2000/svg">
<circle opacity="0.2" cx="27" cy="27" r="19" fill="#973456"/>
<path d="M34.6566 18.3796C29.395 17.128 23.0564 19.0795 20.8103 22.6463C19.6395 24.5053 19.7406 26.5935 21.0934 28.5288C21.2436 28.7899 21.4227 29.0316 21.6274 29.2489C22.5585 26.9598 24.1979 25.0618 26.2842 23.8574C26.4945 23.7285 26.7654 23.8019 26.889 24.0213C27.0126 24.2406 26.9424 24.523 26.7319 24.652C24.6455 25.9307 23.2554 27.4423 22.398 29.7292C21.7977 31.25 21.3953 32.8476 21.2015 34.4795C21.1732 34.7309 21.3421 34.9601 21.5824 34.9962C21.6113 35 21.6406 35.0011 21.6698 34.9989C21.8798 34.9838 22.0503 34.8165 22.0775 34.599C22.2375 33.1407 22.5833 31.7112 23.1058 30.3485C23.6721 30.6478 24.2753 30.8641 24.8982 30.9911C25.0865 31.0291 25.2739 31.0591 25.4603 31.0814C27.1411 31.3075 28.8377 30.8121 30.1618 29.7092C31.5547 28.1547 31.6882 26.7549 31.8175 25.4013C31.9833 23.6585 32.1555 21.8562 34.8633 19.1623C34.9809 19.0452 35.0273 18.8701 34.9841 18.7066C34.9409 18.5431 34.8152 18.4174 34.6566 18.3796V18.3796Z" fill="#973456"/>
</svg>
