<svg width="242" height="245" viewBox="0 0 242 245" fill="none" xmlns="http://www.w3.org/2000/svg">
<path d="M56.5144 131.324C53.8164 130.534 51.7765 132.048 54.0796 134.285C56.3828 136.522 60.1994 139.023 58.0937 140.602C55.9879 142.182 36.3126 137.97 22.6253 132.245C8.93811 126.52 7.81943 123.822 3.21315 127.573C-1.39312 131.324 0.844209 136.259 12.1625 141.392C23.4808 146.525 47.0386 151.789 56.1196 150.868C65.2005 149.946 67.8985 148.828 66.056 146.13C64.2134 143.432 63.0948 140.866 66.3192 141.129C69.5436 141.392 80.4012 142.379 83.2966 140.734C86.192 139.089 85.7313 138.826 80.6644 137.773C75.5975 136.72 61.4497 132.706 56.5144 131.324Z" fill="url(#paint0_linear_783_4851)"/>
<path d="M41.0506 126.191C36.3127 124.48 31.18 121.585 29.4691 124.48C27.824 127.376 36.0495 131.39 41.3796 131.126C46.7097 130.863 47.8284 128.626 41.0506 126.191Z" fill="url(#paint1_linear_783_4851)"/>
<path d="M94.7462 129.021C91.785 128.889 91.8508 136.128 97.3784 137.115C113.566 140.01 134.887 135.206 148.903 130.929C151.14 130.205 151.469 133.627 147.455 136.522C143.441 139.418 136.861 141.063 141.006 143.498C145.152 145.932 166.999 138.497 173.777 132.048C180.555 125.599 174.566 124.546 170.75 124.349C166.933 124.151 165.88 120.466 172.132 117.242C178.449 114.083 194.9 105.2 193.584 102.37C192.268 99.5406 171.342 112.504 149.956 119.216C119.423 129.021 108.631 129.481 94.7462 129.021Z" fill="url(#paint2_linear_783_4851)"/>
<path d="M176.936 209.828C178.91 208.512 180.884 209.104 179.7 211.539C178.515 213.974 176.015 216.935 178.12 217.659C180.226 218.383 194.9 209.696 204.31 201.405C213.72 193.114 213.918 190.679 218.656 192.456C223.393 194.232 222.867 198.773 215.168 205.946C207.469 213.118 189.965 223.647 182.463 225.358C174.896 227.069 172.461 226.871 173.185 224.239C173.909 221.607 174.172 219.238 171.672 220.291C169.171 221.344 160.682 225.095 157.918 224.502C155.155 223.91 155.418 223.581 159.235 221.409C163.051 219.238 173.382 212.263 176.936 209.828Z" fill="url(#paint3_linear_783_4851)"/>
<path d="M187.991 201.603C191.347 198.97 194.703 195.22 196.809 197.128C198.914 199.036 193.387 204.432 189.044 205.617C184.635 206.801 183.187 205.353 187.991 201.603Z" fill="#FAE1ED"/>
<path d="M145.613 218.251C147.982 217.396 149.824 223.12 145.679 225.424C133.439 232.07 115.08 233.978 102.643 234.241C100.669 234.307 101.327 237.137 105.341 238.387C109.355 239.637 115.08 239.177 112.448 242.269C109.815 245.362 90.2716 245.231 83.099 241.875C75.9264 238.519 80.401 236.084 83.428 234.899C86.455 233.715 86.3234 230.491 80.401 229.569C74.4787 228.714 58.8831 226.016 59.2122 223.384C59.5412 220.752 79.8088 225.555 98.7603 225.226C125.806 224.897 134.624 222.331 145.613 218.251Z" fill="url(#paint4_linear_783_4851)"/>
<path d="M197.137 114.215C198.783 113.886 205.297 116.123 195.887 121.914C191.61 124.546 186.543 127.902 184.635 125.928C182.726 123.954 187.859 116.057 197.137 114.215Z" fill="url(#paint5_linear_783_4851)"/>
<path d="M235.304 177.584C240.502 174.162 246.096 177.913 237.475 184.757C233.527 187.85 227.407 192.653 225.236 190.877C223.13 189.1 227.473 182.783 235.304 177.584Z" fill="url(#paint6_linear_783_4851)"/>
<path d="M225.96 126.849C226.091 124.151 222.34 125.731 216.681 129.481C211.022 133.298 202.27 144.485 171.408 150.078C140.48 155.671 136.861 154.487 136.006 161.199C135.15 167.911 154.299 162.647 167.526 158.633C180.752 154.619 189.109 154.487 188.451 159.554C187.793 164.621 169.434 176.795 131.597 175.742C93.7594 174.689 77.3084 162.581 68.4248 169.293C59.5413 176.005 81.6514 191.14 112.316 191.666C142.981 192.193 162.919 189.034 187.662 173.965C212.404 158.896 214.641 150.144 211.943 148.236C209.311 146.327 204.968 153.171 199.835 153.961C194.703 154.75 194.768 152.71 197.993 150.078C201.217 147.446 225.762 131.653 225.96 126.849Z" fill="url(#paint7_linear_783_4851)"/>
<path d="M22.8224 175.478C19.4006 174.425 15.1892 181.269 20.5851 185.546C25.981 189.758 55.7244 196.009 57.1721 198.444C58.6198 200.879 58.1591 202.853 52.171 203.379C46.1828 203.906 38.2863 201.537 41.0501 206.669C43.8139 211.802 71.1883 217.659 82.3092 215.158C93.3643 212.658 87.8367 207.854 83.9543 205.288C80.0719 202.721 81.3221 198.181 89.8109 198.773C98.3654 199.365 121.002 200.418 121.397 196.667C121.792 192.916 91.8508 193.509 65.4634 187.06C39.076 180.611 37.5625 179.953 22.8224 175.478Z" fill="url(#paint8_linear_783_4851)"/>
<path d="M38.0231 168.437C39.6682 169.688 39.4708 173.373 33.5484 171.925C27.6261 170.477 13.7415 165.674 14.0047 162.318C14.2679 158.962 28.8764 161.528 38.0231 168.437Z" fill="url(#paint9_linear_783_4851)"/>
<path d="M60.5282 114.281C54.8691 116.123 72.373 123.559 88.2317 124.349C103.235 125.138 107.907 121.782 106.262 120.203C104.617 118.624 95.9966 120.269 83.4938 118.163C70.9911 116.057 64.6081 112.899 60.5282 114.281Z" fill="url(#paint10_linear_783_4851)"/>
<path d="M114.356 118.624C112.053 119.545 112.316 122.769 115.277 122.309C118.238 121.848 127.122 120.4 129.688 118.69C132.255 116.979 130.28 115.07 126.793 115.531C123.239 116.057 117.712 117.242 114.356 118.624Z" fill="#F47D56"/>
<path d="M176.526 156.345V220.55C176.526 223.145 174.905 225.306 172.635 226.063C171.986 226.279 171.338 226.495 170.581 226.495H76.3268C75.6782 226.495 75.0297 226.387 74.4893 226.171C72.1113 225.414 70.3818 223.145 70.3818 220.55V156.345C70.3818 153.102 73.0841 150.4 76.3268 150.4H170.581C172.635 150.4 174.472 151.481 175.553 153.102C176.202 154.075 176.526 155.264 176.526 156.345Z" fill="url(#paint11_linear_783_4851)"/>
<path d="M71.354 153.535L113.725 106.299C119.022 100.354 128.425 100.354 133.722 106.299L175.445 153.21L71.354 153.535Z" fill="url(#paint12_linear_783_4851)"/>
<path d="M176.525 156.345V220.55C176.525 223.793 173.823 226.495 170.58 226.495H162.258L133.073 199.689C130.587 197.419 130.695 193.636 133.073 191.366L174.256 153.967C174.688 153.535 175.12 153.318 175.661 152.994C176.201 154.075 176.525 155.264 176.525 156.345Z" fill="url(#paint13_linear_783_4851)"/>
<path d="M70.4893 156.345V220.55C70.4893 223.793 73.1915 226.495 76.4342 226.495H84.7571L113.941 199.689C116.427 197.419 116.319 193.636 113.941 191.366L72.7592 153.967C72.3268 153.535 71.8944 153.318 71.354 152.994C70.8135 154.075 70.4893 155.264 70.4893 156.345Z" fill="url(#paint14_linear_783_4851)"/>
<path d="M172.635 226.171C171.986 226.387 171.338 226.603 170.581 226.603H76.3268C75.6782 226.603 75.0297 226.495 74.4893 226.279L115.78 189.204C120.211 185.205 127.453 185.205 131.885 189.204L172.635 226.171Z" fill="url(#paint15_linear_783_4851)"/>
<path d="M44.4646 25.3207C44.3023 25.0958 44.2149 24.8168 44.2024 24.4837C44.2525 23.7633 44.8731 23.2013 45.5935 23.2514C48.9915 23.5352 52.3685 23.9482 55.7248 24.4902C56.4243 24.6694 56.8573 25.2692 56.8072 25.9896C56.6279 26.6891 56.0282 27.1221 55.3078 27.0719C52.0807 26.5508 48.7036 26.1378 45.4348 25.8748C45.0475 25.8122 44.6811 25.6206 44.4646 25.3207ZM64.323 28.6604C64.1065 28.3605 64.0399 27.9524 64.1025 27.5651C64.2817 26.8656 65.0105 26.4535 65.7101 26.6327C68.9496 27.487 72.2225 28.5454 75.4745 29.7329C76.0991 29.9662 76.5112 30.695 76.257 31.4487C76.0237 32.0732 75.2948 32.4853 74.5412 32.2312C71.4183 31.0646 68.2745 30.027 65.0349 29.1727C64.7768 29.131 64.4853 28.8853 64.323 28.6604ZM143.315 123.075C143.207 122.925 143.119 122.646 143.086 122.442C142.758 119.144 142.375 115.771 141.768 112.56C141.614 111.873 142.126 111.161 142.814 111.007C143.501 110.853 144.213 111.365 144.367 112.052C144.953 115.392 145.39 118.84 145.718 122.138C145.797 122.88 145.23 123.517 144.564 123.541C144.081 123.662 143.586 123.45 143.315 123.075ZM83.1895 35.6809C82.9189 35.3061 82.8732 34.7689 83.0648 34.4025C83.3731 33.7238 84.1352 33.5157 84.8139 33.824C87.8202 35.3029 90.9346 36.9318 93.7701 38.648C94.3738 39.0104 94.5819 39.7725 94.2736 40.4512C93.9112 41.0549 93.1491 41.263 92.4704 40.9547C89.635 39.2385 86.6496 37.6305 83.6974 36.2265C83.5351 36.0016 83.3519 35.9058 83.1895 35.6809ZM139.755 103.294C139.646 103.144 139.592 103.069 139.559 102.865C138.618 99.6669 137.603 96.5227 136.384 93.4118C136.101 92.7038 136.484 91.971 137.117 91.7421C137.825 91.4591 138.558 91.8423 138.786 92.4753C140.006 95.5862 141.055 98.9345 141.995 102.133C142.149 102.82 141.766 103.553 141.079 103.707C140.65 103.902 140.079 103.744 139.755 103.294ZM100.44 46.1491C100.115 45.6993 100.09 45.033 100.486 44.6333C100.902 44.1046 101.718 43.9715 102.322 44.3339C105.041 46.3624 107.739 48.52 110.212 50.84C110.795 51.3315 110.799 52.1269 110.307 52.7097C109.816 53.2926 109.021 53.2966 108.438 52.8051C105.944 50.6143 103.375 48.4775 100.71 46.5239C100.677 46.3199 100.494 46.2241 100.44 46.1491ZM132.534 84.4455C132.479 84.3705 132.425 84.2956 132.425 84.2956C130.981 81.347 129.332 78.4317 127.534 75.6247C127.176 74.9709 127.301 74.1963 127.955 73.8383C128.609 73.4804 129.383 73.6054 129.741 74.2593C131.519 77.1954 133.221 80.1857 134.72 83.2092C135.078 83.863 134.749 84.6708 134.17 84.9747C133.612 85.1495 132.912 84.9703 132.534 84.4455ZM115.415 59.6275C115.037 59.1028 115.087 58.3824 115.557 57.9286C116.103 57.4206 116.952 57.4916 117.406 57.9623C119.654 60.4446 121.882 63.056 123.959 65.7757C124.392 66.3754 124.267 67.1499 123.667 67.5828C123.068 68.0158 122.293 67.8907 121.86 67.291C119.837 64.6463 117.739 62.0557 115.47 59.7025L115.415 59.6275Z" fill="url(#paint16_linear_783_4851)"/>
<path d="M143.478 138.466C143.316 138.241 143.228 137.962 143.216 137.629C143.358 135.93 143.371 134.21 143.383 132.49C143.434 131.77 143.925 131.187 144.72 131.183C145.441 131.233 146.024 131.725 146.028 132.52C146.015 134.24 145.927 136.014 145.839 137.788C145.789 138.508 145.169 139.07 144.448 139.02C144.061 138.957 143.694 138.766 143.478 138.466Z" fill="url(#paint17_linear_783_4851)"/>
<path d="M141.631 151.545L135.479 137.968C134.775 136.994 135.596 135.603 136.812 135.866L152.689 138.43C153.851 138.618 154.267 140.142 153.293 140.845L143.513 151.783C142.838 152.27 142.064 152.145 141.631 151.545Z" fill="url(#paint18_linear_783_4851)"/>
<path d="M103.012 150.786C113.613 150.786 122.206 142.193 122.206 131.592C122.206 120.991 113.613 112.398 103.012 112.398C92.4114 112.398 83.8179 120.991 83.8179 131.592C83.8179 142.193 92.4114 150.786 103.012 150.786Z" fill="url(#paint19_linear_783_4851)"/>
<path d="M98.4656 141.273C98.0447 141.273 97.6237 141.105 97.3712 140.768L90.2154 133.444C89.6261 132.855 89.6261 131.844 90.2154 131.171C90.8047 130.582 91.8149 130.582 92.4884 131.171L98.3814 137.232L110.504 121.405C111.009 120.732 112.019 120.564 112.693 121.153C113.366 121.658 113.535 122.668 112.945 123.342L99.7284 140.684C99.4758 141.021 99.0549 141.273 98.5498 141.273C98.4656 141.273 98.4656 141.273 98.4656 141.273Z" fill="white"/>
<defs>
<linearGradient id="paint0_linear_783_4851" x1="63.4411" y1="144.571" x2="11.6567" y2="130.669" gradientUnits="userSpaceOnUse">
<stop stop-color="#F1CCDE"/>
<stop offset="0.9946" stop-color="#FBECF4"/>
</linearGradient>
<linearGradient id="paint1_linear_783_4851" x1="50.8708" y1="130.262" x2="34.0149" y2="126.787" gradientUnits="userSpaceOnUse">
<stop stop-color="#F1CCDE"/>
<stop offset="0.9946" stop-color="#FBECF4"/>
</linearGradient>
<linearGradient id="paint2_linear_783_4851" x1="182.547" y1="109.149" x2="137.714" y2="129.654" gradientUnits="userSpaceOnUse">
<stop stop-color="#F1CCDE"/>
<stop offset="0.9946" stop-color="#FBECF4"/>
</linearGradient>
<linearGradient id="paint3_linear_783_4851" x1="188.768" y1="226.625" x2="189.045" y2="191.761" gradientUnits="userSpaceOnUse">
<stop stop-color="#F1CCDE"/>
<stop offset="0.9946" stop-color="#FBECF4"/>
</linearGradient>
<linearGradient id="paint4_linear_783_4851" x1="57.9988" y1="231.798" x2="108.045" y2="231.45" gradientUnits="userSpaceOnUse">
<stop stop-color="#F1CCDE"/>
<stop offset="0.9946" stop-color="#FBECF4"/>
</linearGradient>
<linearGradient id="paint5_linear_783_4851" x1="193.281" y1="125.446" x2="191.682" y2="115.021" gradientUnits="userSpaceOnUse">
<stop stop-color="#F1CCDE"/>
<stop offset="0.9946" stop-color="#FBECF4"/>
</linearGradient>
<linearGradient id="paint6_linear_783_4851" x1="234.748" y1="189.062" x2="231.703" y2="178.127" gradientUnits="userSpaceOnUse">
<stop stop-color="#F1CCDE"/>
<stop offset="0.9946" stop-color="#FBECF4"/>
</linearGradient>
<linearGradient id="paint7_linear_783_4851" x1="209.514" y1="111.14" x2="180.32" y2="133.035" gradientUnits="userSpaceOnUse">
<stop stop-color="#F1CCDE"/>
<stop offset="0.9946" stop-color="#FBECF4"/>
</linearGradient>
<linearGradient id="paint8_linear_783_4851" x1="31.475" y1="192.861" x2="114.886" y2="208.848" gradientUnits="userSpaceOnUse">
<stop stop-color="#FDC07C"/>
<stop offset="0.9946" stop-color="#F1AD66"/>
</linearGradient>
<linearGradient id="paint9_linear_783_4851" x1="14.6771" y1="167.953" x2="38.3202" y2="165.085" gradientUnits="userSpaceOnUse">
<stop stop-color="#FDC07C"/>
<stop offset="0.9946" stop-color="#F1AD66"/>
</linearGradient>
<linearGradient id="paint10_linear_783_4851" x1="137.421" y1="119.668" x2="92.2405" y2="119.321" gradientUnits="userSpaceOnUse">
<stop stop-color="#8B1D56"/>
<stop offset="1" stop-color="#C84799"/>
</linearGradient>
<linearGradient id="paint11_linear_783_4851" x1="123.499" y1="88.2143" x2="123.499" y2="150.589" gradientUnits="userSpaceOnUse">
<stop stop-color="#FBB666"/>
<stop offset="1" stop-color="#F69241"/>
</linearGradient>
<linearGradient id="paint12_linear_783_4851" x1="123.456" y1="88.2143" x2="123.456" y2="150.589" gradientUnits="userSpaceOnUse">
<stop stop-color="#FBB666"/>
<stop offset="1" stop-color="#F69241"/>
</linearGradient>
<linearGradient id="paint13_linear_783_4851" x1="177.394" y1="183.196" x2="134.314" y2="228.989" gradientUnits="userSpaceOnUse">
<stop stop-color="#FBB666"/>
<stop offset="1" stop-color="#F89E44"/>
</linearGradient>
<linearGradient id="paint14_linear_783_4851" x1="80.4387" y1="186.724" x2="96.7207" y2="214.2" gradientUnits="userSpaceOnUse">
<stop stop-color="#FBB666"/>
<stop offset="1" stop-color="#F89E44"/>
</linearGradient>
<linearGradient id="paint15_linear_783_4851" x1="123.617" y1="185.567" x2="123.617" y2="242.323" gradientUnits="userSpaceOnUse">
<stop stop-color="#FBB666"/>
<stop offset="1" stop-color="#F89E44"/>
</linearGradient>
<linearGradient id="paint16_linear_783_4851" x1="7.18201" y1="19.7118" x2="103.662" y2="153.357" gradientUnits="userSpaceOnUse">
<stop stop-color="#827FCB"/>
<stop offset="1" stop-color="#A8A7E1"/>
</linearGradient>
<linearGradient id="paint17_linear_783_4851" x1="142.702" y1="132.368" x2="146.642" y2="137.826" gradientUnits="userSpaceOnUse">
<stop stop-color="#827FCB"/>
<stop offset="1" stop-color="#A8A7E1"/>
</linearGradient>
<linearGradient id="paint18_linear_783_4851" x1="139.204" y1="133.615" x2="149.32" y2="147.627" gradientUnits="userSpaceOnUse">
<stop stop-color="#827FCB"/>
<stop offset="1" stop-color="#A8A7E1"/>
</linearGradient>
<linearGradient id="paint19_linear_783_4851" x1="100.657" y1="110.81" x2="107.262" y2="169.46" gradientUnits="userSpaceOnUse">
<stop stop-color="#B22878"/>
<stop offset="1" stop-color="#C24A9A"/>
</linearGradient>
</defs>
</svg>
