<svg width="19" height="19" viewBox="0 0 19 19" fill="none" xmlns="http://www.w3.org/2000/svg">
<path d="M16.8905 7.18482C17.3306 7.18482 17.7185 7.34445 18.0448 7.62593C18.3258 7.93285 18.4996 8.31732 18.4996 8.74543V10.806C18.4996 11.2521 18.3364 11.6321 18.0456 11.9256C17.7369 12.2127 17.3482 12.3909 16.9148 12.3909H13.4238C12.8415 12.3909 12.4148 12.8727 12.4148 13.4V16.9151C12.4148 17.3612 12.2516 17.7412 11.9608 18.0347C11.652 18.3218 11.2633 18.5 10.8299 18.5H8.7693C8.32323 18.5 7.94325 18.3368 7.64973 18.046C7.36262 17.7372 7.18446 17.3485 7.18446 16.9151V13.4242C7.18446 12.8418 6.70259 12.4151 6.17536 12.4151H2.68446C2.23838 12.4151 1.85841 12.2519 1.56489 11.9611C1.27778 11.6524 1.09961 11.2637 1.09961 10.8303V8.76967C1.09961 8.3236 1.26282 7.94363 1.55358 7.6501C1.86235 7.36299 2.25104 7.18482 2.68446 7.18482H6.15112C6.7335 7.18482 7.16021 6.70296 7.16021 6.17573V2.68482C7.16021 2.23875 7.32342 1.85878 7.61419 1.56525C7.92296 1.27814 8.31165 1.09998 8.74506 1.09998H10.8057C11.2517 1.09998 11.6317 1.26318 11.9252 1.55394C12.2123 1.86272 12.3905 2.25141 12.3905 2.68482V6.17573C12.3905 6.75811 12.8724 7.18482 13.3996 7.18482H16.8905Z" fill="#1B173A" stroke="#E3DEEF"/>
</svg>
